solid Created by stlwrite.m 05-Apr-2019 11:11:19
facet normal 0.0000000E+00 0.0000000E+00 1.0000000E+00
outer loop
vertex -8.5714287E-01 -4.2857143E-01 0.0000000E+00
vertex -1.0000000E+00 -4.2857143E-01 0.0000000E+00
vertex -8.5714287E-01 -5.7142860E-01 0.0000000E+00
endloop
endfacet
facet normal 0.0000000E+00 0.0000000E+00 1.0000000E+00
outer loop
vertex -8.5714287E-01 -1.4285715E-01 0.0000000E+00
vertex -8.5714287E-01 -2.8571430E-01 0.0000000E+00
vertex -7.1428573E-01 -2.8571430E-01 0.0000000E+00
endloop
endfacet
facet normal 0.0000000E+00 0.0000000E+00 1.0000000E+00
outer loop
vertex -7.1428573E-01 -1.4285715E-01 0.0000000E+00
vertex -8.5714287E-01 -1.4285715E-01 0.0000000E+00
vertex -7.1428573E-01 -2.8571430E-01 0.0000000E+00
endloop
endfacet
facet normal -0.0000000E+00 0.0000000E+00 1.0000000E+00
outer loop
vertex -1.0000000E+00 2.8571430E-01 0.0000000E+00
vertex -8.5714287E-01 1.4285715E-01 0.0000000E+00
vertex -8.5714287E-01 2.8571430E-01 0.0000000E+00
endloop
endfacet
facet normal 0.0000000E+00 0.0000000E+00 1.0000000E+00
outer loop
vertex -2.8571430E-01 0.0000000E+00 0.0000000E+00
vertex -4.2857143E-01 0.0000000E+00 0.0000000E+00
vertex -2.8571430E-01 -1.4285715E-01 0.0000000E+00
endloop
endfacet
facet normal 0.0000000E+00 0.0000000E+00 1.0000000E+00
outer loop
vertex -8.5714287E-01 0.0000000E+00 0.0000000E+00
vertex -7.1428573E-01 0.0000000E+00 0.0000000E+00
vertex -8.5714287E-01 1.4285715E-01 0.0000000E+00
endloop
endfacet
facet normal 0.0000000E+00 0.0000000E+00 1.0000000E+00
outer loop
vertex 0.0000000E+00 1.4285715E-01 0.0000000E+00
vertex -1.4285715E-01 1.4285715E-01 0.0000000E+00
vertex 0.0000000E+00 0.0000000E+00 0.0000000E+00
endloop
endfacet
facet normal 0.0000000E+00 0.0000000E+00 9.9999994E-01
outer loop
vertex -5.7142860E-01 -5.7142860E-01 0.0000000E+00
vertex -7.1428573E-01 -5.7142860E-01 0.0000000E+00
vertex -5.7142860E-01 -7.1428573E-01 0.0000000E+00
endloop
endfacet
facet normal -0.0000000E+00 0.0000000E+00 9.9999994E-01
outer loop
vertex 7.1428573E-01 8.5714287E-01 0.0000000E+00
vertex 8.5714287E-01 7.1428573E-01 0.0000000E+00
vertex 8.5714287E-01 8.5714287E-01 0.0000000E+00
endloop
endfacet
facet normal 0.0000000E+00 0.0000000E+00 1.0000000E+00
outer loop
vertex -1.4285715E-01 -2.8571430E-01 0.0000000E+00
vertex -2.8571430E-01 -1.4285715E-01 0.0000000E+00
vertex -2.8571430E-01 -2.8571430E-01 0.0000000E+00
endloop
endfacet
facet normal 0.0000000E+00 0.0000000E+00 9.9999994E-01
outer loop
vertex 8.5714287E-01 -7.1428573E-01 0.0000000E+00
vertex 8.5714287E-01 -8.5714287E-01 0.0000000E+00
vertex 1.0000000E+00 -8.5714287E-01 0.0000000E+00
endloop
endfacet
facet normal 0.0000000E+00 0.0000000E+00 1.0000000E+00
outer loop
vertex 1.4285715E-01 0.0000000E+00 0.0000000E+00
vertex 0.0000000E+00 1.4285715E-01 0.0000000E+00
vertex 0.0000000E+00 0.0000000E+00 0.0000000E+00
endloop
endfacet
facet normal -0.0000000E+00 0.0000000E+00 1.0000000E+00
outer loop
vertex -2.8571430E-01 -2.8571430E-01 0.0000000E+00
vertex -1.4285715E-01 -4.2857143E-01 0.0000000E+00
vertex -1.4285715E-01 -2.8571430E-01 0.0000000E+00
endloop
endfacet
facet normal 0.0000000E+00 0.0000000E+00 1.0000000E+00
outer loop
vertex -1.4285715E-01 5.7142860E-01 0.0000000E+00
vertex -1.4285715E-01 4.2857143E-01 0.0000000E+00
vertex 0.0000000E+00 4.2857143E-01 0.0000000E+00
endloop
endfacet
facet normal -0.0000000E+00 0.0000000E+00 1.0000000E+00
outer loop
vertex -5.7142860E-01 -1.4285715E-01 0.0000000E+00
vertex -4.2857143E-01 -2.8571430E-01 0.0000000E+00
vertex -4.2857143E-01 -1.4285715E-01 0.0000000E+00
endloop
endfacet
facet normal 0.0000000E+00 0.0000000E+00 1.0000000E+00
outer loop
vertex 4.2857143E-01 -4.2857143E-01 0.0000000E+00
vertex 2.8571430E-01 -4.2857143E-01 0.0000000E+00
vertex 4.2857143E-01 -5.7142860E-01 0.0000000E+00
endloop
endfacet
facet normal 0.0000000E+00 0.0000000E+00 9.9999994E-01
outer loop
vertex -7.1428573E-01 -5.7142860E-01 0.0000000E+00
vertex -8.5714287E-01 -5.7142860E-01 0.0000000E+00
vertex -7.1428573E-01 -7.1428573E-01 0.0000000E+00
endloop
endfacet
facet normal 0.0000000E+00 0.0000000E+00 9.9999994E-01
outer loop
vertex -4.2857143E-01 -5.7142860E-01 0.0000000E+00
vertex -4.2857143E-01 -7.1428573E-01 0.0000000E+00
vertex -2.8571430E-01 -7.1428573E-01 0.0000000E+00
endloop
endfacet
facet normal 0.0000000E+00 0.0000000E+00 1.0000000E+00
outer loop
vertex 5.7142860E-01 -4.2857143E-01 0.0000000E+00
vertex 4.2857143E-01 -2.8571430E-01 0.0000000E+00
vertex 4.2857143E-01 -4.2857143E-01 0.0000000E+00
endloop
endfacet
facet normal 0.0000000E+00 -0.0000000E+00 1.0000000E+00
outer loop
vertex 4.2857143E-01 -1.4285715E-01 0.0000000E+00
vertex 4.2857143E-01 0.0000000E+00 0.0000000E+00
vertex 2.8571430E-01 0.0000000E+00 0.0000000E+00
endloop
endfacet
facet normal 0.0000000E+00 -0.0000000E+00 9.9999994E-01
outer loop
vertex 4.2857143E-01 2.8571430E-01 0.0000000E+00
vertex 4.2857143E-01 4.2857143E-01 0.0000000E+00
vertex 2.8571430E-01 4.2857143E-01 0.0000000E+00
endloop
endfacet
facet normal 0.0000000E+00 -0.0000000E+00 9.9999994E-01
outer loop
vertex -2.8571430E-01 -7.1428573E-01 0.0000000E+00
vertex -2.8571430E-01 -5.7142860E-01 0.0000000E+00
vertex -4.2857143E-01 -5.7142860E-01 0.0000000E+00
endloop
endfacet
facet normal 0.0000000E+00 -0.0000000E+00 1.0000000E+00
outer loop
vertex -2.8571430E-01 -5.7142860E-01 0.0000000E+00
vertex -2.8571430E-01 -4.2857143E-01 0.0000000E+00
vertex -4.2857143E-01 -4.2857143E-01 0.0000000E+00
endloop
endfacet
facet normal 0.0000000E+00 0.0000000E+00 1.0000000E+00
outer loop
vertex -1.4285715E-01 -7.1428573E-01 0.0000000E+00
vertex -2.8571430E-01 -7.1428573E-01 0.0000000E+00
vertex -1.4285715E-01 -8.5714287E-01 0.0000000E+00
endloop
endfacet
facet normal 0.0000000E+00 -0.0000000E+00 9.9999994E-01
outer loop
vertex -8.5714287E-01 -1.0000000E+00 0.0000000E+00
vertex -8.5714287E-01 -8.5714287E-01 0.0000000E+00
vertex -1.0000000E+00 -8.5714287E-01 0.0000000E+00
endloop
endfacet
facet normal 0.0000000E+00 -0.0000000E+00 1.0000000E+00
outer loop
vertex 0.0000000E+00 -8.5714287E-01 0.0000000E+00
vertex 0.0000000E+00 -7.1428573E-01 0.0000000E+00
vertex -1.4285715E-01 -7.1428573E-01 0.0000000E+00
endloop
endfacet
facet normal -0.0000000E+00 0.0000000E+00 1.0000000E+00
outer loop
vertex -5.7142860E-01 -5.7142860E-01 0.0000000E+00
vertex -4.2857143E-01 -7.1428573E-01 0.0000000E+00
vertex -4.2857143E-01 -5.7142860E-01 0.0000000E+00
endloop
endfacet
facet normal 0.0000000E+00 0.0000000E+00 1.0000000E+00
outer loop
vertex 0.0000000E+00 -8.5714287E-01 0.0000000E+00
vertex -1.4285715E-01 -7.1428573E-01 0.0000000E+00
vertex -1.4285715E-01 -8.5714287E-01 0.0000000E+00
endloop
endfacet
facet normal 0.0000000E+00 -0.0000000E+00 1.0000000E+00
outer loop
vertex -1.4285715E-01 -5.7142860E-01 0.0000000E+00
vertex -1.4285715E-01 -4.2857143E-01 0.0000000E+00
vertex -2.8571430E-01 -4.2857143E-01 0.0000000E+00
endloop
endfacet
facet normal 0.0000000E+00 0.0000000E+00 1.0000000E+00
outer loop
vertex -1.4285715E-01 -1.0000000E+00 0.0000000E+00
vertex 0.0000000E+00 -1.0000000E+00 0.0000000E+00
vertex -1.4285715E-01 -8.5714287E-01 0.0000000E+00
endloop
endfacet
facet normal 0.0000000E+00 0.0000000E+00 1.0000000E+00
outer loop
vertex 1.4285715E-01 -4.2857143E-01 0.0000000E+00
vertex 2.8571430E-01 -4.2857143E-01 0.0000000E+00
vertex 1.4285715E-01 -2.8571430E-01 0.0000000E+00
endloop
endfacet
facet normal 0.0000000E+00 0.0000000E+00 1.0000000E+00
outer loop
vertex 0.0000000E+00 -5.7142860E-01 0.0000000E+00
vertex -1.4285715E-01 -4.2857143E-01 0.0000000E+00
vertex -1.4285715E-01 -5.7142860E-01 0.0000000E+00
endloop
endfacet
facet normal 0.0000000E+00 0.0000000E+00 1.0000000E+00
outer loop
vertex -2.8571430E-01 -4.2857143E-01 0.0000000E+00
vertex -2.8571430E-01 -5.7142860E-01 0.0000000E+00
vertex -1.4285715E-01 -5.7142860E-01 0.0000000E+00
endloop
endfacet
facet normal 0.0000000E+00 0.0000000E+00 1.0000000E+00
outer loop
vertex -1.4285715E-01 0.0000000E+00 0.0000000E+00
vertex -1.4285715E-01 -1.4285715E-01 0.0000000E+00
vertex 0.0000000E+00 -1.4285715E-01 0.0000000E+00
endloop
endfacet
facet normal 0.0000000E+00 0.0000000E+00 9.9999994E-01
outer loop
vertex -2.8571430E-01 -2.8571430E-01 0.0000000E+00
vertex -4.2857143E-01 -2.8571430E-01 0.0000000E+00
vertex -2.8571430E-01 -4.2857143E-01 0.0000000E+00
endloop
endfacet
facet normal 0.0000000E+00 0.0000000E+00 1.0000000E+00
outer loop
vertex -1.0000000E+00 -2.8571430E-01 0.0000000E+00
vertex -8.5714287E-01 -2.8571430E-01 0.0000000E+00
vertex -1.0000000E+00 -1.4285715E-01 0.0000000E+00
endloop
endfacet
facet normal 0.0000000E+00 0.0000000E+00 1.0000000E+00
outer loop
vertex -4.2857143E-01 -4.2857143E-01 0.0000000E+00
vertex -4.2857143E-01 -5.7142860E-01 0.0000000E+00
vertex -2.8571430E-01 -5.7142860E-01 0.0000000E+00
endloop
endfacet
facet normal 0.0000000E+00 -0.0000000E+00 9.9999994E-01
outer loop
vertex -7.1428573E-01 -4.2857143E-01 0.0000000E+00
vertex -7.1428573E-01 -2.8571430E-01 0.0000000E+00
vertex -8.5714287E-01 -2.8571430E-01 0.0000000E+00
endloop
endfacet
facet normal 0.0000000E+00 0.0000000E+00 1.0000000E+00
outer loop
vertex -5.7142860E-01 1.4285715E-01 0.0000000E+00
vertex -4.2857143E-01 1.4285715E-01 0.0000000E+00
vertex -5.7142860E-01 2.8571430E-01 0.0000000E+00
endloop
endfacet
facet normal 0.0000000E+00 0.0000000E+00 1.0000000E+00
outer loop
vertex -4.2857143E-01 -1.4285715E-01 0.0000000E+00
vertex -4.2857143E-01 -2.8571430E-01 0.0000000E+00
vertex -2.8571430E-01 -2.8571430E-01 0.0000000E+00
endloop
endfacet
facet normal 0.0000000E+00 0.0000000E+00 1.0000000E+00
outer loop
vertex -8.5714287E-01 -1.4285715E-01 0.0000000E+00
vertex -1.0000000E+00 0.0000000E+00 0.0000000E+00
vertex -1.0000000E+00 -1.4285715E-01 0.0000000E+00
endloop
endfacet
facet normal 0.0000000E+00 0.0000000E+00 1.0000000E+00
outer loop
vertex -8.5714287E-01 0.0000000E+00 0.0000000E+00
vertex -1.0000000E+00 1.4285715E-01 0.0000000E+00
vertex -1.0000000E+00 0.0000000E+00 0.0000000E+00
endloop
endfacet
facet normal -0.0000000E+00 0.0000000E+00 9.9999994E-01
outer loop
vertex -8.5714287E-01 4.2857143E-01 0.0000000E+00
vertex -7.1428573E-01 2.8571430E-01 0.0000000E+00
vertex -7.1428573E-01 4.2857143E-01 0.0000000E+00
endloop
endfacet
facet normal 0.0000000E+00 0.0000000E+00 1.0000000E+00
outer loop
vertex -8.5714287E-01 4.2857143E-01 0.0000000E+00
vertex -1.0000000E+00 5.7142860E-01 0.0000000E+00
vertex -1.0000000E+00 4.2857143E-01 0.0000000E+00
endloop
endfacet
facet normal 0.0000000E+00 0.0000000E+00 9.9999994E-01
outer loop
vertex -5.7142860E-01 8.5714287E-01 0.0000000E+00
vertex -7.1428573E-01 8.5714287E-01 0.0000000E+00
vertex -5.7142860E-01 7.1428573E-01 0.0000000E+00
endloop
endfacet
facet normal 0.0000000E+00 0.0000000E+00 9.9999994E-01
outer loop
vertex -7.1428573E-01 7.1428573E-01 0.0000000E+00
vertex -8.5714287E-01 7.1428573E-01 0.0000000E+00
vertex -7.1428573E-01 5.7142860E-01 0.0000000E+00
endloop
endfacet
facet normal 0.0000000E+00 0.0000000E+00 9.9999994E-01
outer loop
vertex -8.5714287E-01 4.2857143E-01 0.0000000E+00
vertex -1.0000000E+00 4.2857143E-01 0.0000000E+00
vertex -8.5714287E-01 2.8571430E-01 0.0000000E+00
endloop
endfacet
facet normal -0.0000000E+00 0.0000000E+00 9.9999994E-01
outer loop
vertex -1.0000000E+00 8.5714287E-01 0.0000000E+00
vertex -8.5714287E-01 7.1428573E-01 0.0000000E+00
vertex -8.5714287E-01 8.5714287E-01 0.0000000E+00
endloop
endfacet
facet normal 0.0000000E+00 0.0000000E+00 1.0000000E+00
outer loop
vertex -5.7142860E-01 5.7142860E-01 0.0000000E+00
vertex -5.7142860E-01 4.2857143E-01 0.0000000E+00
vertex -4.2857143E-01 4.2857143E-01 0.0000000E+00
endloop
endfacet
facet normal 0.0000000E+00 -0.0000000E+00 9.9999994E-01
outer loop
vertex 7.1428573E-01 5.7142860E-01 0.0000000E+00
vertex 7.1428573E-01 7.1428573E-01 0.0000000E+00
vertex 5.7142860E-01 7.1428573E-01 0.0000000E+00
endloop
endfacet
facet normal 0.0000000E+00 0.0000000E+00 1.0000000E+00
outer loop
vertex -5.7142860E-01 4.2857143E-01 0.0000000E+00
vertex -5.7142860E-01 2.8571430E-01 0.0000000E+00
vertex -4.2857143E-01 2.8571430E-01 0.0000000E+00
endloop
endfacet
facet normal 0.0000000E+00 0.0000000E+00 1.0000000E+00
outer loop
vertex -5.7142860E-01 0.0000000E+00 0.0000000E+00
vertex -5.7142860E-01 -1.4285715E-01 0.0000000E+00
vertex -4.2857143E-01 -1.4285715E-01 0.0000000E+00
endloop
endfacet
facet normal 0.0000000E+00 0.0000000E+00 1.0000000E+00
outer loop
vertex -2.8571430E-01 1.4285715E-01 0.0000000E+00
vertex -4.2857143E-01 2.8571430E-01 0.0000000E+00
vertex -4.2857143E-01 1.4285715E-01 0.0000000E+00
endloop
endfacet
facet normal 0.0000000E+00 0.0000000E+00 1.0000000E+00
outer loop
vertex -5.7142860E-01 1.4285715E-01 0.0000000E+00
vertex -7.1428573E-01 1.4285715E-01 0.0000000E+00
vertex -5.7142860E-01 0.0000000E+00 0.0000000E+00
endloop
endfacet
facet normal 0.0000000E+00 0.0000000E+00 1.0000000E+00
outer loop
vertex -2.8571430E-01 1.4285715E-01 0.0000000E+00
vertex -2.8571430E-01 0.0000000E+00 0.0000000E+00
vertex -1.4285715E-01 0.0000000E+00 0.0000000E+00
endloop
endfacet
facet normal 0.0000000E+00 0.0000000E+00 1.0000000E+00
outer loop
vertex 2.8571430E-01 0.0000000E+00 0.0000000E+00
vertex 1.4285715E-01 0.0000000E+00 0.0000000E+00
vertex 2.8571430E-01 -1.4285715E-01 0.0000000E+00
endloop
endfacet
facet normal 0.0000000E+00 0.0000000E+00 1.0000000E+00
outer loop
vertex 1.4285715E-01 2.8571430E-01 0.0000000E+00
vertex 1.4285715E-01 1.4285715E-01 0.0000000E+00
vertex 2.8571430E-01 1.4285715E-01 0.0000000E+00
endloop
endfacet
facet normal 0.0000000E+00 0.0000000E+00 1.0000000E+00
outer loop
vertex -1.4285715E-01 4.2857143E-01 0.0000000E+00
vertex -2.8571430E-01 4.2857143E-01 0.0000000E+00
vertex -1.4285715E-01 2.8571430E-01 0.0000000E+00
endloop
endfacet
facet normal 0.0000000E+00 0.0000000E+00 1.0000000E+00
outer loop
vertex 1.4285715E-01 8.5714287E-01 0.0000000E+00
vertex 0.0000000E+00 8.5714287E-01 0.0000000E+00
vertex 1.4285715E-01 7.1428573E-01 0.0000000E+00
endloop
endfacet
facet normal 0.0000000E+00 0.0000000E+00 1.0000000E+00
outer loop
vertex 0.0000000E+00 4.2857143E-01 0.0000000E+00
vertex 0.0000000E+00 2.8571430E-01 0.0000000E+00
vertex 1.4285715E-01 2.8571430E-01 0.0000000E+00
endloop
endfacet
facet normal 0.0000000E+00 0.0000000E+00 1.0000000E+00
outer loop
vertex 0.0000000E+00 5.7142860E-01 0.0000000E+00
vertex -1.4285715E-01 7.1428573E-01 0.0000000E+00
vertex -1.4285715E-01 5.7142860E-01 0.0000000E+00
endloop
endfacet
facet normal -0.0000000E+00 0.0000000E+00 1.0000000E+00
outer loop
vertex 4.2857143E-01 -1.4285715E-01 0.0000000E+00
vertex 5.7142860E-01 -2.8571430E-01 0.0000000E+00
vertex 5.7142860E-01 -1.4285715E-01 0.0000000E+00
endloop
endfacet
facet normal 0.0000000E+00 0.0000000E+00 1.0000000E+00
outer loop
vertex 1.4285715E-01 1.0000000E+00 0.0000000E+00
vertex 1.4285715E-01 8.5714287E-01 0.0000000E+00
vertex 2.8571430E-01 8.5714287E-01 0.0000000E+00
endloop
endfacet
facet normal -0.0000000E+00 0.0000000E+00 9.9999994E-01
outer loop
vertex -4.2857143E-01 8.5714287E-01 0.0000000E+00
vertex -2.8571430E-01 7.1428573E-01 0.0000000E+00
vertex -2.8571430E-01 8.5714287E-01 0.0000000E+00
endloop
endfacet
facet normal 0.0000000E+00 0.0000000E+00 9.9999994E-01
outer loop
vertex 7.1428573E-01 8.5714287E-01 0.0000000E+00
vertex 7.1428573E-01 7.1428573E-01 0.0000000E+00
vertex 8.5714287E-01 7.1428573E-01 0.0000000E+00
endloop
endfacet
facet normal 0.0000000E+00 0.0000000E+00 1.0000000E+00
outer loop
vertex 4.2857143E-01 7.1428573E-01 0.0000000E+00
vertex 4.2857143E-01 5.7142860E-01 0.0000000E+00
vertex 5.7142860E-01 5.7142860E-01 0.0000000E+00
endloop
endfacet
facet normal 0.0000000E+00 0.0000000E+00 1.0000000E+00
outer loop
vertex 2.8571430E-01 5.7142860E-01 0.0000000E+00
vertex 1.4285715E-01 5.7142860E-01 0.0000000E+00
vertex 2.8571430E-01 4.2857143E-01 0.0000000E+00
endloop
endfacet
facet normal 0.0000000E+00 0.0000000E+00 1.0000000E+00
outer loop
vertex 4.2857143E-01 8.5714287E-01 0.0000000E+00
vertex 5.7142860E-01 8.5714287E-01 0.0000000E+00
vertex 4.2857143E-01 1.0000000E+00 0.0000000E+00
endloop
endfacet
facet normal 0.0000000E+00 0.0000000E+00 9.9999994E-01
outer loop
vertex 8.5714287E-01 8.5714287E-01 0.0000000E+00
vertex 1.0000000E+00 8.5714287E-01 0.0000000E+00
vertex 8.5714287E-01 1.0000000E+00 0.0000000E+00
endloop
endfacet
facet normal 0.0000000E+00 0.0000000E+00 1.0000000E+00
outer loop
vertex 4.2857143E-01 8.5714287E-01 0.0000000E+00
vertex 4.2857143E-01 7.1428573E-01 0.0000000E+00
vertex 5.7142860E-01 7.1428573E-01 0.0000000E+00
endloop
endfacet
facet normal 0.0000000E+00 -0.0000000E+00 1.0000000E+00
outer loop
vertex 2.8571430E-01 1.4285715E-01 0.0000000E+00
vertex 2.8571430E-01 2.8571430E-01 0.0000000E+00
vertex 1.4285715E-01 2.8571430E-01 0.0000000E+00
endloop
endfacet
facet normal 0.0000000E+00 0.0000000E+00 1.0000000E+00
outer loop
vertex 5.7142860E-01 5.7142860E-01 0.0000000E+00
vertex 5.7142860E-01 4.2857143E-01 0.0000000E+00
vertex 7.1428573E-01 4.2857143E-01 0.0000000E+00
endloop
endfacet
facet normal 0.0000000E+00 -0.0000000E+00 1.0000000E+00
outer loop
vertex 1.4285715E-01 4.2857143E-01 0.0000000E+00
vertex 1.4285715E-01 5.7142860E-01 0.0000000E+00
vertex 0.0000000E+00 5.7142860E-01 0.0000000E+00
endloop
endfacet
facet normal 0.0000000E+00 0.0000000E+00 1.0000000E+00
outer loop
vertex 7.1428573E-01 5.7142860E-01 0.0000000E+00
vertex 5.7142860E-01 5.7142860E-01 0.0000000E+00
vertex 7.1428573E-01 4.2857143E-01 0.0000000E+00
endloop
endfacet
facet normal 0.0000000E+00 0.0000000E+00 9.9999994E-01
outer loop
vertex 7.1428573E-01 -7.1428573E-01 0.0000000E+00
vertex 5.7142860E-01 -7.1428573E-01 0.0000000E+00
vertex 7.1428573E-01 -8.5714287E-01 0.0000000E+00
endloop
endfacet
facet normal 0.0000000E+00 0.0000000E+00 9.9999994E-01
outer loop
vertex 8.5714287E-01 -2.8571430E-01 0.0000000E+00
vertex 8.5714287E-01 -4.2857143E-01 0.0000000E+00
vertex 1.0000000E+00 -4.2857143E-01 0.0000000E+00
endloop
endfacet
facet normal 0.0000000E+00 -0.0000000E+00 1.0000000E+00
outer loop
vertex 1.4285715E-01 0.0000000E+00 0.0000000E+00
vertex 1.4285715E-01 1.4285715E-01 0.0000000E+00
vertex 0.0000000E+00 1.4285715E-01 0.0000000E+00
endloop
endfacet
facet normal 0.0000000E+00 0.0000000E+00 1.0000000E+00
outer loop
vertex 5.7142860E-01 0.0000000E+00 0.0000000E+00
vertex 4.2857143E-01 1.4285715E-01 0.0000000E+00
vertex 4.2857143E-01 0.0000000E+00 0.0000000E+00
endloop
endfacet
facet normal 0.0000000E+00 0.0000000E+00 9.9999994E-01
outer loop
vertex 2.8571430E-01 5.7142860E-01 0.0000000E+00
vertex 4.2857143E-01 5.7142860E-01 0.0000000E+00
vertex 2.8571430E-01 7.1428573E-01 0.0000000E+00
endloop
endfacet
facet normal 0.0000000E+00 0.0000000E+00 1.0000000E+00
outer loop
vertex 2.8571430E-01 -2.8571430E-01 0.0000000E+00
vertex 1.4285715E-01 -2.8571430E-01 0.0000000E+00
vertex 2.8571430E-01 -4.2857143E-01 0.0000000E+00
endloop
endfacet
facet normal 0.0000000E+00 0.0000000E+00 1.0000000E+00
outer loop
vertex -1.4285715E-01 -2.8571430E-01 0.0000000E+00
vertex -1.4285715E-01 -4.2857143E-01 0.0000000E+00
vertex 0.0000000E+00 -4.2857143E-01 0.0000000E+00
endloop
endfacet
facet normal 0.0000000E+00 0.0000000E+00 1.0000000E+00
outer loop
vertex 4.2857143E-01 -5.7142860E-01 0.0000000E+00
vertex 2.8571430E-01 -4.2857143E-01 0.0000000E+00
vertex 2.8571430E-01 -5.7142860E-01 0.0000000E+00
endloop
endfacet
facet normal 0.0000000E+00 0.0000000E+00 1.0000000E+00
outer loop
vertex 1.4285715E-01 -2.8571430E-01 0.0000000E+00
vertex 0.0000000E+00 -2.8571430E-01 0.0000000E+00
vertex 1.4285715E-01 -4.2857143E-01 0.0000000E+00
endloop
endfacet
facet normal 0.0000000E+00 0.0000000E+00 1.0000000E+00
outer loop
vertex 2.8571430E-01 1.4285715E-01 0.0000000E+00
vertex 2.8571430E-01 0.0000000E+00 0.0000000E+00
vertex 4.2857143E-01 0.0000000E+00 0.0000000E+00
endloop
endfacet
facet normal 0.0000000E+00 -0.0000000E+00 1.0000000E+00
outer loop
vertex 4.2857143E-01 0.0000000E+00 0.0000000E+00
vertex 4.2857143E-01 1.4285715E-01 0.0000000E+00
vertex 2.8571430E-01 1.4285715E-01 0.0000000E+00
endloop
endfacet
facet normal 0.0000000E+00 -0.0000000E+00 1.0000000E+00
outer loop
vertex 5.7142860E-01 -7.1428573E-01 0.0000000E+00
vertex 5.7142860E-01 -5.7142860E-01 0.0000000E+00
vertex 4.2857143E-01 -5.7142860E-01 0.0000000E+00
endloop
endfacet
facet normal 0.0000000E+00 0.0000000E+00 1.0000000E+00
outer loop
vertex -5.7142860E-01 -5.7142860E-01 0.0000000E+00
vertex -5.7142860E-01 -7.1428573E-01 0.0000000E+00
vertex -4.2857143E-01 -7.1428573E-01 0.0000000E+00
endloop
endfacet
facet normal 0.0000000E+00 0.0000000E+00 1.0000000E+00
outer loop
vertex 7.1428573E-01 -4.2857143E-01 0.0000000E+00
vertex 5.7142860E-01 -4.2857143E-01 0.0000000E+00
vertex 7.1428573E-01 -5.7142860E-01 0.0000000E+00
endloop
endfacet
facet normal 0.0000000E+00 0.0000000E+00 1.0000000E+00
outer loop
vertex 5.7142860E-01 -7.1428573E-01 0.0000000E+00
vertex 4.2857143E-01 -7.1428573E-01 0.0000000E+00
vertex 5.7142860E-01 -8.5714287E-01 0.0000000E+00
endloop
endfacet
facet normal 0.0000000E+00 0.0000000E+00 9.9999994E-01
outer loop
vertex 7.1428573E-01 -7.1428573E-01 0.0000000E+00
vertex 8.5714287E-01 -7.1428573E-01 0.0000000E+00
vertex 7.1428573E-01 -5.7142860E-01 0.0000000E+00
endloop
endfacet
facet normal 0.0000000E+00 0.0000000E+00 1.0000000E+00
outer loop
vertex 7.1428573E-01 0.0000000E+00 0.0000000E+00
vertex 8.5714287E-01 0.0000000E+00 0.0000000E+00
vertex 7.1428573E-01 1.4285715E-01 0.0000000E+00
endloop
endfacet
facet normal 0.0000000E+00 -0.0000000E+00 9.9999994E-01
outer loop
vertex 8.5714287E-01 -1.0000000E+00 0.0000000E+00
vertex 8.5714287E-01 -8.5714287E-01 0.0000000E+00
vertex 7.1428573E-01 -8.5714287E-01 0.0000000E+00
endloop
endfacet
facet normal 0.0000000E+00 0.0000000E+00 1.0000000E+00
outer loop
vertex 8.5714287E-01 -1.4285715E-01 0.0000000E+00
vertex 7.1428573E-01 -1.4285715E-01 0.0000000E+00
vertex 8.5714287E-01 -2.8571430E-01 0.0000000E+00
endloop
endfacet
facet normal 0.0000000E+00 0.0000000E+00 1.0000000E+00
outer loop
vertex 7.1428573E-01 -4.2857143E-01 0.0000000E+00
vertex 7.1428573E-01 -5.7142860E-01 0.0000000E+00
vertex 8.5714287E-01 -5.7142860E-01 0.0000000E+00
endloop
endfacet
facet normal 0.0000000E+00 0.0000000E+00 9.9999994E-01
outer loop
vertex -7.1428573E-01 -8.5714287E-01 0.0000000E+00
vertex -5.7142860E-01 -8.5714287E-01 0.0000000E+00
vertex -7.1428573E-01 -7.1428573E-01 0.0000000E+00
endloop
endfacet
facet normal 0.0000000E+00 0.0000000E+00 9.9999994E-01
outer loop
vertex -8.5714287E-01 -1.0000000E+00 0.0000000E+00
vertex -1.0000000E+00 -8.5714287E-01 0.0000000E+00
vertex -1.0000000E+00 -1.0000000E+00 0.0000000E+00
endloop
endfacet
facet normal 0.0000000E+00 0.0000000E+00 9.9999994E-01
outer loop
vertex -8.5714287E-01 -8.5714287E-01 0.0000000E+00
vertex -1.0000000E+00 -7.1428573E-01 0.0000000E+00
vertex -1.0000000E+00 -8.5714287E-01 0.0000000E+00
endloop
endfacet
facet normal -0.0000000E+00 0.0000000E+00 1.0000000E+00
outer loop
vertex -8.5714287E-01 -4.2857143E-01 0.0000000E+00
vertex -7.1428573E-01 -5.7142860E-01 0.0000000E+00
vertex -7.1428573E-01 -4.2857143E-01 0.0000000E+00
endloop
endfacet
facet normal 0.0000000E+00 0.0000000E+00 9.9999994E-01
outer loop
vertex -1.0000000E+00 -7.1428573E-01 0.0000000E+00
vertex -8.5714287E-01 -7.1428573E-01 0.0000000E+00
vertex -1.0000000E+00 -5.7142860E-01 0.0000000E+00
endloop
endfacet
facet normal 0.0000000E+00 -0.0000000E+00 9.9999994E-01
outer loop
vertex -8.5714287E-01 -7.1428573E-01 0.0000000E+00
vertex -8.5714287E-01 -5.7142860E-01 0.0000000E+00
vertex -1.0000000E+00 -5.7142860E-01 0.0000000E+00
endloop
endfacet
facet normal 0.0000000E+00 0.0000000E+00 9.9999994E-01
outer loop
vertex -8.5714287E-01 -7.1428573E-01 0.0000000E+00
vertex -7.1428573E-01 -7.1428573E-01 0.0000000E+00
vertex -8.5714287E-01 -5.7142860E-01 0.0000000E+00
endloop
endfacet
facet normal 0.0000000E+00 0.0000000E+00 9.9999994E-01
outer loop
vertex -8.5714287E-01 -8.5714287E-01 0.0000000E+00
vertex -7.1428573E-01 -8.5714287E-01 0.0000000E+00
vertex -8.5714287E-01 -7.1428573E-01 0.0000000E+00
endloop
endfacet
facet normal -0.0000000E+00 0.0000000E+00 9.9999994E-01
outer loop
vertex -8.5714287E-01 -8.5714287E-01 0.0000000E+00
vertex -7.1428573E-01 -1.0000000E+00 0.0000000E+00
vertex -7.1428573E-01 -8.5714287E-01 0.0000000E+00
endloop
endfacet
facet normal -0.0000000E+00 0.0000000E+00 9.9999994E-01
outer loop
vertex -1.0000000E+00 -7.1428573E-01 0.0000000E+00
vertex -8.5714287E-01 -8.5714287E-01 0.0000000E+00
vertex -8.5714287E-01 -7.1428573E-01 0.0000000E+00
endloop
endfacet
facet normal 0.0000000E+00 0.0000000E+00 9.9999994E-01
outer loop
vertex -8.5714287E-01 -1.0000000E+00 0.0000000E+00
vertex -7.1428573E-01 -1.0000000E+00 0.0000000E+00
vertex -8.5714287E-01 -8.5714287E-01 0.0000000E+00
endloop
endfacet
facet normal -0.0000000E+00 0.0000000E+00 1.0000000E+00
outer loop
vertex -5.7142860E-01 -7.1428573E-01 0.0000000E+00
vertex -4.2857143E-01 -8.5714287E-01 0.0000000E+00
vertex -4.2857143E-01 -7.1428573E-01 0.0000000E+00
endloop
endfacet
facet normal -0.0000000E+00 0.0000000E+00 9.9999994E-01
outer loop
vertex -8.5714287E-01 -7.1428573E-01 0.0000000E+00
vertex -7.1428573E-01 -8.5714287E-01 0.0000000E+00
vertex -7.1428573E-01 -7.1428573E-01 0.0000000E+00
endloop
endfacet
facet normal 0.0000000E+00 0.0000000E+00 9.9999994E-01
outer loop
vertex -7.1428573E-01 -1.0000000E+00 0.0000000E+00
vertex -5.7142860E-01 -1.0000000E+00 0.0000000E+00
vertex -7.1428573E-01 -8.5714287E-01 0.0000000E+00
endloop
endfacet
facet normal 0.0000000E+00 -0.0000000E+00 1.0000000E+00
outer loop
vertex -4.2857143E-01 -1.0000000E+00 0.0000000E+00
vertex -4.2857143E-01 -8.5714287E-01 0.0000000E+00
vertex -5.7142860E-01 -8.5714287E-01 0.0000000E+00
endloop
endfacet
facet normal 0.0000000E+00 0.0000000E+00 9.9999994E-01
outer loop
vertex -4.2857143E-01 -8.5714287E-01 0.0000000E+00
vertex -2.8571430E-01 -8.5714287E-01 0.0000000E+00
vertex -4.2857143E-01 -7.1428573E-01 0.0000000E+00
endloop
endfacet
facet normal 0.0000000E+00 -0.0000000E+00 9.9999994E-01
outer loop
vertex -2.8571430E-01 -8.5714287E-01 0.0000000E+00
vertex -2.8571430E-01 -7.1428573E-01 0.0000000E+00
vertex -4.2857143E-01 -7.1428573E-01 0.0000000E+00
endloop
endfacet
facet normal 0.0000000E+00 0.0000000E+00 1.0000000E+00
outer loop
vertex -1.4285715E-01 -8.5714287E-01 0.0000000E+00
vertex -2.8571430E-01 -8.5714287E-01 0.0000000E+00
vertex -1.4285715E-01 -1.0000000E+00 0.0000000E+00
endloop
endfacet
facet normal 0.0000000E+00 -0.0000000E+00 1.0000000E+00
outer loop
vertex 1.4285715E-01 -8.5714287E-01 0.0000000E+00
vertex 1.4285715E-01 -7.1428573E-01 0.0000000E+00
vertex 0.0000000E+00 -7.1428573E-01 0.0000000E+00
endloop
endfacet
facet normal 0.0000000E+00 0.0000000E+00 1.0000000E+00
outer loop
vertex 0.0000000E+00 -8.5714287E-01 0.0000000E+00
vertex -1.4285715E-01 -8.5714287E-01 0.0000000E+00
vertex 0.0000000E+00 -1.0000000E+00 0.0000000E+00
endloop
endfacet
facet normal 0.0000000E+00 0.0000000E+00 9.9999994E-01
outer loop
vertex -2.8571430E-01 -1.0000000E+00 0.0000000E+00
vertex -4.2857143E-01 -8.5714287E-01 0.0000000E+00
vertex -4.2857143E-01 -1.0000000E+00 0.0000000E+00
endloop
endfacet
facet normal 0.0000000E+00 -0.0000000E+00 9.9999994E-01
outer loop
vertex -2.8571430E-01 -1.0000000E+00 0.0000000E+00
vertex -2.8571430E-01 -8.5714287E-01 0.0000000E+00
vertex -4.2857143E-01 -8.5714287E-01 0.0000000E+00
endloop
endfacet
facet normal 0.0000000E+00 0.0000000E+00 1.0000000E+00
outer loop
vertex -1.4285715E-01 -1.0000000E+00 0.0000000E+00
vertex -2.8571430E-01 -8.5714287E-01 0.0000000E+00
vertex -2.8571430E-01 -1.0000000E+00 0.0000000E+00
endloop
endfacet
facet normal 0.0000000E+00 0.0000000E+00 1.0000000E+00
outer loop
vertex -1.4285715E-01 -8.5714287E-01 0.0000000E+00
vertex -2.8571430E-01 -7.1428573E-01 0.0000000E+00
vertex -2.8571430E-01 -8.5714287E-01 0.0000000E+00
endloop
endfacet
facet normal 0.0000000E+00 0.0000000E+00 1.0000000E+00
outer loop
vertex -1.4285715E-01 -7.1428573E-01 0.0000000E+00
vertex -2.8571430E-01 -5.7142860E-01 0.0000000E+00
vertex -2.8571430E-01 -7.1428573E-01 0.0000000E+00
endloop
endfacet
facet normal 0.0000000E+00 -0.0000000E+00 1.0000000E+00
outer loop
vertex -1.4285715E-01 -7.1428573E-01 0.0000000E+00
vertex -1.4285715E-01 -5.7142860E-01 0.0000000E+00
vertex -2.8571430E-01 -5.7142860E-01 0.0000000E+00
endloop
endfacet
facet normal 0.0000000E+00 -0.0000000E+00 9.9999994E-01
outer loop
vertex -5.7142860E-01 -1.0000000E+00 0.0000000E+00
vertex -5.7142860E-01 -8.5714287E-01 0.0000000E+00
vertex -7.1428573E-01 -8.5714287E-01 0.0000000E+00
endloop
endfacet
facet normal 0.0000000E+00 0.0000000E+00 1.0000000E+00
outer loop
vertex -5.7142860E-01 -1.0000000E+00 0.0000000E+00
vertex -4.2857143E-01 -1.0000000E+00 0.0000000E+00
vertex -5.7142860E-01 -8.5714287E-01 0.0000000E+00
endloop
endfacet
facet normal 0.0000000E+00 -0.0000000E+00 9.9999994E-01
outer loop
vertex -5.7142860E-01 -8.5714287E-01 0.0000000E+00
vertex -5.7142860E-01 -7.1428573E-01 0.0000000E+00
vertex -7.1428573E-01 -7.1428573E-01 0.0000000E+00
endloop
endfacet
facet normal 0.0000000E+00 0.0000000E+00 1.0000000E+00
outer loop
vertex -5.7142860E-01 -8.5714287E-01 0.0000000E+00
vertex -4.2857143E-01 -8.5714287E-01 0.0000000E+00
vertex -5.7142860E-01 -7.1428573E-01 0.0000000E+00
endloop
endfacet
facet normal 0.0000000E+00 0.0000000E+00 1.0000000E+00
outer loop
vertex -4.2857143E-01 -4.2857143E-01 0.0000000E+00
vertex -5.7142860E-01 -4.2857143E-01 0.0000000E+00
vertex -4.2857143E-01 -5.7142860E-01 0.0000000E+00
endloop
endfacet
facet normal 0.0000000E+00 0.0000000E+00 9.9999994E-01
outer loop
vertex -7.1428573E-01 -4.2857143E-01 0.0000000E+00
vertex -8.5714287E-01 -2.8571430E-01 0.0000000E+00
vertex -8.5714287E-01 -4.2857143E-01 0.0000000E+00
endloop
endfacet
facet normal 0.0000000E+00 0.0000000E+00 9.9999994E-01
outer loop
vertex -4.2857143E-01 -2.8571430E-01 0.0000000E+00
vertex -4.2857143E-01 -4.2857143E-01 0.0000000E+00
vertex -2.8571430E-01 -4.2857143E-01 0.0000000E+00
endloop
endfacet
facet normal 0.0000000E+00 -0.0000000E+00 1.0000000E+00
outer loop
vertex -5.7142860E-01 -2.8571430E-01 0.0000000E+00
vertex -5.7142860E-01 -1.4285715E-01 0.0000000E+00
vertex -7.1428573E-01 -1.4285715E-01 0.0000000E+00
endloop
endfacet
facet normal -0.0000000E+00 0.0000000E+00 1.0000000E+00
outer loop
vertex -4.2857143E-01 -1.4285715E-01 0.0000000E+00
vertex -2.8571430E-01 -2.8571430E-01 0.0000000E+00
vertex -2.8571430E-01 -1.4285715E-01 0.0000000E+00
endloop
endfacet
facet normal 0.0000000E+00 0.0000000E+00 1.0000000E+00
outer loop
vertex -2.8571430E-01 -4.2857143E-01 0.0000000E+00
vertex -1.4285715E-01 -4.2857143E-01 0.0000000E+00
vertex -2.8571430E-01 -2.8571430E-01 0.0000000E+00
endloop
endfacet
facet normal 0.0000000E+00 0.0000000E+00 1.0000000E+00
outer loop
vertex 0.0000000E+00 -7.1428573E-01 0.0000000E+00
vertex -1.4285715E-01 -5.7142860E-01 0.0000000E+00
vertex -1.4285715E-01 -7.1428573E-01 0.0000000E+00
endloop
endfacet
facet normal 0.0000000E+00 -0.0000000E+00 1.0000000E+00
outer loop
vertex 0.0000000E+00 -7.1428573E-01 0.0000000E+00
vertex 0.0000000E+00 -5.7142860E-01 0.0000000E+00
vertex -1.4285715E-01 -5.7142860E-01 0.0000000E+00
endloop
endfacet
facet normal 0.0000000E+00 0.0000000E+00 1.0000000E+00
outer loop
vertex 1.4285715E-01 -7.1428573E-01 0.0000000E+00
vertex 0.0000000E+00 -5.7142860E-01 0.0000000E+00
vertex 0.0000000E+00 -7.1428573E-01 0.0000000E+00
endloop
endfacet
facet normal 0.0000000E+00 0.0000000E+00 1.0000000E+00
outer loop
vertex 0.0000000E+00 -4.2857143E-01 0.0000000E+00
vertex -1.4285715E-01 -4.2857143E-01 0.0000000E+00
vertex 0.0000000E+00 -5.7142860E-01 0.0000000E+00
endloop
endfacet
facet normal 0.0000000E+00 -0.0000000E+00 1.0000000E+00
outer loop
vertex 1.4285715E-01 -7.1428573E-01 0.0000000E+00
vertex 1.4285715E-01 -5.7142860E-01 0.0000000E+00
vertex 0.0000000E+00 -5.7142860E-01 0.0000000E+00
endloop
endfacet
facet normal 0.0000000E+00 -0.0000000E+00 1.0000000E+00
outer loop
vertex 0.0000000E+00 -2.8571430E-01 0.0000000E+00
vertex 0.0000000E+00 -1.4285715E-01 0.0000000E+00
vertex -1.4285715E-01 -1.4285715E-01 0.0000000E+00
endloop
endfacet
facet normal 0.0000000E+00 -0.0000000E+00 1.0000000E+00
outer loop
vertex -1.4285715E-01 -1.4285715E-01 0.0000000E+00
vertex -1.4285715E-01 0.0000000E+00 0.0000000E+00
vertex -2.8571430E-01 0.0000000E+00 0.0000000E+00
endloop
endfacet
facet normal 0.0000000E+00 0.0000000E+00 1.0000000E+00
outer loop
vertex -1.4285715E-01 2.8571430E-01 0.0000000E+00
vertex 0.0000000E+00 2.8571430E-01 0.0000000E+00
vertex -1.4285715E-01 4.2857143E-01 0.0000000E+00
endloop
endfacet
facet normal -0.0000000E+00 0.0000000E+00 1.0000000E+00
outer loop
vertex -1.4285715E-01 0.0000000E+00 0.0000000E+00
vertex 0.0000000E+00 -1.4285715E-01 0.0000000E+00
vertex 0.0000000E+00 0.0000000E+00 0.0000000E+00
endloop
endfacet
facet normal 0.0000000E+00 0.0000000E+00 1.0000000E+00
outer loop
vertex -1.4285715E-01 -1.4285715E-01 0.0000000E+00
vertex -1.4285715E-01 -2.8571430E-01 0.0000000E+00
vertex 0.0000000E+00 -2.8571430E-01 0.0000000E+00
endloop
endfacet
facet normal 0.0000000E+00 0.0000000E+00 1.0000000E+00
outer loop
vertex -2.8571430E-01 -1.4285715E-01 0.0000000E+00
vertex -4.2857143E-01 0.0000000E+00 0.0000000E+00
vertex -4.2857143E-01 -1.4285715E-01 0.0000000E+00
endloop
endfacet
facet normal 0.0000000E+00 -0.0000000E+00 1.0000000E+00
outer loop
vertex -4.2857143E-01 1.4285715E-01 0.0000000E+00
vertex -4.2857143E-01 2.8571430E-01 0.0000000E+00
vertex -5.7142860E-01 2.8571430E-01 0.0000000E+00
endloop
endfacet
facet normal 0.0000000E+00 0.0000000E+00 1.0000000E+00
outer loop
vertex -1.4285715E-01 -1.4285715E-01 0.0000000E+00
vertex -2.8571430E-01 0.0000000E+00 0.0000000E+00
vertex -2.8571430E-01 -1.4285715E-01 0.0000000E+00
endloop
endfacet
facet normal 0.0000000E+00 0.0000000E+00 1.0000000E+00
outer loop
vertex -2.8571430E-01 2.8571430E-01 0.0000000E+00
vertex -1.4285715E-01 2.8571430E-01 0.0000000E+00
vertex -2.8571430E-01 4.2857143E-01 0.0000000E+00
endloop
endfacet
facet normal 0.0000000E+00 0.0000000E+00 1.0000000E+00
outer loop
vertex 0.0000000E+00 -2.8571430E-01 0.0000000E+00
vertex -1.4285715E-01 -2.8571430E-01 0.0000000E+00
vertex 0.0000000E+00 -4.2857143E-01 0.0000000E+00
endloop
endfacet
facet normal 0.0000000E+00 0.0000000E+00 1.0000000E+00
outer loop
vertex -1.4285715E-01 -1.4285715E-01 0.0000000E+00
vertex -2.8571430E-01 -1.4285715E-01 0.0000000E+00
vertex -1.4285715E-01 -2.8571430E-01 0.0000000E+00
endloop
endfacet
facet normal 0.0000000E+00 -0.0000000E+00 9.9999994E-01
outer loop
vertex -5.7142860E-01 -4.2857143E-01 0.0000000E+00
vertex -5.7142860E-01 -2.8571430E-01 0.0000000E+00
vertex -7.1428573E-01 -2.8571430E-01 0.0000000E+00
endloop
endfacet
facet normal 0.0000000E+00 0.0000000E+00 1.0000000E+00
outer loop
vertex -5.7142860E-01 -1.4285715E-01 0.0000000E+00
vertex -7.1428573E-01 0.0000000E+00 0.0000000E+00
vertex -7.1428573E-01 -1.4285715E-01 0.0000000E+00
endloop
endfacet
facet normal 0.0000000E+00 0.0000000E+00 1.0000000E+00
outer loop
vertex -4.2857143E-01 0.0000000E+00 0.0000000E+00
vertex -5.7142860E-01 0.0000000E+00 0.0000000E+00
vertex -4.2857143E-01 -1.4285715E-01 0.0000000E+00
endloop
endfacet
facet normal 0.0000000E+00 0.0000000E+00 1.0000000E+00
outer loop
vertex -7.1428573E-01 -1.4285715E-01 0.0000000E+00
vertex -7.1428573E-01 -2.8571430E-01 0.0000000E+00
vertex -5.7142860E-01 -2.8571430E-01 0.0000000E+00
endloop
endfacet
facet normal 0.0000000E+00 0.0000000E+00 9.9999994E-01
outer loop
vertex -5.7142860E-01 -7.1428573E-01 0.0000000E+00
vertex -7.1428573E-01 -5.7142860E-01 0.0000000E+00
vertex -7.1428573E-01 -7.1428573E-01 0.0000000E+00
endloop
endfacet
facet normal 0.0000000E+00 -0.0000000E+00 1.0000000E+00
outer loop
vertex -5.7142860E-01 -5.7142860E-01 0.0000000E+00
vertex -5.7142860E-01 -4.2857143E-01 0.0000000E+00
vertex -7.1428573E-01 -4.2857143E-01 0.0000000E+00
endloop
endfacet
facet normal 0.0000000E+00 0.0000000E+00 1.0000000E+00
outer loop
vertex -4.2857143E-01 -5.7142860E-01 0.0000000E+00
vertex -5.7142860E-01 -4.2857143E-01 0.0000000E+00
vertex -5.7142860E-01 -5.7142860E-01 0.0000000E+00
endloop
endfacet
facet normal 0.0000000E+00 -0.0000000E+00 1.0000000E+00
outer loop
vertex -4.2857143E-01 -4.2857143E-01 0.0000000E+00
vertex -4.2857143E-01 -2.8571430E-01 0.0000000E+00
vertex -5.7142860E-01 -2.8571430E-01 0.0000000E+00
endloop
endfacet
facet normal 0.0000000E+00 0.0000000E+00 1.0000000E+00
outer loop
vertex -4.2857143E-01 -4.2857143E-01 0.0000000E+00
vertex -5.7142860E-01 -2.8571430E-01 0.0000000E+00
vertex -5.7142860E-01 -4.2857143E-01 0.0000000E+00
endloop
endfacet
facet normal 0.0000000E+00 0.0000000E+00 1.0000000E+00
outer loop
vertex -4.2857143E-01 -2.8571430E-01 0.0000000E+00
vertex -5.7142860E-01 -1.4285715E-01 0.0000000E+00
vertex -5.7142860E-01 -2.8571430E-01 0.0000000E+00
endloop
endfacet
facet normal 0.0000000E+00 0.0000000E+00 1.0000000E+00
outer loop
vertex -1.0000000E+00 -5.7142860E-01 0.0000000E+00
vertex -8.5714287E-01 -5.7142860E-01 0.0000000E+00
vertex -1.0000000E+00 -4.2857143E-01 0.0000000E+00
endloop
endfacet
facet normal -0.0000000E+00 0.0000000E+00 9.9999994E-01
outer loop
vertex -1.0000000E+00 -2.8571430E-01 0.0000000E+00
vertex -8.5714287E-01 -4.2857143E-01 0.0000000E+00
vertex -8.5714287E-01 -2.8571430E-01 0.0000000E+00
endloop
endfacet
facet normal 0.0000000E+00 0.0000000E+00 1.0000000E+00
outer loop
vertex -8.5714287E-01 -5.7142860E-01 0.0000000E+00
vertex -7.1428573E-01 -5.7142860E-01 0.0000000E+00
vertex -8.5714287E-01 -4.2857143E-01 0.0000000E+00
endloop
endfacet
facet normal 0.0000000E+00 0.0000000E+00 1.0000000E+00
outer loop
vertex -5.7142860E-01 -5.7142860E-01 0.0000000E+00
vertex -7.1428573E-01 -4.2857143E-01 0.0000000E+00
vertex -7.1428573E-01 -5.7142860E-01 0.0000000E+00
endloop
endfacet
facet normal 0.0000000E+00 0.0000000E+00 9.9999994E-01
outer loop
vertex -5.7142860E-01 -4.2857143E-01 0.0000000E+00
vertex -7.1428573E-01 -2.8571430E-01 0.0000000E+00
vertex -7.1428573E-01 -4.2857143E-01 0.0000000E+00
endloop
endfacet
facet normal 0.0000000E+00 0.0000000E+00 9.9999994E-01
outer loop
vertex -1.0000000E+00 -4.2857143E-01 0.0000000E+00
vertex -8.5714287E-01 -4.2857143E-01 0.0000000E+00
vertex -1.0000000E+00 -2.8571430E-01 0.0000000E+00
endloop
endfacet
facet normal 0.0000000E+00 0.0000000E+00 1.0000000E+00
outer loop
vertex -7.1428573E-01 0.0000000E+00 0.0000000E+00
vertex -8.5714287E-01 0.0000000E+00 0.0000000E+00
vertex -7.1428573E-01 -1.4285715E-01 0.0000000E+00
endloop
endfacet
facet normal -0.0000000E+00 0.0000000E+00 1.0000000E+00
outer loop
vertex -1.0000000E+00 -1.4285715E-01 0.0000000E+00
vertex -8.5714287E-01 -2.8571430E-01 0.0000000E+00
vertex -8.5714287E-01 -1.4285715E-01 0.0000000E+00
endloop
endfacet
facet normal 0.0000000E+00 -0.0000000E+00 1.0000000E+00
outer loop
vertex -8.5714287E-01 -1.4285715E-01 0.0000000E+00
vertex -8.5714287E-01 0.0000000E+00 0.0000000E+00
vertex -1.0000000E+00 0.0000000E+00 0.0000000E+00
endloop
endfacet
facet normal 0.0000000E+00 0.0000000E+00 1.0000000E+00
outer loop
vertex -8.5714287E-01 -1.4285715E-01 0.0000000E+00
vertex -7.1428573E-01 -1.4285715E-01 0.0000000E+00
vertex -8.5714287E-01 0.0000000E+00 0.0000000E+00
endloop
endfacet
facet normal 0.0000000E+00 -0.0000000E+00 1.0000000E+00
outer loop
vertex -8.5714287E-01 0.0000000E+00 0.0000000E+00
vertex -8.5714287E-01 1.4285715E-01 0.0000000E+00
vertex -1.0000000E+00 1.4285715E-01 0.0000000E+00
endloop
endfacet
facet normal -0.0000000E+00 0.0000000E+00 9.9999994E-01
outer loop
vertex -7.1428573E-01 4.2857143E-01 0.0000000E+00
vertex -5.7142860E-01 2.8571430E-01 0.0000000E+00
vertex -5.7142860E-01 4.2857143E-01 0.0000000E+00
endloop
endfacet
facet normal 0.0000000E+00 0.0000000E+00 9.9999994E-01
outer loop
vertex -1.0000000E+00 2.8571430E-01 0.0000000E+00
vertex -8.5714287E-01 2.8571430E-01 0.0000000E+00
vertex -1.0000000E+00 4.2857143E-01 0.0000000E+00
endloop
endfacet
facet normal 0.0000000E+00 0.0000000E+00 1.0000000E+00
outer loop
vertex -8.5714287E-01 1.4285715E-01 0.0000000E+00
vertex -7.1428573E-01 1.4285715E-01 0.0000000E+00
vertex -8.5714287E-01 2.8571430E-01 0.0000000E+00
endloop
endfacet
facet normal 0.0000000E+00 -0.0000000E+00 1.0000000E+00
outer loop
vertex -7.1428573E-01 0.0000000E+00 0.0000000E+00
vertex -7.1428573E-01 1.4285715E-01 0.0000000E+00
vertex -8.5714287E-01 1.4285715E-01 0.0000000E+00
endloop
endfacet
facet normal 0.0000000E+00 0.0000000E+00 1.0000000E+00
outer loop
vertex -7.1428573E-01 0.0000000E+00 0.0000000E+00
vertex -5.7142860E-01 0.0000000E+00 0.0000000E+00
vertex -7.1428573E-01 1.4285715E-01 0.0000000E+00
endloop
endfacet
facet normal 0.0000000E+00 -0.0000000E+00 1.0000000E+00
outer loop
vertex -7.1428573E-01 1.4285715E-01 0.0000000E+00
vertex -7.1428573E-01 2.8571430E-01 0.0000000E+00
vertex -8.5714287E-01 2.8571430E-01 0.0000000E+00
endloop
endfacet
facet normal 0.0000000E+00 0.0000000E+00 1.0000000E+00
outer loop
vertex -7.1428573E-01 1.4285715E-01 0.0000000E+00
vertex -5.7142860E-01 1.4285715E-01 0.0000000E+00
vertex -7.1428573E-01 2.8571430E-01 0.0000000E+00
endloop
endfacet
facet normal 0.0000000E+00 0.0000000E+00 1.0000000E+00
outer loop
vertex -5.7142860E-01 1.4285715E-01 0.0000000E+00
vertex -5.7142860E-01 0.0000000E+00 0.0000000E+00
vertex -4.2857143E-01 0.0000000E+00 0.0000000E+00
endloop
endfacet
facet normal -0.0000000E+00 0.0000000E+00 1.0000000E+00
outer loop
vertex -7.1428573E-01 0.0000000E+00 0.0000000E+00
vertex -5.7142860E-01 -1.4285715E-01 0.0000000E+00
vertex -5.7142860E-01 0.0000000E+00 0.0000000E+00
endloop
endfacet
facet normal 0.0000000E+00 0.0000000E+00 9.9999994E-01
outer loop
vertex -7.1428573E-01 7.1428573E-01 0.0000000E+00
vertex -8.5714287E-01 8.5714287E-01 0.0000000E+00
vertex -8.5714287E-01 7.1428573E-01 0.0000000E+00
endloop
endfacet
facet normal 0.0000000E+00 0.0000000E+00 1.0000000E+00
outer loop
vertex -8.5714287E-01 5.7142860E-01 0.0000000E+00
vertex -8.5714287E-01 4.2857143E-01 0.0000000E+00
vertex -7.1428573E-01 4.2857143E-01 0.0000000E+00
endloop
endfacet
facet normal 0.0000000E+00 0.0000000E+00 1.0000000E+00
outer loop
vertex -4.2857143E-01 4.2857143E-01 0.0000000E+00
vertex -5.7142860E-01 4.2857143E-01 0.0000000E+00
vertex -4.2857143E-01 2.8571430E-01 0.0000000E+00
endloop
endfacet
facet normal 0.0000000E+00 0.0000000E+00 9.9999994E-01
outer loop
vertex -7.1428573E-01 4.2857143E-01 0.0000000E+00
vertex -7.1428573E-01 2.8571430E-01 0.0000000E+00
vertex -5.7142860E-01 2.8571430E-01 0.0000000E+00
endloop
endfacet
facet normal 0.0000000E+00 0.0000000E+00 1.0000000E+00
outer loop
vertex -1.0000000E+00 1.4285715E-01 0.0000000E+00
vertex -8.5714287E-01 1.4285715E-01 0.0000000E+00
vertex -1.0000000E+00 2.8571430E-01 0.0000000E+00
endloop
endfacet
facet normal -0.0000000E+00 0.0000000E+00 1.0000000E+00
outer loop
vertex -1.0000000E+00 5.7142860E-01 0.0000000E+00
vertex -8.5714287E-01 4.2857143E-01 0.0000000E+00
vertex -8.5714287E-01 5.7142860E-01 0.0000000E+00
endloop
endfacet
facet normal 0.0000000E+00 0.0000000E+00 9.9999994E-01
outer loop
vertex -8.5714287E-01 2.8571430E-01 0.0000000E+00
vertex -7.1428573E-01 2.8571430E-01 0.0000000E+00
vertex -8.5714287E-01 4.2857143E-01 0.0000000E+00
endloop
endfacet
facet normal 0.0000000E+00 0.0000000E+00 1.0000000E+00
outer loop
vertex -7.1428573E-01 5.7142860E-01 0.0000000E+00
vertex -7.1428573E-01 4.2857143E-01 0.0000000E+00
vertex -5.7142860E-01 4.2857143E-01 0.0000000E+00
endloop
endfacet
facet normal 0.0000000E+00 0.0000000E+00 1.0000000E+00
outer loop
vertex -7.1428573E-01 5.7142860E-01 0.0000000E+00
vertex -8.5714287E-01 5.7142860E-01 0.0000000E+00
vertex -7.1428573E-01 4.2857143E-01 0.0000000E+00
endloop
endfacet
facet normal 0.0000000E+00 0.0000000E+00 9.9999994E-01
outer loop
vertex -8.5714287E-01 5.7142860E-01 0.0000000E+00
vertex -1.0000000E+00 7.1428573E-01 0.0000000E+00
vertex -1.0000000E+00 5.7142860E-01 0.0000000E+00
endloop
endfacet
facet normal 0.0000000E+00 0.0000000E+00 9.9999994E-01
outer loop
vertex -8.5714287E-01 5.7142860E-01 0.0000000E+00
vertex -7.1428573E-01 5.7142860E-01 0.0000000E+00
vertex -8.5714287E-01 7.1428573E-01 0.0000000E+00
endloop
endfacet
facet normal 0.0000000E+00 0.0000000E+00 9.9999994E-01
outer loop
vertex -1.0000000E+00 7.1428573E-01 0.0000000E+00
vertex -8.5714287E-01 7.1428573E-01 0.0000000E+00
vertex -1.0000000E+00 8.5714287E-01 0.0000000E+00
endloop
endfacet
facet normal -0.0000000E+00 0.0000000E+00 9.9999994E-01
outer loop
vertex -1.0000000E+00 7.1428573E-01 0.0000000E+00
vertex -8.5714287E-01 5.7142860E-01 0.0000000E+00
vertex -8.5714287E-01 7.1428573E-01 0.0000000E+00
endloop
endfacet
facet normal 0.0000000E+00 0.0000000E+00 9.9999994E-01
outer loop
vertex -8.5714287E-01 1.0000000E+00 0.0000000E+00
vertex -8.5714287E-01 8.5714287E-01 0.0000000E+00
vertex -7.1428573E-01 8.5714287E-01 0.0000000E+00
endloop
endfacet
facet normal 0.0000000E+00 0.0000000E+00 9.9999994E-01
outer loop
vertex -1.0000000E+00 1.0000000E+00 0.0000000E+00
vertex -1.0000000E+00 8.5714287E-01 0.0000000E+00
vertex -8.5714287E-01 8.5714287E-01 0.0000000E+00
endloop
endfacet
facet normal -0.0000000E+00 0.0000000E+00 9.9999994E-01
outer loop
vertex -1.0000000E+00 1.0000000E+00 0.0000000E+00
vertex -8.5714287E-01 8.5714287E-01 0.0000000E+00
vertex -8.5714287E-01 1.0000000E+00 0.0000000E+00
endloop
endfacet
facet normal 0.0000000E+00 -0.0000000E+00 9.9999994E-01
outer loop
vertex -7.1428573E-01 7.1428573E-01 0.0000000E+00
vertex -7.1428573E-01 8.5714287E-01 0.0000000E+00
vertex -8.5714287E-01 8.5714287E-01 0.0000000E+00
endloop
endfacet
facet normal 0.0000000E+00 0.0000000E+00 9.9999994E-01
outer loop
vertex -7.1428573E-01 1.0000000E+00 0.0000000E+00
vertex -8.5714287E-01 1.0000000E+00 0.0000000E+00
vertex -7.1428573E-01 8.5714287E-01 0.0000000E+00
endloop
endfacet
facet normal 0.0000000E+00 0.0000000E+00 9.9999994E-01
outer loop
vertex -5.7142860E-01 8.5714287E-01 0.0000000E+00
vertex -7.1428573E-01 1.0000000E+00 0.0000000E+00
vertex -7.1428573E-01 8.5714287E-01 0.0000000E+00
endloop
endfacet
facet normal 0.0000000E+00 0.0000000E+00 1.0000000E+00
outer loop
vertex -4.2857143E-01 8.5714287E-01 0.0000000E+00
vertex -5.7142860E-01 8.5714287E-01 0.0000000E+00
vertex -4.2857143E-01 7.1428573E-01 0.0000000E+00
endloop
endfacet
facet normal 0.0000000E+00 0.0000000E+00 9.9999994E-01
outer loop
vertex -5.7142860E-01 1.0000000E+00 0.0000000E+00
vertex -7.1428573E-01 1.0000000E+00 0.0000000E+00
vertex -5.7142860E-01 8.5714287E-01 0.0000000E+00
endloop
endfacet
facet normal 0.0000000E+00 0.0000000E+00 1.0000000E+00
outer loop
vertex -4.2857143E-01 8.5714287E-01 0.0000000E+00
vertex -5.7142860E-01 1.0000000E+00 0.0000000E+00
vertex -5.7142860E-01 8.5714287E-01 0.0000000E+00
endloop
endfacet
facet normal 0.0000000E+00 0.0000000E+00 9.9999994E-01
outer loop
vertex -5.7142860E-01 5.7142860E-01 0.0000000E+00
vertex -7.1428573E-01 7.1428573E-01 0.0000000E+00
vertex -7.1428573E-01 5.7142860E-01 0.0000000E+00
endloop
endfacet
facet normal 0.0000000E+00 0.0000000E+00 9.9999994E-01
outer loop
vertex -5.7142860E-01 7.1428573E-01 0.0000000E+00
vertex -7.1428573E-01 8.5714287E-01 0.0000000E+00
vertex -7.1428573E-01 7.1428573E-01 0.0000000E+00
endloop
endfacet
facet normal 0.0000000E+00 0.0000000E+00 1.0000000E+00
outer loop
vertex -5.7142860E-01 7.1428573E-01 0.0000000E+00
vertex -5.7142860E-01 5.7142860E-01 0.0000000E+00
vertex -4.2857143E-01 5.7142860E-01 0.0000000E+00
endloop
endfacet
facet normal -0.0000000E+00 0.0000000E+00 1.0000000E+00
outer loop
vertex -7.1428573E-01 5.7142860E-01 0.0000000E+00
vertex -5.7142860E-01 4.2857143E-01 0.0000000E+00
vertex -5.7142860E-01 5.7142860E-01 0.0000000E+00
endloop
endfacet
facet normal 0.0000000E+00 0.0000000E+00 1.0000000E+00
outer loop
vertex -5.7142860E-01 8.5714287E-01 0.0000000E+00
vertex -5.7142860E-01 7.1428573E-01 0.0000000E+00
vertex -4.2857143E-01 7.1428573E-01 0.0000000E+00
endloop
endfacet
facet normal -0.0000000E+00 0.0000000E+00 9.9999994E-01
outer loop
vertex -7.1428573E-01 7.1428573E-01 0.0000000E+00
vertex -5.7142860E-01 5.7142860E-01 0.0000000E+00
vertex -5.7142860E-01 7.1428573E-01 0.0000000E+00
endloop
endfacet
facet normal 0.0000000E+00 0.0000000E+00 1.0000000E+00
outer loop
vertex -2.8571430E-01 8.5714287E-01 0.0000000E+00
vertex -2.8571430E-01 7.1428573E-01 0.0000000E+00
vertex -1.4285715E-01 7.1428573E-01 0.0000000E+00
endloop
endfacet
facet normal 0.0000000E+00 0.0000000E+00 1.0000000E+00
outer loop
vertex -4.2857143E-01 5.7142860E-01 0.0000000E+00
vertex -5.7142860E-01 5.7142860E-01 0.0000000E+00
vertex -4.2857143E-01 4.2857143E-01 0.0000000E+00
endloop
endfacet
facet normal 0.0000000E+00 0.0000000E+00 1.0000000E+00
outer loop
vertex -1.4285715E-01 1.0000000E+00 0.0000000E+00
vertex -2.8571430E-01 1.0000000E+00 0.0000000E+00
vertex -1.4285715E-01 8.5714287E-01 0.0000000E+00
endloop
endfacet
facet normal 0.0000000E+00 0.0000000E+00 1.0000000E+00
outer loop
vertex -2.8571430E-01 5.7142860E-01 0.0000000E+00
vertex -2.8571430E-01 4.2857143E-01 0.0000000E+00
vertex -1.4285715E-01 4.2857143E-01 0.0000000E+00
endloop
endfacet
facet normal -0.0000000E+00 0.0000000E+00 1.0000000E+00
outer loop
vertex -5.7142860E-01 1.0000000E+00 0.0000000E+00
vertex -4.2857143E-01 8.5714287E-01 0.0000000E+00
vertex -4.2857143E-01 1.0000000E+00 0.0000000E+00
endloop
endfacet
facet normal 0.0000000E+00 0.0000000E+00 9.9999994E-01
outer loop
vertex -4.2857143E-01 7.1428573E-01 0.0000000E+00
vertex -2.8571430E-01 7.1428573E-01 0.0000000E+00
vertex -4.2857143E-01 8.5714287E-01 0.0000000E+00
endloop
endfacet
facet normal 0.0000000E+00 0.0000000E+00 1.0000000E+00
outer loop
vertex -1.4285715E-01 8.5714287E-01 0.0000000E+00
vertex -2.8571430E-01 8.5714287E-01 0.0000000E+00
vertex -1.4285715E-01 7.1428573E-01 0.0000000E+00
endloop
endfacet
facet normal 0.0000000E+00 0.0000000E+00 9.9999994E-01
outer loop
vertex -4.2857143E-01 1.0000000E+00 0.0000000E+00
vertex -4.2857143E-01 8.5714287E-01 0.0000000E+00
vertex -2.8571430E-01 8.5714287E-01 0.0000000E+00
endloop
endfacet
facet normal -0.0000000E+00 0.0000000E+00 9.9999994E-01
outer loop
vertex -4.2857143E-01 1.0000000E+00 0.0000000E+00
vertex -2.8571430E-01 8.5714287E-01 0.0000000E+00
vertex -2.8571430E-01 1.0000000E+00 0.0000000E+00
endloop
endfacet
facet normal 0.0000000E+00 0.0000000E+00 1.0000000E+00
outer loop
vertex 0.0000000E+00 8.5714287E-01 0.0000000E+00
vertex -1.4285715E-01 1.0000000E+00 0.0000000E+00
vertex -1.4285715E-01 8.5714287E-01 0.0000000E+00
endloop
endfacet
facet normal 0.0000000E+00 0.0000000E+00 1.0000000E+00
outer loop
vertex -2.8571430E-01 1.0000000E+00 0.0000000E+00
vertex -2.8571430E-01 8.5714287E-01 0.0000000E+00
vertex -1.4285715E-01 8.5714287E-01 0.0000000E+00
endloop
endfacet
facet normal 0.0000000E+00 -0.0000000E+00 1.0000000E+00
outer loop
vertex 0.0000000E+00 7.1428573E-01 0.0000000E+00
vertex 0.0000000E+00 8.5714287E-01 0.0000000E+00
vertex -1.4285715E-01 8.5714287E-01 0.0000000E+00
endloop
endfacet
facet normal 0.0000000E+00 0.0000000E+00 1.0000000E+00
outer loop
vertex 0.0000000E+00 5.7142860E-01 0.0000000E+00
vertex -1.4285715E-01 5.7142860E-01 0.0000000E+00
vertex 0.0000000E+00 4.2857143E-01 0.0000000E+00
endloop
endfacet
facet normal 0.0000000E+00 0.0000000E+00 1.0000000E+00
outer loop
vertex -1.4285715E-01 7.1428573E-01 0.0000000E+00
vertex -2.8571430E-01 7.1428573E-01 0.0000000E+00
vertex -1.4285715E-01 5.7142860E-01 0.0000000E+00
endloop
endfacet
facet normal 0.0000000E+00 0.0000000E+00 1.0000000E+00
outer loop
vertex 1.4285715E-01 7.1428573E-01 0.0000000E+00
vertex 0.0000000E+00 7.1428573E-01 0.0000000E+00
vertex 1.4285715E-01 5.7142860E-01 0.0000000E+00
endloop
endfacet
facet normal 0.0000000E+00 0.0000000E+00 1.0000000E+00
outer loop
vertex -1.4285715E-01 8.5714287E-01 0.0000000E+00
vertex -1.4285715E-01 7.1428573E-01 0.0000000E+00
vertex 0.0000000E+00 7.1428573E-01 0.0000000E+00
endloop
endfacet
facet normal 0.0000000E+00 0.0000000E+00 1.0000000E+00
outer loop
vertex 1.4285715E-01 7.1428573E-01 0.0000000E+00
vertex 0.0000000E+00 8.5714287E-01 0.0000000E+00
vertex 0.0000000E+00 7.1428573E-01 0.0000000E+00
endloop
endfacet
facet normal 0.0000000E+00 0.0000000E+00 1.0000000E+00
outer loop
vertex 0.0000000E+00 1.0000000E+00 0.0000000E+00
vertex -1.4285715E-01 1.0000000E+00 0.0000000E+00
vertex 0.0000000E+00 8.5714287E-01 0.0000000E+00
endloop
endfacet
facet normal 0.0000000E+00 0.0000000E+00 1.0000000E+00
outer loop
vertex -1.4285715E-01 5.7142860E-01 0.0000000E+00
vertex -2.8571430E-01 5.7142860E-01 0.0000000E+00
vertex -1.4285715E-01 4.2857143E-01 0.0000000E+00
endloop
endfacet
facet normal 0.0000000E+00 0.0000000E+00 9.9999994E-01
outer loop
vertex -2.8571430E-01 5.7142860E-01 0.0000000E+00
vertex -4.2857143E-01 7.1428573E-01 0.0000000E+00
vertex -4.2857143E-01 5.7142860E-01 0.0000000E+00
endloop
endfacet
facet normal 0.0000000E+00 0.0000000E+00 1.0000000E+00
outer loop
vertex 0.0000000E+00 5.7142860E-01 0.0000000E+00
vertex 0.0000000E+00 4.2857143E-01 0.0000000E+00
vertex 1.4285715E-01 4.2857143E-01 0.0000000E+00
endloop
endfacet
facet normal -0.0000000E+00 0.0000000E+00 1.0000000E+00
outer loop
vertex -1.4285715E-01 4.2857143E-01 0.0000000E+00
vertex 0.0000000E+00 2.8571430E-01 0.0000000E+00
vertex 0.0000000E+00 4.2857143E-01 0.0000000E+00
endloop
endfacet
facet normal 0.0000000E+00 0.0000000E+00 9.9999994E-01
outer loop
vertex -2.8571430E-01 2.8571430E-01 0.0000000E+00
vertex -4.2857143E-01 4.2857143E-01 0.0000000E+00
vertex -4.2857143E-01 2.8571430E-01 0.0000000E+00
endloop
endfacet
facet normal 0.0000000E+00 -0.0000000E+00 1.0000000E+00
outer loop
vertex -4.2857143E-01 5.7142860E-01 0.0000000E+00
vertex -4.2857143E-01 7.1428573E-01 0.0000000E+00
vertex -5.7142860E-01 7.1428573E-01 0.0000000E+00
endloop
endfacet
facet normal 0.0000000E+00 0.0000000E+00 1.0000000E+00
outer loop
vertex -2.8571430E-01 4.2857143E-01 0.0000000E+00
vertex -4.2857143E-01 5.7142860E-01 0.0000000E+00
vertex -4.2857143E-01 4.2857143E-01 0.0000000E+00
endloop
endfacet
facet normal 0.0000000E+00 -0.0000000E+00 1.0000000E+00
outer loop
vertex -2.8571430E-01 4.2857143E-01 0.0000000E+00
vertex -2.8571430E-01 5.7142860E-01 0.0000000E+00
vertex -4.2857143E-01 5.7142860E-01 0.0000000E+00
endloop
endfacet
facet normal 0.0000000E+00 0.0000000E+00 1.0000000E+00
outer loop
vertex -2.8571430E-01 7.1428573E-01 0.0000000E+00
vertex -2.8571430E-01 5.7142860E-01 0.0000000E+00
vertex -1.4285715E-01 5.7142860E-01 0.0000000E+00
endloop
endfacet
facet normal 0.0000000E+00 0.0000000E+00 9.9999994E-01
outer loop
vertex -2.8571430E-01 7.1428573E-01 0.0000000E+00
vertex -4.2857143E-01 7.1428573E-01 0.0000000E+00
vertex -2.8571430E-01 5.7142860E-01 0.0000000E+00
endloop
endfacet
facet normal 0.0000000E+00 0.0000000E+00 1.0000000E+00
outer loop
vertex -4.2857143E-01 1.4285715E-01 0.0000000E+00
vertex -5.7142860E-01 1.4285715E-01 0.0000000E+00
vertex -4.2857143E-01 0.0000000E+00 0.0000000E+00
endloop
endfacet
facet normal 0.0000000E+00 0.0000000E+00 1.0000000E+00
outer loop
vertex -5.7142860E-01 2.8571430E-01 0.0000000E+00
vertex -7.1428573E-01 2.8571430E-01 0.0000000E+00
vertex -5.7142860E-01 1.4285715E-01 0.0000000E+00
endloop
endfacet
facet normal 0.0000000E+00 0.0000000E+00 1.0000000E+00
outer loop
vertex -2.8571430E-01 0.0000000E+00 0.0000000E+00
vertex -4.2857143E-01 1.4285715E-01 0.0000000E+00
vertex -4.2857143E-01 0.0000000E+00 0.0000000E+00
endloop
endfacet
facet normal 0.0000000E+00 -0.0000000E+00 1.0000000E+00
outer loop
vertex -2.8571430E-01 0.0000000E+00 0.0000000E+00
vertex -2.8571430E-01 1.4285715E-01 0.0000000E+00
vertex -4.2857143E-01 1.4285715E-01 0.0000000E+00
endloop
endfacet
facet normal 0.0000000E+00 0.0000000E+00 1.0000000E+00
outer loop
vertex -1.4285715E-01 1.4285715E-01 0.0000000E+00
vertex -2.8571430E-01 1.4285715E-01 0.0000000E+00
vertex -1.4285715E-01 0.0000000E+00 0.0000000E+00
endloop
endfacet
facet normal 0.0000000E+00 0.0000000E+00 1.0000000E+00
outer loop
vertex -2.8571430E-01 2.8571430E-01 0.0000000E+00
vertex -4.2857143E-01 2.8571430E-01 0.0000000E+00
vertex -2.8571430E-01 1.4285715E-01 0.0000000E+00
endloop
endfacet
facet normal -0.0000000E+00 0.0000000E+00 9.9999994E-01
outer loop
vertex -4.2857143E-01 4.2857143E-01 0.0000000E+00
vertex -2.8571430E-01 2.8571430E-01 0.0000000E+00
vertex -2.8571430E-01 4.2857143E-01 0.0000000E+00
endloop
endfacet
facet normal 0.0000000E+00 0.0000000E+00 1.0000000E+00
outer loop
vertex -2.8571430E-01 1.4285715E-01 0.0000000E+00
vertex -1.4285715E-01 1.4285715E-01 0.0000000E+00
vertex -2.8571430E-01 2.8571430E-01 0.0000000E+00
endloop
endfacet
facet normal 0.0000000E+00 0.0000000E+00 1.0000000E+00
outer loop
vertex 0.0000000E+00 0.0000000E+00 0.0000000E+00
vertex -1.4285715E-01 1.4285715E-01 0.0000000E+00
vertex -1.4285715E-01 0.0000000E+00 0.0000000E+00
endloop
endfacet
facet normal 0.0000000E+00 -0.0000000E+00 1.0000000E+00
outer loop
vertex 0.0000000E+00 1.4285715E-01 0.0000000E+00
vertex 0.0000000E+00 2.8571430E-01 0.0000000E+00
vertex -1.4285715E-01 2.8571430E-01 0.0000000E+00
endloop
endfacet
facet normal 0.0000000E+00 -0.0000000E+00 1.0000000E+00
outer loop
vertex -1.4285715E-01 1.4285715E-01 0.0000000E+00
vertex -1.4285715E-01 2.8571430E-01 0.0000000E+00
vertex -2.8571430E-01 2.8571430E-01 0.0000000E+00
endloop
endfacet
facet normal 0.0000000E+00 0.0000000E+00 1.0000000E+00
outer loop
vertex -1.4285715E-01 1.4285715E-01 0.0000000E+00
vertex 0.0000000E+00 1.4285715E-01 0.0000000E+00
vertex -1.4285715E-01 2.8571430E-01 0.0000000E+00
endloop
endfacet
facet normal 0.0000000E+00 0.0000000E+00 1.0000000E+00
outer loop
vertex 0.0000000E+00 -1.4285715E-01 0.0000000E+00
vertex 1.4285715E-01 -1.4285715E-01 0.0000000E+00
vertex 0.0000000E+00 0.0000000E+00 0.0000000E+00
endloop
endfacet
facet normal -0.0000000E+00 0.0000000E+00 1.0000000E+00
outer loop
vertex 0.0000000E+00 -1.4285715E-01 0.0000000E+00
vertex 1.4285715E-01 -2.8571430E-01 0.0000000E+00
vertex 1.4285715E-01 -1.4285715E-01 0.0000000E+00
endloop
endfacet
facet normal 0.0000000E+00 0.0000000E+00 1.0000000E+00
outer loop
vertex 0.0000000E+00 1.4285715E-01 0.0000000E+00
vertex 1.4285715E-01 1.4285715E-01 0.0000000E+00
vertex 0.0000000E+00 2.8571430E-01 0.0000000E+00
endloop
endfacet
facet normal 0.0000000E+00 0.0000000E+00 1.0000000E+00
outer loop
vertex 1.4285715E-01 0.0000000E+00 0.0000000E+00
vertex 2.8571430E-01 0.0000000E+00 0.0000000E+00
vertex 1.4285715E-01 1.4285715E-01 0.0000000E+00
endloop
endfacet
facet normal 0.0000000E+00 -0.0000000E+00 1.0000000E+00
outer loop
vertex 5.7142860E-01 1.4285715E-01 0.0000000E+00
vertex 5.7142860E-01 2.8571430E-01 0.0000000E+00
vertex 4.2857143E-01 2.8571430E-01 0.0000000E+00
endloop
endfacet
facet normal -0.0000000E+00 0.0000000E+00 1.0000000E+00
outer loop
vertex 1.4285715E-01 1.4285715E-01 0.0000000E+00
vertex 2.8571430E-01 0.0000000E+00 0.0000000E+00
vertex 2.8571430E-01 1.4285715E-01 0.0000000E+00
endloop
endfacet
facet normal 0.0000000E+00 0.0000000E+00 1.0000000E+00
outer loop
vertex 4.2857143E-01 1.4285715E-01 0.0000000E+00
vertex 2.8571430E-01 2.8571430E-01 0.0000000E+00
vertex 2.8571430E-01 1.4285715E-01 0.0000000E+00
endloop
endfacet
facet normal 0.0000000E+00 0.0000000E+00 1.0000000E+00
outer loop
vertex 2.8571430E-01 4.2857143E-01 0.0000000E+00
vertex 1.4285715E-01 5.7142860E-01 0.0000000E+00
vertex 1.4285715E-01 4.2857143E-01 0.0000000E+00
endloop
endfacet
facet normal -0.0000000E+00 0.0000000E+00 1.0000000E+00
outer loop
vertex 5.7142860E-01 -1.4285715E-01 0.0000000E+00
vertex 7.1428573E-01 -2.8571430E-01 0.0000000E+00
vertex 7.1428573E-01 -1.4285715E-01 0.0000000E+00
endloop
endfacet
facet normal 0.0000000E+00 0.0000000E+00 9.9999994E-01
outer loop
vertex 7.1428573E-01 2.8571430E-01 0.0000000E+00
vertex 5.7142860E-01 4.2857143E-01 0.0000000E+00
vertex 5.7142860E-01 2.8571430E-01 0.0000000E+00
endloop
endfacet
facet normal 0.0000000E+00 0.0000000E+00 1.0000000E+00
outer loop
vertex 4.2857143E-01 2.8571430E-01 0.0000000E+00
vertex 5.7142860E-01 2.8571430E-01 0.0000000E+00
vertex 4.2857143E-01 4.2857143E-01 0.0000000E+00
endloop
endfacet
facet normal 0.0000000E+00 0.0000000E+00 1.0000000E+00
outer loop
vertex 5.7142860E-01 4.2857143E-01 0.0000000E+00
vertex 4.2857143E-01 5.7142860E-01 0.0000000E+00
vertex 4.2857143E-01 4.2857143E-01 0.0000000E+00
endloop
endfacet
facet normal 0.0000000E+00 -0.0000000E+00 1.0000000E+00
outer loop
vertex 7.1428573E-01 1.4285715E-01 0.0000000E+00
vertex 7.1428573E-01 2.8571430E-01 0.0000000E+00
vertex 5.7142860E-01 2.8571430E-01 0.0000000E+00
endloop
endfacet
facet normal 0.0000000E+00 0.0000000E+00 1.0000000E+00
outer loop
vertex 5.7142860E-01 4.2857143E-01 0.0000000E+00
vertex 4.2857143E-01 4.2857143E-01 0.0000000E+00
vertex 5.7142860E-01 2.8571430E-01 0.0000000E+00
endloop
endfacet
facet normal 0.0000000E+00 0.0000000E+00 1.0000000E+00
outer loop
vertex 2.8571430E-01 4.2857143E-01 0.0000000E+00
vertex 1.4285715E-01 4.2857143E-01 0.0000000E+00
vertex 2.8571430E-01 2.8571430E-01 0.0000000E+00
endloop
endfacet
facet normal -0.0000000E+00 0.0000000E+00 1.0000000E+00
outer loop
vertex 0.0000000E+00 2.8571430E-01 0.0000000E+00
vertex 1.4285715E-01 1.4285715E-01 0.0000000E+00
vertex 1.4285715E-01 2.8571430E-01 0.0000000E+00
endloop
endfacet
facet normal 0.0000000E+00 -0.0000000E+00 1.0000000E+00
outer loop
vertex 1.4285715E-01 2.8571430E-01 0.0000000E+00
vertex 1.4285715E-01 4.2857143E-01 0.0000000E+00
vertex 0.0000000E+00 4.2857143E-01 0.0000000E+00
endloop
endfacet
facet normal 0.0000000E+00 0.0000000E+00 1.0000000E+00
outer loop
vertex 1.4285715E-01 2.8571430E-01 0.0000000E+00
vertex 2.8571430E-01 2.8571430E-01 0.0000000E+00
vertex 1.4285715E-01 4.2857143E-01 0.0000000E+00
endloop
endfacet
facet normal 0.0000000E+00 -0.0000000E+00 1.0000000E+00
outer loop
vertex 4.2857143E-01 1.4285715E-01 0.0000000E+00
vertex 4.2857143E-01 2.8571430E-01 0.0000000E+00
vertex 2.8571430E-01 2.8571430E-01 0.0000000E+00
endloop
endfacet
facet normal 0.0000000E+00 0.0000000E+00 1.0000000E+00
outer loop
vertex 4.2857143E-01 1.4285715E-01 0.0000000E+00
vertex 5.7142860E-01 1.4285715E-01 0.0000000E+00
vertex 4.2857143E-01 2.8571430E-01 0.0000000E+00
endloop
endfacet
facet normal 0.0000000E+00 0.0000000E+00 1.0000000E+00
outer loop
vertex 0.0000000E+00 7.1428573E-01 0.0000000E+00
vertex 0.0000000E+00 5.7142860E-01 0.0000000E+00
vertex 1.4285715E-01 5.7142860E-01 0.0000000E+00
endloop
endfacet
facet normal 0.0000000E+00 0.0000000E+00 1.0000000E+00
outer loop
vertex 0.0000000E+00 7.1428573E-01 0.0000000E+00
vertex -1.4285715E-01 7.1428573E-01 0.0000000E+00
vertex 0.0000000E+00 5.7142860E-01 0.0000000E+00
endloop
endfacet
facet normal 0.0000000E+00 0.0000000E+00 1.0000000E+00
outer loop
vertex 2.8571430E-01 5.7142860E-01 0.0000000E+00
vertex 1.4285715E-01 7.1428573E-01 0.0000000E+00
vertex 1.4285715E-01 5.7142860E-01 0.0000000E+00
endloop
endfacet
facet normal 0.0000000E+00 0.0000000E+00 1.0000000E+00
outer loop
vertex 2.8571430E-01 7.1428573E-01 0.0000000E+00
vertex 1.4285715E-01 8.5714287E-01 0.0000000E+00
vertex 1.4285715E-01 7.1428573E-01 0.0000000E+00
endloop
endfacet
facet normal 0.0000000E+00 0.0000000E+00 1.0000000E+00
outer loop
vertex 1.4285715E-01 8.5714287E-01 0.0000000E+00
vertex 0.0000000E+00 1.0000000E+00 0.0000000E+00
vertex 0.0000000E+00 8.5714287E-01 0.0000000E+00
endloop
endfacet
facet normal 0.0000000E+00 0.0000000E+00 1.0000000E+00
outer loop
vertex 2.8571430E-01 8.5714287E-01 0.0000000E+00
vertex 1.4285715E-01 8.5714287E-01 0.0000000E+00
vertex 2.8571430E-01 7.1428573E-01 0.0000000E+00
endloop
endfacet
facet normal -0.0000000E+00 0.0000000E+00 1.0000000E+00
outer loop
vertex 0.0000000E+00 1.0000000E+00 0.0000000E+00
vertex 1.4285715E-01 8.5714287E-01 0.0000000E+00
vertex 1.4285715E-01 1.0000000E+00 0.0000000E+00
endloop
endfacet
facet normal 0.0000000E+00 0.0000000E+00 9.9999994E-01
outer loop
vertex 4.2857143E-01 7.1428573E-01 0.0000000E+00
vertex 2.8571430E-01 8.5714287E-01 0.0000000E+00
vertex 2.8571430E-01 7.1428573E-01 0.0000000E+00
endloop
endfacet
facet normal 0.0000000E+00 -0.0000000E+00 9.9999994E-01
outer loop
vertex 4.2857143E-01 8.5714287E-01 0.0000000E+00
vertex 4.2857143E-01 1.0000000E+00 0.0000000E+00
vertex 2.8571430E-01 1.0000000E+00 0.0000000E+00
endloop
endfacet
facet normal 0.0000000E+00 -0.0000000E+00 1.0000000E+00
outer loop
vertex 2.8571430E-01 8.5714287E-01 0.0000000E+00
vertex 2.8571430E-01 1.0000000E+00 0.0000000E+00
vertex 1.4285715E-01 1.0000000E+00 0.0000000E+00
endloop
endfacet
facet normal 0.0000000E+00 0.0000000E+00 9.9999994E-01
outer loop
vertex 2.8571430E-01 8.5714287E-01 0.0000000E+00
vertex 4.2857143E-01 8.5714287E-01 0.0000000E+00
vertex 2.8571430E-01 1.0000000E+00 0.0000000E+00
endloop
endfacet
facet normal -0.0000000E+00 0.0000000E+00 9.9999994E-01
outer loop
vertex 2.8571430E-01 8.5714287E-01 0.0000000E+00
vertex 4.2857143E-01 7.1428573E-01 0.0000000E+00
vertex 4.2857143E-01 8.5714287E-01 0.0000000E+00
endloop
endfacet
facet normal -0.0000000E+00 0.0000000E+00 9.9999994E-01
outer loop
vertex 2.8571430E-01 7.1428573E-01 0.0000000E+00
vertex 4.2857143E-01 5.7142860E-01 0.0000000E+00
vertex 4.2857143E-01 7.1428573E-01 0.0000000E+00
endloop
endfacet
facet normal 0.0000000E+00 0.0000000E+00 9.9999994E-01
outer loop
vertex 4.2857143E-01 2.8571430E-01 0.0000000E+00
vertex 2.8571430E-01 4.2857143E-01 0.0000000E+00
vertex 2.8571430E-01 2.8571430E-01 0.0000000E+00
endloop
endfacet
facet normal 0.0000000E+00 -0.0000000E+00 1.0000000E+00
outer loop
vertex 4.2857143E-01 4.2857143E-01 0.0000000E+00
vertex 4.2857143E-01 5.7142860E-01 0.0000000E+00
vertex 2.8571430E-01 5.7142860E-01 0.0000000E+00
endloop
endfacet
facet normal 0.0000000E+00 0.0000000E+00 1.0000000E+00
outer loop
vertex 4.2857143E-01 4.2857143E-01 0.0000000E+00
vertex 2.8571430E-01 5.7142860E-01 0.0000000E+00
vertex 2.8571430E-01 4.2857143E-01 0.0000000E+00
endloop
endfacet
facet normal 0.0000000E+00 0.0000000E+00 1.0000000E+00
outer loop
vertex 2.8571430E-01 7.1428573E-01 0.0000000E+00
vertex 1.4285715E-01 7.1428573E-01 0.0000000E+00
vertex 2.8571430E-01 5.7142860E-01 0.0000000E+00
endloop
endfacet
facet normal 0.0000000E+00 0.0000000E+00 9.9999994E-01
outer loop
vertex 5.7142860E-01 7.1428573E-01 0.0000000E+00
vertex 5.7142860E-01 5.7142860E-01 0.0000000E+00
vertex 7.1428573E-01 5.7142860E-01 0.0000000E+00
endloop
endfacet
facet normal -0.0000000E+00 0.0000000E+00 1.0000000E+00
outer loop
vertex 4.2857143E-01 5.7142860E-01 0.0000000E+00
vertex 5.7142860E-01 4.2857143E-01 0.0000000E+00
vertex 5.7142860E-01 5.7142860E-01 0.0000000E+00
endloop
endfacet
facet normal 0.0000000E+00 0.0000000E+00 9.9999994E-01
outer loop
vertex 5.7142860E-01 8.5714287E-01 0.0000000E+00
vertex 5.7142860E-01 7.1428573E-01 0.0000000E+00
vertex 7.1428573E-01 7.1428573E-01 0.0000000E+00
endloop
endfacet
facet normal -0.0000000E+00 0.0000000E+00 1.0000000E+00
outer loop
vertex 4.2857143E-01 7.1428573E-01 0.0000000E+00
vertex 5.7142860E-01 5.7142860E-01 0.0000000E+00
vertex 5.7142860E-01 7.1428573E-01 0.0000000E+00
endloop
endfacet
facet normal 0.0000000E+00 0.0000000E+00 9.9999994E-01
outer loop
vertex 5.7142860E-01 1.0000000E+00 0.0000000E+00
vertex 5.7142860E-01 8.5714287E-01 0.0000000E+00
vertex 7.1428573E-01 8.5714287E-01 0.0000000E+00
endloop
endfacet
facet normal -0.0000000E+00 0.0000000E+00 1.0000000E+00
outer loop
vertex 4.2857143E-01 8.5714287E-01 0.0000000E+00
vertex 5.7142860E-01 7.1428573E-01 0.0000000E+00
vertex 5.7142860E-01 8.5714287E-01 0.0000000E+00
endloop
endfacet
facet normal -0.0000000E+00 0.0000000E+00 1.0000000E+00
outer loop
vertex 4.2857143E-01 1.0000000E+00 0.0000000E+00
vertex 5.7142860E-01 8.5714287E-01 0.0000000E+00
vertex 5.7142860E-01 1.0000000E+00 0.0000000E+00
endloop
endfacet
facet normal 0.0000000E+00 0.0000000E+00 9.9999994E-01
outer loop
vertex 7.1428573E-01 1.0000000E+00 0.0000000E+00
vertex 7.1428573E-01 8.5714287E-01 0.0000000E+00
vertex 8.5714287E-01 8.5714287E-01 0.0000000E+00
endloop
endfacet
facet normal -0.0000000E+00 0.0000000E+00 9.9999994E-01
outer loop
vertex 5.7142860E-01 8.5714287E-01 0.0000000E+00
vertex 7.1428573E-01 7.1428573E-01 0.0000000E+00
vertex 7.1428573E-01 8.5714287E-01 0.0000000E+00
endloop
endfacet
facet normal -0.0000000E+00 0.0000000E+00 9.9999994E-01
outer loop
vertex 5.7142860E-01 1.0000000E+00 0.0000000E+00
vertex 7.1428573E-01 8.5714287E-01 0.0000000E+00
vertex 7.1428573E-01 1.0000000E+00 0.0000000E+00
endloop
endfacet
facet normal 0.0000000E+00 0.0000000E+00 9.9999994E-01
outer loop
vertex 8.5714287E-01 5.7142860E-01 0.0000000E+00
vertex 1.0000000E+00 5.7142860E-01 0.0000000E+00
vertex 8.5714287E-01 7.1428573E-01 0.0000000E+00
endloop
endfacet
facet normal 0.0000000E+00 0.0000000E+00 9.9999994E-01
outer loop
vertex 8.5714287E-01 4.2857143E-01 0.0000000E+00
vertex 7.1428573E-01 4.2857143E-01 0.0000000E+00
vertex 8.5714287E-01 2.8571430E-01 0.0000000E+00
endloop
endfacet
facet normal 0.0000000E+00 -0.0000000E+00 9.9999994E-01
outer loop
vertex 1.0000000E+00 8.5714287E-01 0.0000000E+00
vertex 1.0000000E+00 1.0000000E+00 0.0000000E+00
vertex 8.5714287E-01 1.0000000E+00 0.0000000E+00
endloop
endfacet
facet normal -0.0000000E+00 0.0000000E+00 9.9999994E-01
outer loop
vertex 7.1428573E-01 7.1428573E-01 0.0000000E+00
vertex 8.5714287E-01 5.7142860E-01 0.0000000E+00
vertex 8.5714287E-01 7.1428573E-01 0.0000000E+00
endloop
endfacet
facet normal 0.0000000E+00 0.0000000E+00 1.0000000E+00
outer loop
vertex 8.5714287E-01 4.2857143E-01 0.0000000E+00
vertex 1.0000000E+00 4.2857143E-01 0.0000000E+00
vertex 8.5714287E-01 5.7142860E-01 0.0000000E+00
endloop
endfacet
facet normal -0.0000000E+00 0.0000000E+00 9.9999994E-01
outer loop
vertex 7.1428573E-01 1.0000000E+00 0.0000000E+00
vertex 8.5714287E-01 8.5714287E-01 0.0000000E+00
vertex 8.5714287E-01 1.0000000E+00 0.0000000E+00
endloop
endfacet
facet normal 0.0000000E+00 0.0000000E+00 9.9999994E-01
outer loop
vertex 8.5714287E-01 7.1428573E-01 0.0000000E+00
vertex 1.0000000E+00 7.1428573E-01 0.0000000E+00
vertex 8.5714287E-01 8.5714287E-01 0.0000000E+00
endloop
endfacet
facet normal 0.0000000E+00 0.0000000E+00 9.9999994E-01
outer loop
vertex 1.0000000E+00 8.5714287E-01 0.0000000E+00
vertex 8.5714287E-01 8.5714287E-01 0.0000000E+00
vertex 1.0000000E+00 7.1428573E-01 0.0000000E+00
endloop
endfacet
facet normal 0.0000000E+00 0.0000000E+00 1.0000000E+00
outer loop
vertex 1.0000000E+00 5.7142860E-01 0.0000000E+00
vertex 8.5714287E-01 5.7142860E-01 0.0000000E+00
vertex 1.0000000E+00 4.2857143E-01 0.0000000E+00
endloop
endfacet
facet normal 0.0000000E+00 0.0000000E+00 9.9999994E-01
outer loop
vertex 1.0000000E+00 7.1428573E-01 0.0000000E+00
vertex 8.5714287E-01 7.1428573E-01 0.0000000E+00
vertex 1.0000000E+00 5.7142860E-01 0.0000000E+00
endloop
endfacet
facet normal 0.0000000E+00 0.0000000E+00 1.0000000E+00
outer loop
vertex 5.7142860E-01 1.4285715E-01 0.0000000E+00
vertex 7.1428573E-01 1.4285715E-01 0.0000000E+00
vertex 5.7142860E-01 2.8571430E-01 0.0000000E+00
endloop
endfacet
facet normal 0.0000000E+00 -0.0000000E+00 1.0000000E+00
outer loop
vertex 8.5714287E-01 4.2857143E-01 0.0000000E+00
vertex 8.5714287E-01 5.7142860E-01 0.0000000E+00
vertex 7.1428573E-01 5.7142860E-01 0.0000000E+00
endloop
endfacet
facet normal 0.0000000E+00 0.0000000E+00 1.0000000E+00
outer loop
vertex 8.5714287E-01 4.2857143E-01 0.0000000E+00
vertex 7.1428573E-01 5.7142860E-01 0.0000000E+00
vertex 7.1428573E-01 4.2857143E-01 0.0000000E+00
endloop
endfacet
facet normal 0.0000000E+00 0.0000000E+00 9.9999994E-01
outer loop
vertex 8.5714287E-01 5.7142860E-01 0.0000000E+00
vertex 7.1428573E-01 7.1428573E-01 0.0000000E+00
vertex 7.1428573E-01 5.7142860E-01 0.0000000E+00
endloop
endfacet
facet normal 0.0000000E+00 0.0000000E+00 9.9999994E-01
outer loop
vertex 8.5714287E-01 4.2857143E-01 0.0000000E+00
vertex 8.5714287E-01 2.8571430E-01 0.0000000E+00
vertex 1.0000000E+00 2.8571430E-01 0.0000000E+00
endloop
endfacet
facet normal 0.0000000E+00 0.0000000E+00 1.0000000E+00
outer loop
vertex 5.7142860E-01 -1.4285715E-01 0.0000000E+00
vertex 4.2857143E-01 0.0000000E+00 0.0000000E+00
vertex 4.2857143E-01 -1.4285715E-01 0.0000000E+00
endloop
endfacet
facet normal 0.0000000E+00 0.0000000E+00 1.0000000E+00
outer loop
vertex 7.1428573E-01 2.8571430E-01 0.0000000E+00
vertex 7.1428573E-01 1.4285715E-01 0.0000000E+00
vertex 8.5714287E-01 1.4285715E-01 0.0000000E+00
endloop
endfacet
facet normal 0.0000000E+00 0.0000000E+00 1.0000000E+00
outer loop
vertex 5.7142860E-01 0.0000000E+00 0.0000000E+00
vertex 4.2857143E-01 0.0000000E+00 0.0000000E+00
vertex 5.7142860E-01 -1.4285715E-01 0.0000000E+00
endloop
endfacet
facet normal 0.0000000E+00 0.0000000E+00 9.9999994E-01
outer loop
vertex 7.1428573E-01 4.2857143E-01 0.0000000E+00
vertex 7.1428573E-01 2.8571430E-01 0.0000000E+00
vertex 8.5714287E-01 2.8571430E-01 0.0000000E+00
endloop
endfacet
facet normal 0.0000000E+00 0.0000000E+00 9.9999994E-01
outer loop
vertex 7.1428573E-01 4.2857143E-01 0.0000000E+00
vertex 5.7142860E-01 4.2857143E-01 0.0000000E+00
vertex 7.1428573E-01 2.8571430E-01 0.0000000E+00
endloop
endfacet
facet normal 0.0000000E+00 0.0000000E+00 1.0000000E+00
outer loop
vertex 8.5714287E-01 2.8571430E-01 0.0000000E+00
vertex 8.5714287E-01 1.4285715E-01 0.0000000E+00
vertex 1.0000000E+00 1.4285715E-01 0.0000000E+00
endloop
endfacet
facet normal 0.0000000E+00 0.0000000E+00 1.0000000E+00
outer loop
vertex 8.5714287E-01 2.8571430E-01 0.0000000E+00
vertex 7.1428573E-01 2.8571430E-01 0.0000000E+00
vertex 8.5714287E-01 1.4285715E-01 0.0000000E+00
endloop
endfacet
facet normal 0.0000000E+00 0.0000000E+00 1.0000000E+00
outer loop
vertex 8.5714287E-01 1.4285715E-01 0.0000000E+00
vertex 8.5714287E-01 0.0000000E+00 0.0000000E+00
vertex 1.0000000E+00 0.0000000E+00 0.0000000E+00
endloop
endfacet
facet normal 0.0000000E+00 0.0000000E+00 1.0000000E+00
outer loop
vertex 8.5714287E-01 1.4285715E-01 0.0000000E+00
vertex 7.1428573E-01 1.4285715E-01 0.0000000E+00
vertex 8.5714287E-01 0.0000000E+00 0.0000000E+00
endloop
endfacet
facet normal 0.0000000E+00 0.0000000E+00 1.0000000E+00
outer loop
vertex 1.0000000E+00 2.8571430E-01 0.0000000E+00
vertex 8.5714287E-01 2.8571430E-01 0.0000000E+00
vertex 1.0000000E+00 1.4285715E-01 0.0000000E+00
endloop
endfacet
facet normal 0.0000000E+00 0.0000000E+00 9.9999994E-01
outer loop
vertex 1.0000000E+00 4.2857143E-01 0.0000000E+00
vertex 8.5714287E-01 4.2857143E-01 0.0000000E+00
vertex 1.0000000E+00 2.8571430E-01 0.0000000E+00
endloop
endfacet
facet normal 0.0000000E+00 0.0000000E+00 1.0000000E+00
outer loop
vertex 1.0000000E+00 0.0000000E+00 0.0000000E+00
vertex 8.5714287E-01 0.0000000E+00 0.0000000E+00
vertex 1.0000000E+00 -1.4285715E-01 0.0000000E+00
endloop
endfacet
facet normal 0.0000000E+00 0.0000000E+00 1.0000000E+00
outer loop
vertex 1.0000000E+00 1.4285715E-01 0.0000000E+00
vertex 8.5714287E-01 1.4285715E-01 0.0000000E+00
vertex 1.0000000E+00 0.0000000E+00 0.0000000E+00
endloop
endfacet
facet normal 0.0000000E+00 0.0000000E+00 1.0000000E+00
outer loop
vertex 8.5714287E-01 -4.2857143E-01 0.0000000E+00
vertex 8.5714287E-01 -5.7142860E-01 0.0000000E+00
vertex 1.0000000E+00 -5.7142860E-01 0.0000000E+00
endloop
endfacet
facet normal 0.0000000E+00 0.0000000E+00 1.0000000E+00
outer loop
vertex 8.5714287E-01 -4.2857143E-01 0.0000000E+00
vertex 7.1428573E-01 -4.2857143E-01 0.0000000E+00
vertex 8.5714287E-01 -5.7142860E-01 0.0000000E+00
endloop
endfacet
facet normal 0.0000000E+00 0.0000000E+00 9.9999994E-01
outer loop
vertex 1.0000000E+00 -2.8571430E-01 0.0000000E+00
vertex 8.5714287E-01 -2.8571430E-01 0.0000000E+00
vertex 1.0000000E+00 -4.2857143E-01 0.0000000E+00
endloop
endfacet
facet normal 0.0000000E+00 -0.0000000E+00 1.0000000E+00
outer loop
vertex 8.5714287E-01 -1.4285715E-01 0.0000000E+00
vertex 8.5714287E-01 0.0000000E+00 0.0000000E+00
vertex 7.1428573E-01 0.0000000E+00 0.0000000E+00
endloop
endfacet
facet normal 0.0000000E+00 0.0000000E+00 1.0000000E+00
outer loop
vertex 4.2857143E-01 -1.4285715E-01 0.0000000E+00
vertex 4.2857143E-01 -2.8571430E-01 0.0000000E+00
vertex 5.7142860E-01 -2.8571430E-01 0.0000000E+00
endloop
endfacet
facet normal 0.0000000E+00 0.0000000E+00 9.9999994E-01
outer loop
vertex 7.1428573E-01 -4.2857143E-01 0.0000000E+00
vertex 8.5714287E-01 -4.2857143E-01 0.0000000E+00
vertex 7.1428573E-01 -2.8571430E-01 0.0000000E+00
endloop
endfacet
facet normal 0.0000000E+00 0.0000000E+00 1.0000000E+00
outer loop
vertex 1.0000000E+00 -1.4285715E-01 0.0000000E+00
vertex 8.5714287E-01 -1.4285715E-01 0.0000000E+00
vertex 1.0000000E+00 -2.8571430E-01 0.0000000E+00
endloop
endfacet
facet normal -0.0000000E+00 0.0000000E+00 9.9999994E-01
outer loop
vertex 7.1428573E-01 -2.8571430E-01 0.0000000E+00
vertex 8.5714287E-01 -4.2857143E-01 0.0000000E+00
vertex 8.5714287E-01 -2.8571430E-01 0.0000000E+00
endloop
endfacet
facet normal 0.0000000E+00 0.0000000E+00 1.0000000E+00
outer loop
vertex 5.7142860E-01 1.4285715E-01 0.0000000E+00
vertex 4.2857143E-01 1.4285715E-01 0.0000000E+00
vertex 5.7142860E-01 0.0000000E+00 0.0000000E+00
endloop
endfacet
facet normal 0.0000000E+00 0.0000000E+00 1.0000000E+00
outer loop
vertex 7.1428573E-01 -2.8571430E-01 0.0000000E+00
vertex 8.5714287E-01 -2.8571430E-01 0.0000000E+00
vertex 7.1428573E-01 -1.4285715E-01 0.0000000E+00
endloop
endfacet
facet normal -0.0000000E+00 0.0000000E+00 1.0000000E+00
outer loop
vertex 5.7142860E-01 1.4285715E-01 0.0000000E+00
vertex 7.1428573E-01 0.0000000E+00 0.0000000E+00
vertex 7.1428573E-01 1.4285715E-01 0.0000000E+00
endloop
endfacet
facet normal 0.0000000E+00 0.0000000E+00 1.0000000E+00
outer loop
vertex 7.1428573E-01 -1.4285715E-01 0.0000000E+00
vertex 8.5714287E-01 -1.4285715E-01 0.0000000E+00
vertex 7.1428573E-01 0.0000000E+00 0.0000000E+00
endloop
endfacet
facet normal 0.0000000E+00 0.0000000E+00 1.0000000E+00
outer loop
vertex 1.0000000E+00 -2.8571430E-01 0.0000000E+00
vertex 8.5714287E-01 -1.4285715E-01 0.0000000E+00
vertex 8.5714287E-01 -2.8571430E-01 0.0000000E+00
endloop
endfacet
facet normal 0.0000000E+00 0.0000000E+00 1.0000000E+00
outer loop
vertex 1.0000000E+00 -1.4285715E-01 0.0000000E+00
vertex 8.5714287E-01 0.0000000E+00 0.0000000E+00
vertex 8.5714287E-01 -1.4285715E-01 0.0000000E+00
endloop
endfacet
facet normal 0.0000000E+00 0.0000000E+00 1.0000000E+00
outer loop
vertex 7.1428573E-01 0.0000000E+00 0.0000000E+00
vertex 5.7142860E-01 0.0000000E+00 0.0000000E+00
vertex 7.1428573E-01 -1.4285715E-01 0.0000000E+00
endloop
endfacet
facet normal 0.0000000E+00 0.0000000E+00 1.0000000E+00
outer loop
vertex 4.2857143E-01 -1.4285715E-01 0.0000000E+00
vertex 2.8571430E-01 -1.4285715E-01 0.0000000E+00
vertex 4.2857143E-01 -2.8571430E-01 0.0000000E+00
endloop
endfacet
facet normal 0.0000000E+00 0.0000000E+00 1.0000000E+00
outer loop
vertex 7.1428573E-01 -1.4285715E-01 0.0000000E+00
vertex 5.7142860E-01 0.0000000E+00 0.0000000E+00
vertex 5.7142860E-01 -1.4285715E-01 0.0000000E+00
endloop
endfacet
facet normal 0.0000000E+00 0.0000000E+00 1.0000000E+00
outer loop
vertex 7.1428573E-01 0.0000000E+00 0.0000000E+00
vertex 5.7142860E-01 1.4285715E-01 0.0000000E+00
vertex 5.7142860E-01 0.0000000E+00 0.0000000E+00
endloop
endfacet
facet normal 0.0000000E+00 0.0000000E+00 1.0000000E+00
outer loop
vertex 1.4285715E-01 -4.2857143E-01 0.0000000E+00
vertex 0.0000000E+00 -2.8571430E-01 0.0000000E+00
vertex 0.0000000E+00 -4.2857143E-01 0.0000000E+00
endloop
endfacet
facet normal 0.0000000E+00 0.0000000E+00 1.0000000E+00
outer loop
vertex 1.4285715E-01 -2.8571430E-01 0.0000000E+00
vertex 0.0000000E+00 -1.4285715E-01 0.0000000E+00
vertex 0.0000000E+00 -2.8571430E-01 0.0000000E+00
endloop
endfacet
facet normal 0.0000000E+00 0.0000000E+00 1.0000000E+00
outer loop
vertex 1.4285715E-01 0.0000000E+00 0.0000000E+00
vertex 1.4285715E-01 -1.4285715E-01 0.0000000E+00
vertex 2.8571430E-01 -1.4285715E-01 0.0000000E+00
endloop
endfacet
facet normal 0.0000000E+00 0.0000000E+00 1.0000000E+00
outer loop
vertex 1.4285715E-01 0.0000000E+00 0.0000000E+00
vertex 0.0000000E+00 0.0000000E+00 0.0000000E+00
vertex 1.4285715E-01 -1.4285715E-01 0.0000000E+00
endloop
endfacet
facet normal 0.0000000E+00 0.0000000E+00 1.0000000E+00
outer loop
vertex 2.8571430E-01 0.0000000E+00 0.0000000E+00
vertex 2.8571430E-01 -1.4285715E-01 0.0000000E+00
vertex 4.2857143E-01 -1.4285715E-01 0.0000000E+00
endloop
endfacet
facet normal 0.0000000E+00 0.0000000E+00 1.0000000E+00
outer loop
vertex 1.4285715E-01 -1.4285715E-01 0.0000000E+00
vertex 1.4285715E-01 -2.8571430E-01 0.0000000E+00
vertex 2.8571430E-01 -2.8571430E-01 0.0000000E+00
endloop
endfacet
facet normal 0.0000000E+00 0.0000000E+00 1.0000000E+00
outer loop
vertex 0.0000000E+00 -5.7142860E-01 0.0000000E+00
vertex 1.4285715E-01 -5.7142860E-01 0.0000000E+00
vertex 0.0000000E+00 -4.2857143E-01 0.0000000E+00
endloop
endfacet
facet normal 0.0000000E+00 -0.0000000E+00 1.0000000E+00
outer loop
vertex 2.8571430E-01 -5.7142860E-01 0.0000000E+00
vertex 2.8571430E-01 -4.2857143E-01 0.0000000E+00
vertex 1.4285715E-01 -4.2857143E-01 0.0000000E+00
endloop
endfacet
facet normal 0.0000000E+00 0.0000000E+00 1.0000000E+00
outer loop
vertex 2.8571430E-01 -1.4285715E-01 0.0000000E+00
vertex 2.8571430E-01 -2.8571430E-01 0.0000000E+00
vertex 4.2857143E-01 -2.8571430E-01 0.0000000E+00
endloop
endfacet
facet normal 0.0000000E+00 0.0000000E+00 1.0000000E+00
outer loop
vertex 2.8571430E-01 -1.4285715E-01 0.0000000E+00
vertex 1.4285715E-01 -1.4285715E-01 0.0000000E+00
vertex 2.8571430E-01 -2.8571430E-01 0.0000000E+00
endloop
endfacet
facet normal 0.0000000E+00 0.0000000E+00 9.9999994E-01
outer loop
vertex 2.8571430E-01 -4.2857143E-01 0.0000000E+00
vertex 4.2857143E-01 -4.2857143E-01 0.0000000E+00
vertex 2.8571430E-01 -2.8571430E-01 0.0000000E+00
endloop
endfacet
facet normal 0.0000000E+00 0.0000000E+00 1.0000000E+00
outer loop
vertex 5.7142860E-01 -2.8571430E-01 0.0000000E+00
vertex 7.1428573E-01 -2.8571430E-01 0.0000000E+00
vertex 5.7142860E-01 -1.4285715E-01 0.0000000E+00
endloop
endfacet
facet normal 0.0000000E+00 0.0000000E+00 1.0000000E+00
outer loop
vertex 5.7142860E-01 -4.2857143E-01 0.0000000E+00
vertex 4.2857143E-01 -4.2857143E-01 0.0000000E+00
vertex 5.7142860E-01 -5.7142860E-01 0.0000000E+00
endloop
endfacet
facet normal 0.0000000E+00 0.0000000E+00 9.9999994E-01
outer loop
vertex 4.2857143E-01 -2.8571430E-01 0.0000000E+00
vertex 2.8571430E-01 -2.8571430E-01 0.0000000E+00
vertex 4.2857143E-01 -4.2857143E-01 0.0000000E+00
endloop
endfacet
facet normal 0.0000000E+00 0.0000000E+00 1.0000000E+00
outer loop
vertex 7.1428573E-01 -5.7142860E-01 0.0000000E+00
vertex 5.7142860E-01 -4.2857143E-01 0.0000000E+00
vertex 5.7142860E-01 -5.7142860E-01 0.0000000E+00
endloop
endfacet
facet normal 0.0000000E+00 -0.0000000E+00 9.9999994E-01
outer loop
vertex 7.1428573E-01 -4.2857143E-01 0.0000000E+00
vertex 7.1428573E-01 -2.8571430E-01 0.0000000E+00
vertex 5.7142860E-01 -2.8571430E-01 0.0000000E+00
endloop
endfacet
facet normal 0.0000000E+00 -0.0000000E+00 1.0000000E+00
outer loop
vertex 5.7142860E-01 -4.2857143E-01 0.0000000E+00
vertex 5.7142860E-01 -2.8571430E-01 0.0000000E+00
vertex 4.2857143E-01 -2.8571430E-01 0.0000000E+00
endloop
endfacet
facet normal 0.0000000E+00 0.0000000E+00 9.9999994E-01
outer loop
vertex 5.7142860E-01 -4.2857143E-01 0.0000000E+00
vertex 7.1428573E-01 -4.2857143E-01 0.0000000E+00
vertex 5.7142860E-01 -2.8571430E-01 0.0000000E+00
endloop
endfacet
facet normal 0.0000000E+00 0.0000000E+00 1.0000000E+00
outer loop
vertex 4.2857143E-01 -5.7142860E-01 0.0000000E+00
vertex 4.2857143E-01 -7.1428573E-01 0.0000000E+00
vertex 5.7142860E-01 -7.1428573E-01 0.0000000E+00
endloop
endfacet
facet normal 0.0000000E+00 -0.0000000E+00 1.0000000E+00
outer loop
vertex 1.4285715E-01 -5.7142860E-01 0.0000000E+00
vertex 1.4285715E-01 -4.2857143E-01 0.0000000E+00
vertex 0.0000000E+00 -4.2857143E-01 0.0000000E+00
endloop
endfacet
facet normal 0.0000000E+00 0.0000000E+00 1.0000000E+00
outer loop
vertex 4.2857143E-01 -4.2857143E-01 0.0000000E+00
vertex 4.2857143E-01 -5.7142860E-01 0.0000000E+00
vertex 5.7142860E-01 -5.7142860E-01 0.0000000E+00
endloop
endfacet
facet normal -0.0000000E+00 0.0000000E+00 9.9999994E-01
outer loop
vertex 2.8571430E-01 -5.7142860E-01 0.0000000E+00
vertex 4.2857143E-01 -7.1428573E-01 0.0000000E+00
vertex 4.2857143E-01 -5.7142860E-01 0.0000000E+00
endloop
endfacet
facet normal 0.0000000E+00 -0.0000000E+00 1.0000000E+00
outer loop
vertex 1.4285715E-01 -1.0000000E+00 0.0000000E+00
vertex 1.4285715E-01 -8.5714287E-01 0.0000000E+00
vertex 0.0000000E+00 -8.5714287E-01 0.0000000E+00
endloop
endfacet
facet normal 0.0000000E+00 -0.0000000E+00 1.0000000E+00
outer loop
vertex 2.8571430E-01 -7.1428573E-01 0.0000000E+00
vertex 2.8571430E-01 -5.7142860E-01 0.0000000E+00
vertex 1.4285715E-01 -5.7142860E-01 0.0000000E+00
endloop
endfacet
facet normal 0.0000000E+00 0.0000000E+00 1.0000000E+00
outer loop
vertex 2.8571430E-01 -7.1428573E-01 0.0000000E+00
vertex 1.4285715E-01 -5.7142860E-01 0.0000000E+00
vertex 1.4285715E-01 -7.1428573E-01 0.0000000E+00
endloop
endfacet
facet normal 0.0000000E+00 0.0000000E+00 1.0000000E+00
outer loop
vertex 2.8571430E-01 -5.7142860E-01 0.0000000E+00
vertex 1.4285715E-01 -4.2857143E-01 0.0000000E+00
vertex 1.4285715E-01 -5.7142860E-01 0.0000000E+00
endloop
endfacet
facet normal 0.0000000E+00 0.0000000E+00 9.9999994E-01
outer loop
vertex 4.2857143E-01 -8.5714287E-01 0.0000000E+00
vertex 2.8571430E-01 -7.1428573E-01 0.0000000E+00
vertex 2.8571430E-01 -8.5714287E-01 0.0000000E+00
endloop
endfacet
facet normal 0.0000000E+00 0.0000000E+00 9.9999994E-01
outer loop
vertex 4.2857143E-01 -7.1428573E-01 0.0000000E+00
vertex 2.8571430E-01 -5.7142860E-01 0.0000000E+00
vertex 2.8571430E-01 -7.1428573E-01 0.0000000E+00
endloop
endfacet
facet normal 0.0000000E+00 0.0000000E+00 1.0000000E+00
outer loop
vertex 1.4285715E-01 -1.0000000E+00 0.0000000E+00
vertex 0.0000000E+00 -8.5714287E-01 0.0000000E+00
vertex 0.0000000E+00 -1.0000000E+00 0.0000000E+00
endloop
endfacet
facet normal 0.0000000E+00 0.0000000E+00 1.0000000E+00
outer loop
vertex 1.4285715E-01 -8.5714287E-01 0.0000000E+00
vertex 0.0000000E+00 -7.1428573E-01 0.0000000E+00
vertex 0.0000000E+00 -8.5714287E-01 0.0000000E+00
endloop
endfacet
facet normal 0.0000000E+00 -0.0000000E+00 1.0000000E+00
outer loop
vertex 2.8571430E-01 -1.0000000E+00 0.0000000E+00
vertex 2.8571430E-01 -8.5714287E-01 0.0000000E+00
vertex 1.4285715E-01 -8.5714287E-01 0.0000000E+00
endloop
endfacet
facet normal 0.0000000E+00 0.0000000E+00 1.0000000E+00
outer loop
vertex 2.8571430E-01 -1.0000000E+00 0.0000000E+00
vertex 1.4285715E-01 -8.5714287E-01 0.0000000E+00
vertex 1.4285715E-01 -1.0000000E+00 0.0000000E+00
endloop
endfacet
facet normal 0.0000000E+00 0.0000000E+00 1.0000000E+00
outer loop
vertex 2.8571430E-01 -8.5714287E-01 0.0000000E+00
vertex 1.4285715E-01 -7.1428573E-01 0.0000000E+00
vertex 1.4285715E-01 -8.5714287E-01 0.0000000E+00
endloop
endfacet
facet normal 0.0000000E+00 -0.0000000E+00 1.0000000E+00
outer loop
vertex 2.8571430E-01 -8.5714287E-01 0.0000000E+00
vertex 2.8571430E-01 -7.1428573E-01 0.0000000E+00
vertex 1.4285715E-01 -7.1428573E-01 0.0000000E+00
endloop
endfacet
facet normal 0.0000000E+00 0.0000000E+00 9.9999994E-01
outer loop
vertex 4.2857143E-01 -1.0000000E+00 0.0000000E+00
vertex 2.8571430E-01 -8.5714287E-01 0.0000000E+00
vertex 2.8571430E-01 -1.0000000E+00 0.0000000E+00
endloop
endfacet
facet normal 0.0000000E+00 -0.0000000E+00 9.9999994E-01
outer loop
vertex 4.2857143E-01 -1.0000000E+00 0.0000000E+00
vertex 4.2857143E-01 -8.5714287E-01 0.0000000E+00
vertex 2.8571430E-01 -8.5714287E-01 0.0000000E+00
endloop
endfacet
facet normal 0.0000000E+00 0.0000000E+00 1.0000000E+00
outer loop
vertex 5.7142860E-01 -8.5714287E-01 0.0000000E+00
vertex 4.2857143E-01 -8.5714287E-01 0.0000000E+00
vertex 5.7142860E-01 -1.0000000E+00 0.0000000E+00
endloop
endfacet
facet normal 0.0000000E+00 0.0000000E+00 9.9999994E-01
outer loop
vertex 4.2857143E-01 -7.1428573E-01 0.0000000E+00
vertex 2.8571430E-01 -7.1428573E-01 0.0000000E+00
vertex 4.2857143E-01 -8.5714287E-01 0.0000000E+00
endloop
endfacet
facet normal 0.0000000E+00 0.0000000E+00 9.9999994E-01
outer loop
vertex 5.7142860E-01 -8.5714287E-01 0.0000000E+00
vertex 5.7142860E-01 -1.0000000E+00 0.0000000E+00
vertex 7.1428573E-01 -1.0000000E+00 0.0000000E+00
endloop
endfacet
facet normal 0.0000000E+00 0.0000000E+00 1.0000000E+00
outer loop
vertex 4.2857143E-01 -8.5714287E-01 0.0000000E+00
vertex 4.2857143E-01 -1.0000000E+00 0.0000000E+00
vertex 5.7142860E-01 -1.0000000E+00 0.0000000E+00
endloop
endfacet
facet normal 0.0000000E+00 0.0000000E+00 9.9999994E-01
outer loop
vertex 8.5714287E-01 -1.0000000E+00 0.0000000E+00
vertex 7.1428573E-01 -8.5714287E-01 0.0000000E+00
vertex 7.1428573E-01 -1.0000000E+00 0.0000000E+00
endloop
endfacet
facet normal 0.0000000E+00 0.0000000E+00 1.0000000E+00
outer loop
vertex 4.2857143E-01 -7.1428573E-01 0.0000000E+00
vertex 4.2857143E-01 -8.5714287E-01 0.0000000E+00
vertex 5.7142860E-01 -8.5714287E-01 0.0000000E+00
endloop
endfacet
facet normal 0.0000000E+00 0.0000000E+00 9.9999994E-01
outer loop
vertex 7.1428573E-01 -8.5714287E-01 0.0000000E+00
vertex 5.7142860E-01 -7.1428573E-01 0.0000000E+00
vertex 5.7142860E-01 -8.5714287E-01 0.0000000E+00
endloop
endfacet
facet normal 0.0000000E+00 0.0000000E+00 9.9999994E-01
outer loop
vertex 7.1428573E-01 -7.1428573E-01 0.0000000E+00
vertex 5.7142860E-01 -5.7142860E-01 0.0000000E+00
vertex 5.7142860E-01 -7.1428573E-01 0.0000000E+00
endloop
endfacet
facet normal 0.0000000E+00 -0.0000000E+00 9.9999994E-01
outer loop
vertex 7.1428573E-01 -1.0000000E+00 0.0000000E+00
vertex 7.1428573E-01 -8.5714287E-01 0.0000000E+00
vertex 5.7142860E-01 -8.5714287E-01 0.0000000E+00
endloop
endfacet
facet normal 0.0000000E+00 -0.0000000E+00 9.9999994E-01
outer loop
vertex 7.1428573E-01 -7.1428573E-01 0.0000000E+00
vertex 7.1428573E-01 -5.7142860E-01 0.0000000E+00
vertex 5.7142860E-01 -5.7142860E-01 0.0000000E+00
endloop
endfacet
facet normal 0.0000000E+00 0.0000000E+00 9.9999994E-01
outer loop
vertex 8.5714287E-01 -8.5714287E-01 0.0000000E+00
vertex 7.1428573E-01 -7.1428573E-01 0.0000000E+00
vertex 7.1428573E-01 -8.5714287E-01 0.0000000E+00
endloop
endfacet
facet normal 0.0000000E+00 -0.0000000E+00 9.9999994E-01
outer loop
vertex 8.5714287E-01 -8.5714287E-01 0.0000000E+00
vertex 8.5714287E-01 -7.1428573E-01 0.0000000E+00
vertex 7.1428573E-01 -7.1428573E-01 0.0000000E+00
endloop
endfacet
facet normal 0.0000000E+00 0.0000000E+00 9.9999994E-01
outer loop
vertex 8.5714287E-01 -5.7142860E-01 0.0000000E+00
vertex 8.5714287E-01 -7.1428573E-01 0.0000000E+00
vertex 1.0000000E+00 -7.1428573E-01 0.0000000E+00
endloop
endfacet
facet normal 0.0000000E+00 0.0000000E+00 9.9999994E-01
outer loop
vertex 8.5714287E-01 -5.7142860E-01 0.0000000E+00
vertex 7.1428573E-01 -5.7142860E-01 0.0000000E+00
vertex 8.5714287E-01 -7.1428573E-01 0.0000000E+00
endloop
endfacet
facet normal 0.0000000E+00 0.0000000E+00 9.9999994E-01
outer loop
vertex 1.0000000E+00 -5.7142860E-01 0.0000000E+00
vertex 8.5714287E-01 -5.7142860E-01 0.0000000E+00
vertex 1.0000000E+00 -7.1428573E-01 0.0000000E+00
endloop
endfacet
facet normal 0.0000000E+00 0.0000000E+00 1.0000000E+00
outer loop
vertex 1.0000000E+00 -4.2857143E-01 0.0000000E+00
vertex 8.5714287E-01 -4.2857143E-01 0.0000000E+00
vertex 1.0000000E+00 -5.7142860E-01 0.0000000E+00
endloop
endfacet
facet normal 0.0000000E+00 0.0000000E+00 9.9999994E-01
outer loop
vertex 1.0000000E+00 -1.0000000E+00 0.0000000E+00
vertex 8.5714287E-01 -8.5714287E-01 0.0000000E+00
vertex 8.5714287E-01 -1.0000000E+00 0.0000000E+00
endloop
endfacet
facet normal 0.0000000E+00 0.0000000E+00 9.9999994E-01
outer loop
vertex 1.0000000E+00 -8.5714287E-01 0.0000000E+00
vertex 8.5714287E-01 -8.5714287E-01 0.0000000E+00
vertex 1.0000000E+00 -1.0000000E+00 0.0000000E+00
endloop
endfacet
facet normal 0.0000000E+00 0.0000000E+00 9.9999994E-01
outer loop
vertex 1.0000000E+00 -7.1428573E-01 0.0000000E+00
vertex 8.5714287E-01 -7.1428573E-01 0.0000000E+00
vertex 1.0000000E+00 -8.5714287E-01 0.0000000E+00
endloop
endfacet
endsolid Created by stlwrite.m 05-Apr-2019 11:11:19
