solid STL generated by MeshLab
  facet normal -1.000000e+000 2.575530e-023 6.123237e-017
    outer loop
      vertex  -3.698397e-017 5.741391e-001 -6.039940e-001
      vertex  -3.323755e-017 6.322984e-001 -5.428104e-001
      vertex  -4.438076e-017 6.889669e-001 -7.247928e-001
    endloop
  endfacet
  facet normal -1.000000e+000 0.000000e+000 6.123232e-017
    outer loop
      vertex  -3.323755e-017 6.322984e-001 -5.428104e-001
      vertex  -2.834831e-017 4.629630e-001 -4.629630e-001
      vertex  -2.834831e-017 6.481481e-001 -4.629630e-001
    endloop
  endfacet
  facet normal -1.000000e+000 0.000000e+000 6.123237e-017
    outer loop
      vertex  1.700898e-017 6.481481e-001 2.777778e-001
      vertex  1.700898e-017 4.629630e-001 2.777778e-001
      vertex  2.834831e-017 4.629630e-001 4.629630e-001
    endloop
  endfacet
  facet normal -1.000000e+000 7.358646e-024 6.123238e-017
    outer loop
      vertex  -2.915007e-017 6.839696e-001 -4.760568e-001
      vertex  -3.498009e-017 8.207635e-001 -5.712682e-001
      vertex  -3.323755e-017 6.322984e-001 -5.428104e-001
    endloop
  endfacet
  facet normal -1.000000e+000 0.000000e+000 6.123222e-017
    outer loop
      vertex  -3.968763e-017 4.629630e-001 -6.481481e-001
      vertex  -4.330373e-017 4.408033e-001 -7.072036e-001
      vertex  -3.968763e-017 2.777778e-001 -6.481481e-001
    endloop
  endfacet
  facet normal -1.000000e+000 -3.324217e-023 6.123232e-017
    outer loop
      vertex  -1.700898e-017 6.481481e-001 -2.777778e-001
      vertex  -5.669661e-018 6.481481e-001 -9.259259e-002
      vertex  -1.527559e-017 7.951161e-001 -2.494693e-001
    endloop
  endfacet
  facet normal -1.000000e+000 0.000000e+000 6.123234e-017
    outer loop
      vertex  -5.669661e-018 6.481481e-001 -9.259259e-002
      vertex  -5.669661e-018 4.629630e-001 -9.259259e-002
      vertex  5.669661e-018 4.629630e-001 9.259259e-002
    endloop
  endfacet
  facet normal -1.000000e+000 0.000000e+000 6.123236e-017
    outer loop
      vertex  -3.968763e-017 4.629630e-001 -6.481481e-001
      vertex  -2.834831e-017 2.777778e-001 -4.629630e-001
      vertex  -2.834831e-017 4.629630e-001 -4.629630e-001
    endloop
  endfacet
  facet normal -1.000000e+000 3.109489e-023 6.123236e-017
    outer loop
      vertex  -1.700898e-017 -6.481481e-001 -2.777778e-001
      vertex  -2.476348e-017 -7.286222e-001 -4.044183e-001
      vertex  -2.012278e-017 -7.657982e-001 -3.286299e-001
    endloop
  endfacet
  facet normal -1.000000e+000 0.000000e+000 6.123236e-017
    outer loop
      vertex  -2.834831e-017 -2.777778e-001 -4.629630e-001
      vertex  -2.834831e-017 -4.629630e-001 -4.629630e-001
      vertex  -1.700898e-017 -4.629630e-001 -2.777778e-001
    endloop
  endfacet
  facet normal -1.000000e+000 0.000000e+000 6.123234e-017
    outer loop
      vertex  5.669661e-018 4.629630e-001 9.259259e-002
      vertex  -5.669661e-018 4.629630e-001 -9.259259e-002
      vertex  5.669661e-018 2.777778e-001 9.259259e-002
    endloop
  endfacet
  facet normal -1.000000e+000 0.000000e+000 6.123232e-017
    outer loop
      vertex  -5.669661e-018 2.777778e-001 -9.259259e-002
      vertex  -1.700898e-017 4.629630e-001 -2.777778e-001
      vertex  -1.700898e-017 2.777778e-001 -2.777778e-001
    endloop
  endfacet
  facet normal -1.000000e+000 0.000000e+000 6.123232e-017
    outer loop
      vertex  1.700898e-017 -9.259259e-002 2.777778e-001
      vertex  1.700898e-017 9.259259e-002 2.777778e-001
      vertex  5.669661e-018 9.259259e-002 9.259259e-002
    endloop
  endfacet
  facet normal -1.000000e+000 0.000000e+000 6.123237e-017
    outer loop
      vertex  2.834831e-017 -6.481481e-001 4.629630e-001
      vertex  1.700898e-017 -4.629630e-001 2.777778e-001
      vertex  1.700898e-017 -6.481481e-001 2.777778e-001
    endloop
  endfacet
  facet normal -1.000000e+000 2.081466e-023 6.123236e-017
    outer loop
      vertex  -2.834831e-017 -6.481481e-001 -4.629630e-001
      vertex  -2.476348e-017 -7.286222e-001 -4.044183e-001
      vertex  -1.700898e-017 -6.481481e-001 -2.777778e-001
    endloop
  endfacet
  facet normal -1.000000e+000 0.000000e+000 6.123234e-017
    outer loop
      vertex  -5.669661e-018 9.259259e-002 -9.259259e-002
      vertex  -5.669661e-018 -9.259259e-002 -9.259259e-002
      vertex  5.669661e-018 -9.259259e-002 9.259259e-002
    endloop
  endfacet
  facet normal -1.000000e+000 4.745233e-024 6.123232e-017
    outer loop
      vertex  -6.194773e-018 -9.948694e-001 -1.011683e-001
      vertex  -1.027165e-017 -8.162749e-001 -1.677488e-001
      vertex  -1.833070e-017 -9.541392e-001 -2.993631e-001
    endloop
  endfacet
  facet normal -1.000000e+000 3.828075e-023 6.123234e-017
    outer loop
      vertex  -2.012278e-017 -7.657982e-001 -3.286299e-001
      vertex  -1.527559e-017 -7.951161e-001 -2.494693e-001
      vertex  -1.700898e-017 -6.481481e-001 -2.777778e-001
    endloop
  endfacet
  facet normal -1.000000e+000 0.000000e+000 6.123236e-017
    outer loop
      vertex  1.700898e-017 -4.629630e-001 2.777778e-001
      vertex  2.834831e-017 -4.629630e-001 4.629630e-001
      vertex  1.700898e-017 -2.777778e-001 2.777778e-001
    endloop
  endfacet
  facet normal -1.000000e+000 0.000000e+000 6.123232e-017
    outer loop
      vertex  -1.027165e-017 -8.162749e-001 -1.677488e-001
      vertex  -5.162311e-018 -8.290578e-001 -8.430693e-002
      vertex  -5.669661e-018 -6.481481e-001 -9.259259e-002
    endloop
  endfacet
  facet normal -1.000000e+000 0.000000e+000 6.123236e-017
    outer loop
      vertex  -1.700898e-017 2.777778e-001 -2.777778e-001
      vertex  -1.700898e-017 4.629630e-001 -2.777778e-001
      vertex  -2.834831e-017 4.629630e-001 -4.629630e-001
    endloop
  endfacet
  facet normal -1.000000e+000 0.000000e+000 6.123232e-017
    outer loop
      vertex  -5.669661e-018 -9.259259e-002 -9.259259e-002
      vertex  -5.669661e-018 9.259259e-002 -9.259259e-002
      vertex  -1.700898e-017 9.259259e-002 -2.777778e-001
    endloop
  endfacet
  facet normal -1.000000e+000 1.287766e-022 6.123239e-017
    outer loop
      vertex  -4.581223e-017 3.669951e-001 -7.481704e-001
      vertex  -4.330373e-017 4.408033e-001 -7.072036e-001
      vertex  -5.196447e-017 5.289640e-001 -8.486443e-001
    endloop
  endfacet
  facet normal -1.000000e+000 -1.011129e-022 6.123230e-017
    outer loop
      vertex  -3.323755e-017 -6.322984e-001 -5.428104e-001
      vertex  -2.915007e-017 -6.839696e-001 -4.760568e-001
      vertex  -2.834831e-017 -6.481481e-001 -4.629630e-001
    endloop
  endfacet
  facet normal -1.000000e+000 0.000000e+000 6.123235e-017
    outer loop
      vertex  -2.834831e-017 -4.629630e-001 -4.629630e-001
      vertex  -3.968763e-017 -4.629630e-001 -6.481481e-001
      vertex  -3.698397e-017 -5.741391e-001 -6.039940e-001
    endloop
  endfacet
  facet normal -1.000000e+000 2.471478e-023 6.123234e-017
    outer loop
      vertex  -2.915007e-017 -6.839696e-001 -4.760568e-001
      vertex  -3.988506e-017 -7.587581e-001 -6.513725e-001
      vertex  -2.971618e-017 -8.743466e-001 -4.853020e-001
    endloop
  endfacet
  facet normal -1.000000e+000 6.852617e-024 6.123229e-017
    outer loop
      vertex  -5.043852e-017 -1.261898e-001 -8.237236e-001
      vertex  -4.939802e-017 -2.088771e-001 -8.067309e-001
      vertex  -3.968763e-017 -9.259259e-002 -6.481481e-001
    endloop
  endfacet
  facet normal -1.000000e+000 0.000000e+000 6.123232e-017
    outer loop
      vertex  -5.669661e-018 -6.481481e-001 -9.259259e-002
      vertex  -5.669661e-018 -4.629630e-001 -9.259259e-002
      vertex  -1.700898e-017 -4.629630e-001 -2.777778e-001
    endloop
  endfacet
  facet normal -1.000000e+000 0.000000e+000 6.123235e-017
    outer loop
      vertex  -3.968763e-017 2.777778e-001 -6.481481e-001
      vertex  -3.968763e-017 9.259259e-002 -6.481481e-001
      vertex  -2.834831e-017 9.259259e-002 -4.629630e-001
    endloop
  endfacet
  facet normal -1.000000e+000 1.022960e-022 6.123209e-017
    outer loop
      vertex  -3.698397e-017 5.741391e-001 -6.039940e-001
      vertex  -4.035087e-017 5.100883e-001 -6.589798e-001
      vertex  -3.968763e-017 4.629630e-001 -6.481481e-001
    endloop
  endfacet
  facet normal -1.000000e+000 2.207593e-023 6.123232e-017
    outer loop
      vertex  -5.196447e-017 5.289640e-001 -8.486443e-001
      vertex  -4.330373e-017 4.408033e-001 -7.072036e-001
      vertex  -4.035087e-017 5.100883e-001 -6.589798e-001
    endloop
  endfacet
  facet normal -1.000000e+000 -6.254858e-023 6.123228e-017
    outer loop
      vertex  -4.035087e-017 5.100883e-001 -6.589798e-001
      vertex  -3.698397e-017 5.741391e-001 -6.039940e-001
      vertex  -4.438076e-017 6.889669e-001 -7.247928e-001
    endloop
  endfacet
  facet normal -1.000000e+000 2.067342e-023 6.123238e-017
    outer loop
      vertex  -2.834831e-017 4.629630e-001 -4.629630e-001
      vertex  -3.323755e-017 6.322984e-001 -5.428104e-001
      vertex  -3.698397e-017 5.741391e-001 -6.039940e-001
    endloop
  endfacet
  facet normal -1.000000e+000 0.000000e+000 6.123236e-017
    outer loop
      vertex  -3.968763e-017 -2.777778e-001 -6.481481e-001
      vertex  -3.968763e-017 -4.629630e-001 -6.481481e-001
      vertex  -2.834831e-017 -4.629630e-001 -4.629630e-001
    endloop
  endfacet
  facet normal -1.000000e+000 0.000000e+000 6.123237e-017
    outer loop
      vertex  -2.834831e-017 -4.629630e-001 -4.629630e-001
      vertex  -2.834831e-017 -6.481481e-001 -4.629630e-001
      vertex  -1.700898e-017 -6.481481e-001 -2.777778e-001
    endloop
  endfacet
  facet normal -1.000000e+000 0.000000e+000 6.123235e-017
    outer loop
      vertex  -2.834831e-017 9.259259e-002 -4.629630e-001
      vertex  -2.834831e-017 2.777778e-001 -4.629630e-001
      vertex  -3.968763e-017 2.777778e-001 -6.481481e-001
    endloop
  endfacet
  facet normal -1.000000e+000 0.000000e+000 6.123235e-017
    outer loop
      vertex  -2.834831e-017 4.629630e-001 -4.629630e-001
      vertex  -3.698397e-017 5.741391e-001 -6.039940e-001
      vertex  -3.968763e-017 4.629630e-001 -6.481481e-001
    endloop
  endfacet
  facet normal -1.000000e+000 0.000000e+000 6.123234e-017
    outer loop
      vertex  -5.669661e-018 2.777778e-001 -9.259259e-002
      vertex  -5.669661e-018 9.259259e-002 -9.259259e-002
      vertex  5.669661e-018 9.259259e-002 9.259259e-002
    endloop
  endfacet
  facet normal -1.000000e+000 0.000000e+000 6.123237e-017
    outer loop
      vertex  -1.700898e-017 9.259259e-002 -2.777778e-001
      vertex  -2.834831e-017 9.259259e-002 -4.629630e-001
      vertex  -1.700898e-017 -9.259259e-002 -2.777778e-001
    endloop
  endfacet
  facet normal -1.000000e+000 -3.828075e-023 6.123234e-017
    outer loop
      vertex  -1.527559e-017 7.951161e-001 -2.494693e-001
      vertex  -2.012278e-017 7.657982e-001 -3.286299e-001
      vertex  -1.700898e-017 6.481481e-001 -2.777778e-001
    endloop
  endfacet
  facet normal -1.000000e+000 -3.203034e-023 6.123234e-017
    outer loop
      vertex  2.414733e-017 9.189578e-001 3.943559e-001
      vertex  2.476348e-017 7.286222e-001 4.044183e-001
      vertex  3.498009e-017 8.207635e-001 5.712682e-001
    endloop
  endfacet
  facet normal -1.000000e+000 -1.686239e-023 6.123236e-017
    outer loop
      vertex  5.669661e-018 6.481481e-001 9.259259e-002
      vertex  1.527559e-017 7.951161e-001 2.494693e-001
      vertex  1.027165e-017 8.162749e-001 1.677488e-001
    endloop
  endfacet
  facet normal -1.000000e+000 0.000000e+000 6.123232e-017
    outer loop
      vertex  5.669661e-018 6.481481e-001 9.259259e-002
      vertex  1.700898e-017 4.629630e-001 2.777778e-001
      vertex  1.700898e-017 6.481481e-001 2.777778e-001
    endloop
  endfacet
  facet normal -1.000000e+000 0.000000e+000 6.123232e-017
    outer loop
      vertex  1.700898e-017 9.259259e-002 2.777778e-001
      vertex  5.669661e-018 2.777778e-001 9.259259e-002
      vertex  5.669661e-018 9.259259e-002 9.259259e-002
    endloop
  endfacet
  facet normal -1.000000e+000 -3.311395e-023 6.123232e-017
    outer loop
      vertex  2.012278e-017 7.657982e-001 3.286299e-001
      vertex  2.476348e-017 7.286222e-001 4.044183e-001
      vertex  2.414733e-017 9.189578e-001 3.943559e-001
    endloop
  endfacet
  facet normal -1.000000e+000 4.415194e-023 6.123230e-017
    outer loop
      vertex  2.476348e-017 7.286222e-001 4.044183e-001
      vertex  2.915007e-017 6.839696e-001 4.760568e-001
      vertex  3.498009e-017 8.207635e-001 5.712682e-001
    endloop
  endfacet
  facet normal -1.000000e+000 2.511094e-024 6.123235e-017
    outer loop
      vertex  3.968763e-017 4.629630e-001 6.481481e-001
      vertex  3.698397e-017 5.741391e-001 6.039940e-001
      vertex  2.834831e-017 4.629630e-001 4.629630e-001
    endloop
  endfacet
  facet normal -1.000000e+000 0.000000e+000 6.123232e-017
    outer loop
      vertex  1.700898e-017 2.777778e-001 2.777778e-001
      vertex  5.669661e-018 2.777778e-001 9.259259e-002
      vertex  1.700898e-017 9.259259e-002 2.777778e-001
    endloop
  endfacet
  facet normal -1.000000e+000 -1.197113e-022 6.123216e-017
    outer loop
      vertex  4.035087e-017 5.100883e-001 6.589798e-001
      vertex  3.968763e-017 4.629630e-001 6.481481e-001
      vertex  4.330373e-017 4.408033e-001 7.072036e-001
    endloop
  endfacet
  facet normal -1.000000e+000 0.000000e+000 6.123235e-017
    outer loop
      vertex  3.968763e-017 2.777778e-001 6.481481e-001
      vertex  2.834831e-017 2.777778e-001 4.629630e-001
      vertex  3.968763e-017 9.259259e-002 6.481481e-001
    endloop
  endfacet
  facet normal -1.000000e+000 0.000000e+000 6.123222e-017
    outer loop
      vertex  4.330373e-017 -4.408033e-001 7.072036e-001
      vertex  3.968763e-017 -2.777778e-001 6.481481e-001
      vertex  3.968763e-017 -4.629630e-001 6.481481e-001
    endloop
  endfacet
  facet normal -1.000000e+000 3.403379e-023 6.123236e-017
    outer loop
      vertex  5.096146e-017 -4.220764e-002 8.322638e-001
      vertex  5.043852e-017 -1.261898e-001 8.237236e-001
      vertex  6.115375e-017 -5.064917e-002 9.987165e-001
    endloop
  endfacet
  facet normal -1.000000e+000 -6.070884e-023 6.123236e-017
    outer loop
      vertex  4.939802e-017 -2.088771e-001 8.067309e-001
      vertex  4.785063e-017 -2.894211e-001 7.814601e-001
      vertex  5.927763e-017 -2.506525e-001 9.680771e-001
    endloop
  endfacet
  facet normal -1.000000e+000 -2.360735e-023 6.123238e-017
    outer loop
      vertex  -1.527559e-017 -7.951161e-001 -2.494693e-001
      vertex  -1.027165e-017 -8.162749e-001 -1.677488e-001
      vertex  -5.669661e-018 -6.481481e-001 -9.259259e-002
    endloop
  endfacet
  facet normal -1.000000e+000 0.000000e+000 6.123236e-017
    outer loop
      vertex  2.834831e-017 -2.777778e-001 4.629630e-001
      vertex  1.700898e-017 -2.777778e-001 2.777778e-001
      vertex  2.834831e-017 -4.629630e-001 4.629630e-001
    endloop
  endfacet
  facet normal -1.000000e+000 1.692490e-022 6.123231e-017
    outer loop
      vertex  4.581223e-017 -3.669951e-001 7.481704e-001
      vertex  4.330373e-017 -4.408033e-001 7.072036e-001
      vertex  5.497467e-017 -4.403942e-001 8.978046e-001
    endloop
  endfacet
  facet normal -1.000000e+000 0.000000e+000 6.123234e-017
    outer loop
      vertex  5.669661e-018 -4.629630e-001 9.259259e-002
      vertex  -5.669661e-018 -4.629630e-001 -9.259259e-002
      vertex  5.669661e-018 -6.481481e-001 9.259259e-002
    endloop
  endfacet
  facet normal -1.000000e+000 -3.828075e-023 6.123234e-017
    outer loop
      vertex  1.527559e-017 -7.951161e-001 2.494693e-001
      vertex  2.012278e-017 -7.657982e-001 3.286299e-001
      vertex  1.700898e-017 -6.481481e-001 2.777778e-001
    endloop
  endfacet
  facet normal -1.000000e+000 0.000000e+000 6.123234e-017
    outer loop
      vertex  5.669661e-018 -6.481481e-001 9.259259e-002
      vertex  -5.669661e-018 -6.481481e-001 -9.259259e-002
      vertex  8.445293e-033 -8.333333e-001 1.379221e-016
    endloop
  endfacet
  facet normal -1.000000e+000 1.032194e-022 6.123230e-017
    outer loop
      vertex  2.834831e-017 -6.481481e-001 4.629630e-001
      vertex  2.915007e-017 -6.839696e-001 4.760568e-001
      vertex  3.323755e-017 -6.322984e-001 5.428104e-001
    endloop
  endfacet
  facet normal -1.000000e+000 0.000000e+000 6.123232e-017
    outer loop
      vertex  2.834831e-017 -4.629630e-001 4.629630e-001
      vertex  2.834831e-017 -6.481481e-001 4.629630e-001
      vertex  3.323755e-017 -6.322984e-001 5.428104e-001
    endloop
  endfacet
  facet normal -1.000000e+000 -8.830383e-023 6.123231e-017
    outer loop
      vertex  4.035087e-017 -5.100883e-001 6.589798e-001
      vertex  3.698397e-017 -5.741391e-001 6.039940e-001
      vertex  4.842105e-017 -6.121060e-001 7.907757e-001
    endloop
  endfacet
  facet normal -1.000000e+000 -7.793693e-023 6.123222e-017
    outer loop
      vertex  -2.915007e-017 -6.839696e-001 -4.760568e-001
      vertex  -2.476348e-017 -7.286222e-001 -4.044183e-001
      vertex  -2.834831e-017 -6.481481e-001 -4.629630e-001
    endloop
  endfacet
  facet normal -1.000000e+000 -1.197113e-022 6.123217e-017
    outer loop
      vertex  -4.330373e-017 -4.408033e-001 -7.072036e-001
      vertex  -4.035087e-017 -5.100883e-001 -6.589798e-001
      vertex  -3.968763e-017 -4.629630e-001 -6.481481e-001
    endloop
  endfacet
  facet normal -1.000000e+000 -1.898095e-023 6.123233e-017
    outer loop
      vertex  -4.842105e-017 -6.121060e-001 -7.907757e-001
      vertex  -3.988506e-017 -7.587581e-001 -6.513725e-001
      vertex  -3.698397e-017 -5.741391e-001 -6.039940e-001
    endloop
  endfacet
  facet normal -1.000000e+000 0.000000e+000 6.123230e-017
    outer loop
      vertex  -3.968763e-017 -9.259259e-002 -6.481481e-001
      vertex  -4.939802e-017 -2.088771e-001 -8.067309e-001
      vertex  -3.968763e-017 -2.777778e-001 -6.481481e-001
    endloop
  endfacet
  facet normal -1.000000e+000 -1.022960e-022 6.123208e-017
    outer loop
      vertex  -4.035087e-017 -5.100883e-001 -6.589798e-001
      vertex  -3.698397e-017 -5.741391e-001 -6.039940e-001
      vertex  -3.968763e-017 -4.629630e-001 -6.481481e-001
    endloop
  endfacet
  facet normal -1.000000e+000 -2.067342e-023 6.123238e-017
    outer loop
      vertex  -2.834831e-017 -4.629630e-001 -4.629630e-001
      vertex  -3.698397e-017 -5.741391e-001 -6.039940e-001
      vertex  -3.323755e-017 -6.322984e-001 -5.428104e-001
    endloop
  endfacet
  facet normal -1.000000e+000 8.830383e-023 6.123231e-017
    outer loop
      vertex  -4.035087e-017 -5.100883e-001 -6.589798e-001
      vertex  -4.842105e-017 -6.121060e-001 -7.907757e-001
      vertex  -3.698397e-017 -5.741391e-001 -6.039940e-001
    endloop
  endfacet
  facet normal -1.000000e+000 0.000000e+000 6.123232e-017
    outer loop
      vertex  -2.834831e-017 -4.629630e-001 -4.629630e-001
      vertex  -3.323755e-017 -6.322984e-001 -5.428104e-001
      vertex  -2.834831e-017 -6.481481e-001 -4.629630e-001
    endloop
  endfacet
  facet normal -1.000000e+000 -2.759494e-023 6.123237e-017
    outer loop
      vertex  -3.698397e-017 -5.741391e-001 -6.039940e-001
      vertex  -3.988506e-017 -7.587581e-001 -6.513725e-001
      vertex  -3.323755e-017 -6.322984e-001 -5.428104e-001
    endloop
  endfacet
  facet normal -1.000000e+000 -3.127430e-023 6.123232e-017
    outer loop
      vertex  -1.833070e-017 -9.541392e-001 -2.993631e-001
      vertex  -1.527559e-017 -7.951161e-001 -2.494693e-001
      vertex  -2.012278e-017 -7.657982e-001 -3.286299e-001
    endloop
  endfacet
  facet normal -1.000000e+000 -2.943458e-023 6.123236e-017
    outer loop
      vertex  -3.988506e-017 -7.587581e-001 -6.513725e-001
      vertex  -2.915007e-017 -6.839696e-001 -4.760568e-001
      vertex  -3.323755e-017 -6.322984e-001 -5.428104e-001
    endloop
  endfacet
  facet normal -1.000000e+000 2.713504e-023 6.123230e-017
    outer loop
      vertex  -2.971618e-017 -8.743466e-001 -4.853020e-001
      vertex  -2.476348e-017 -7.286222e-001 -4.044183e-001
      vertex  -2.915007e-017 -6.839696e-001 -4.760568e-001
    endloop
  endfacet
  facet normal -1.000000e+000 0.000000e+000 6.123235e-017
    outer loop
      vertex  -2.971618e-017 -8.743466e-001 -4.853020e-001
      vertex  -2.012278e-017 -7.657982e-001 -3.286299e-001
      vertex  -2.476348e-017 -7.286222e-001 -4.044183e-001
    endloop
  endfacet
  facet normal -1.000000e+000 -2.530793e-023 6.123236e-017
    outer loop
      vertex  -2.971618e-017 -8.743466e-001 -4.853020e-001
      vertex  -1.833070e-017 -9.541392e-001 -2.993631e-001
      vertex  -2.012278e-017 -7.657982e-001 -3.286299e-001
    endloop
  endfacet
  facet normal -1.000000e+000 -4.415199e-023 6.123236e-017
    outer loop
      vertex  -1.833070e-017 -9.541392e-001 -2.993631e-001
      vertex  -1.027165e-017 -8.162749e-001 -1.677488e-001
      vertex  -1.527559e-017 -7.951161e-001 -2.494693e-001
    endloop
  endfacet
  facet normal -1.000000e+000 8.493862e-025 6.123235e-017
    outer loop
      vertex  -5.162311e-018 -8.290578e-001 -8.430693e-002
      vertex  8.445293e-033 -8.333333e-001 1.379221e-016
      vertex  -5.669661e-018 -6.481481e-001 -9.259259e-002
    endloop
  endfacet
  facet normal -1.000000e+000 9.198309e-024 6.123232e-017
    outer loop
      vertex  -6.194773e-018 -9.948694e-001 -1.011683e-001
      vertex  -5.162311e-018 -8.290578e-001 -8.430693e-002
      vertex  -1.027165e-017 -8.162749e-001 -1.677488e-001
    endloop
  endfacet
  facet normal -1.000000e+000 7.358652e-024 6.123234e-017
    outer loop
      vertex  -6.194773e-018 -9.948694e-001 -1.011683e-001
      vertex  8.445293e-033 -8.333333e-001 1.379221e-016
      vertex  -5.162311e-018 -8.290578e-001 -8.430693e-002
    endloop
  endfacet
  facet normal -1.000000e+000 0.000000e+000 6.123234e-017
    outer loop
      vertex  5.669661e-018 -2.777778e-001 9.259259e-002
      vertex  -5.669661e-018 -2.777778e-001 -9.259259e-002
      vertex  5.669661e-018 -4.629630e-001 9.259259e-002
    endloop
  endfacet
  facet normal -1.000000e+000 3.324217e-023 6.123232e-017
    outer loop
      vertex  -1.700898e-017 -6.481481e-001 -2.777778e-001
      vertex  -1.527559e-017 -7.951161e-001 -2.494693e-001
      vertex  -5.669661e-018 -6.481481e-001 -9.259259e-002
    endloop
  endfacet
  facet normal -1.000000e+000 0.000000e+000 6.123234e-017
    outer loop
      vertex  -5.669661e-018 -2.777778e-001 -9.259259e-002
      vertex  -5.669661e-018 -4.629630e-001 -9.259259e-002
      vertex  5.669661e-018 -4.629630e-001 9.259259e-002
    endloop
  endfacet
  facet normal -1.000000e+000 0.000000e+000 6.123236e-017
    outer loop
      vertex  -1.700898e-017 -2.777778e-001 -2.777778e-001
      vertex  -2.834831e-017 -2.777778e-001 -4.629630e-001
      vertex  -1.700898e-017 -4.629630e-001 -2.777778e-001
    endloop
  endfacet
  facet normal -1.000000e+000 0.000000e+000 6.123237e-017
    outer loop
      vertex  -1.700898e-017 -4.629630e-001 -2.777778e-001
      vertex  -2.834831e-017 -4.629630e-001 -4.629630e-001
      vertex  -1.700898e-017 -6.481481e-001 -2.777778e-001
    endloop
  endfacet
  facet normal -1.000000e+000 0.000000e+000 6.123235e-017
    outer loop
      vertex  -2.834831e-017 -2.777778e-001 -4.629630e-001
      vertex  -2.834831e-017 -9.259259e-002 -4.629630e-001
      vertex  -3.968763e-017 -9.259259e-002 -6.481481e-001
    endloop
  endfacet
  facet normal -1.000000e+000 0.000000e+000 6.123232e-017
    outer loop
      vertex  -5.669661e-018 -6.481481e-001 -9.259259e-002
      vertex  -1.700898e-017 -4.629630e-001 -2.777778e-001
      vertex  -1.700898e-017 -6.481481e-001 -2.777778e-001
    endloop
  endfacet
  facet normal -1.000000e+000 0.000000e+000 6.123232e-017
    outer loop
      vertex  -5.669661e-018 -4.629630e-001 -9.259259e-002
      vertex  -5.669661e-018 -2.777778e-001 -9.259259e-002
      vertex  -1.700898e-017 -2.777778e-001 -2.777778e-001
    endloop
  endfacet
  facet normal -1.000000e+000 4.686377e-023 6.123231e-017
    outer loop
      vertex  -4.939802e-017 -2.088771e-001 -8.067309e-001
      vertex  -4.785063e-017 -2.894211e-001 -7.814601e-001
      vertex  -3.968763e-017 -2.777778e-001 -6.481481e-001
    endloop
  endfacet
  facet normal -1.000000e+000 1.471729e-023 6.123236e-017
    outer loop
      vertex  -4.842105e-017 -6.121060e-001 -7.907757e-001
      vertex  -4.035087e-017 -5.100883e-001 -6.589798e-001
      vertex  -4.330373e-017 -4.408033e-001 -7.072036e-001
    endloop
  endfacet
  facet normal -1.000000e+000 0.000000e+000 6.123232e-017
    outer loop
      vertex  -5.669661e-018 -4.629630e-001 -9.259259e-002
      vertex  -1.700898e-017 -2.777778e-001 -2.777778e-001
      vertex  -1.700898e-017 -4.629630e-001 -2.777778e-001
    endloop
  endfacet
  facet normal -1.000000e+000 0.000000e+000 6.123235e-017
    outer loop
      vertex  -2.834831e-017 -2.777778e-001 -4.629630e-001
      vertex  -3.968763e-017 -9.259259e-002 -6.481481e-001
      vertex  -3.968763e-017 -2.777778e-001 -6.481481e-001
    endloop
  endfacet
  facet normal -1.000000e+000 0.000000e+000 6.123234e-017
    outer loop
      vertex  5.669661e-018 -2.777778e-001 9.259259e-002
      vertex  -5.669661e-018 -9.259259e-002 -9.259259e-002
      vertex  -5.669661e-018 -2.777778e-001 -9.259259e-002
    endloop
  endfacet
  facet normal -1.000000e+000 0.000000e+000 6.123232e-017
    outer loop
      vertex  -1.700898e-017 -9.259259e-002 -2.777778e-001
      vertex  -1.700898e-017 -2.777778e-001 -2.777778e-001
      vertex  -5.669661e-018 -2.777778e-001 -9.259259e-002
    endloop
  endfacet
  facet normal -1.000000e+000 0.000000e+000 6.123237e-017
    outer loop
      vertex  -1.700898e-017 -9.259259e-002 -2.777778e-001
      vertex  -2.834831e-017 -9.259259e-002 -4.629630e-001
      vertex  -1.700898e-017 -2.777778e-001 -2.777778e-001
    endloop
  endfacet
  facet normal -1.000000e+000 0.000000e+000 6.123232e-017
    outer loop
      vertex  -1.700898e-017 9.259259e-002 -2.777778e-001
      vertex  -5.669661e-018 9.259259e-002 -9.259259e-002
      vertex  -1.700898e-017 2.777778e-001 -2.777778e-001
    endloop
  endfacet
  facet normal -1.000000e+000 0.000000e+000 6.123232e-017
    outer loop
      vertex  -5.669661e-018 -2.777778e-001 -9.259259e-002
      vertex  -5.669661e-018 -9.259259e-002 -9.259259e-002
      vertex  -1.700898e-017 -9.259259e-002 -2.777778e-001
    endloop
  endfacet
  facet normal -1.000000e+000 0.000000e+000 6.123234e-017
    outer loop
      vertex  -5.669661e-018 -9.259259e-002 -9.259259e-002
      vertex  5.669661e-018 -2.777778e-001 9.259259e-002
      vertex  5.669661e-018 -9.259259e-002 9.259259e-002
    endloop
  endfacet
  facet normal -1.000000e+000 0.000000e+000 6.123231e-017
    outer loop
      vertex  -5.096146e-017 4.220764e-002 -8.322638e-001
      vertex  -5.096146e-017 -4.220764e-002 -8.322638e-001
      vertex  -3.968763e-017 -9.259259e-002 -6.481481e-001
    endloop
  endfacet
  facet normal -1.000000e+000 0.000000e+000 6.123222e-017
    outer loop
      vertex  -4.330373e-017 -4.408033e-001 -7.072036e-001
      vertex  -3.968763e-017 -4.629630e-001 -6.481481e-001
      vertex  -3.968763e-017 -2.777778e-001 -6.481481e-001
    endloop
  endfacet
  facet normal -1.000000e+000 0.000000e+000 6.123237e-017
    outer loop
      vertex  -2.834831e-017 -9.259259e-002 -4.629630e-001
      vertex  -2.834831e-017 -2.777778e-001 -4.629630e-001
      vertex  -1.700898e-017 -2.777778e-001 -2.777778e-001
    endloop
  endfacet
  facet normal -1.000000e+000 0.000000e+000 6.123236e-017
    outer loop
      vertex  -3.968763e-017 -2.777778e-001 -6.481481e-001
      vertex  -2.834831e-017 -4.629630e-001 -4.629630e-001
      vertex  -2.834831e-017 -2.777778e-001 -4.629630e-001
    endloop
  endfacet
  facet normal -1.000000e+000 3.127429e-023 6.123239e-017
    outer loop
      vertex  -5.043852e-017 1.261898e-001 -8.237236e-001
      vertex  -6.052623e-017 1.514278e-001 -9.884683e-001
      vertex  -5.096146e-017 4.220764e-002 -8.322638e-001
    endloop
  endfacet
  facet normal -1.000000e+000 7.468733e-023 6.123231e-017
    outer loop
      vertex  -4.785063e-017 -2.894211e-001 -7.814601e-001
      vertex  -4.581223e-017 -3.669951e-001 -7.481704e-001
      vertex  -3.968763e-017 -2.777778e-001 -6.481481e-001
    endloop
  endfacet
  facet normal -1.000000e+000 7.358646e-023 6.123236e-017
    outer loop
      vertex  -5.927763e-017 -2.506525e-001 -9.680771e-001
      vertex  -4.785063e-017 -2.894211e-001 -7.814601e-001
      vertex  -4.939802e-017 -2.088771e-001 -8.067309e-001
    endloop
  endfacet
  facet normal -1.000000e+000 -8.899529e-023 6.123246e-017
    outer loop
      vertex  -4.581223e-017 -3.669951e-001 -7.481704e-001
      vertex  -4.330373e-017 -4.408033e-001 -7.072036e-001
      vertex  -3.968763e-017 -2.777778e-001 -6.481481e-001
    endloop
  endfacet
  facet normal -1.000000e+000 -5.852455e-023 6.123234e-017
    outer loop
      vertex  -5.927763e-017 -2.506525e-001 -9.680771e-001
      vertex  -5.497467e-017 -4.403942e-001 -8.978046e-001
      vertex  -4.785063e-017 -2.894211e-001 -7.814601e-001
    endloop
  endfacet
  facet normal -1.000000e+000 -1.766077e-022 6.123231e-017
    outer loop
      vertex  -5.497467e-017 -4.403942e-001 -8.978046e-001
      vertex  -4.330373e-017 -4.408033e-001 -7.072036e-001
      vertex  -4.581223e-017 -3.669951e-001 -7.481704e-001
    endloop
  endfacet
  facet normal -1.000000e+000 3.679325e-023 6.123221e-017
    outer loop
      vertex  -5.497467e-017 -4.403942e-001 -8.978046e-001
      vertex  -4.581223e-017 -3.669951e-001 -7.481704e-001
      vertex  -4.785063e-017 -2.894211e-001 -7.814601e-001
    endloop
  endfacet
  facet normal -1.000000e+000 4.270711e-023 6.123231e-017
    outer loop
      vertex  -4.842105e-017 -6.121060e-001 -7.907757e-001
      vertex  -4.330373e-017 -4.408033e-001 -7.072036e-001
      vertex  -5.497467e-017 -4.403942e-001 -8.978046e-001
    endloop
  endfacet
  facet normal -1.000000e+000 2.207596e-023 6.123237e-017
    outer loop
      vertex  -5.927763e-017 -2.506525e-001 -9.680771e-001
      vertex  -4.939802e-017 -2.088771e-001 -8.067309e-001
      vertex  -5.043852e-017 -1.261898e-001 -8.237236e-001
    endloop
  endfacet
  facet normal -1.000000e+000 -4.041081e-023 6.123230e-017
    outer loop
      vertex  -5.096146e-017 -4.220764e-002 -8.322638e-001
      vertex  -5.043852e-017 -1.261898e-001 -8.237236e-001
      vertex  -3.968763e-017 -9.259259e-002 -6.481481e-001
    endloop
  endfacet
  facet normal -1.000000e+000 8.699601e-024 6.123238e-017
    outer loop
      vertex  -6.115375e-017 -5.064917e-002 -9.987165e-001
      vertex  -5.927763e-017 -2.506525e-001 -9.680771e-001
      vertex  -5.043852e-017 -1.261898e-001 -8.237236e-001
    endloop
  endfacet
  facet normal -1.000000e+000 0.000000e+000 6.123236e-017
    outer loop
      vertex  -6.115375e-017 -5.064917e-002 -9.987165e-001
      vertex  -5.096146e-017 -4.220764e-002 -8.322638e-001
      vertex  -5.096146e-017 4.220764e-002 -8.322638e-001
    endloop
  endfacet
  facet normal -1.000000e+000 -2.943463e-023 6.123236e-017
    outer loop
      vertex  -6.115375e-017 -5.064917e-002 -9.987165e-001
      vertex  -5.043852e-017 -1.261898e-001 -8.237236e-001
      vertex  -5.096146e-017 -4.220764e-002 -8.322638e-001
    endloop
  endfacet
  facet normal -1.000000e+000 0.000000e+000 6.123231e-017
    outer loop
      vertex  -3.968763e-017 -9.259259e-002 -6.481481e-001
      vertex  -3.968763e-017 9.259259e-002 -6.481481e-001
      vertex  -5.096146e-017 4.220764e-002 -8.322638e-001
    endloop
  endfacet
  facet normal -1.000000e+000 0.000000e+000 6.123235e-017
    outer loop
      vertex  -3.968763e-017 -9.259259e-002 -6.481481e-001
      vertex  -2.834831e-017 -9.259259e-002 -4.629630e-001
      vertex  -3.968763e-017 9.259259e-002 -6.481481e-001
    endloop
  endfacet
  facet normal -1.000000e+000 0.000000e+000 6.123235e-017
    outer loop
      vertex  -2.834831e-017 -9.259259e-002 -4.629630e-001
      vertex  -2.834831e-017 9.259259e-002 -4.629630e-001
      vertex  -3.968763e-017 9.259259e-002 -6.481481e-001
    endloop
  endfacet
  facet normal -1.000000e+000 0.000000e+000 6.123237e-017
    outer loop
      vertex  -2.834831e-017 -9.259259e-002 -4.629630e-001
      vertex  -1.700898e-017 -9.259259e-002 -2.777778e-001
      vertex  -2.834831e-017 9.259259e-002 -4.629630e-001
    endloop
  endfacet
  facet normal -1.000000e+000 -1.739920e-023 6.123238e-017
    outer loop
      vertex  -6.052623e-017 1.514278e-001 -9.884683e-001
      vertex  -4.939802e-017 2.088771e-001 -8.067309e-001
      vertex  -5.742076e-017 3.473052e-001 -9.377521e-001
    endloop
  endfacet
  facet normal -1.000000e+000 -6.852617e-024 6.123229e-017
    outer loop
      vertex  -5.043852e-017 1.261898e-001 -8.237236e-001
      vertex  -3.968763e-017 9.259259e-002 -6.481481e-001
      vertex  -4.939802e-017 2.088771e-001 -8.067309e-001
    endloop
  endfacet
  facet normal -1.000000e+000 8.899529e-023 6.123246e-017
    outer loop
      vertex  -4.581223e-017 3.669951e-001 -7.481704e-001
      vertex  -3.968763e-017 2.777778e-001 -6.481481e-001
      vertex  -4.330373e-017 4.408033e-001 -7.072036e-001
    endloop
  endfacet
  facet normal -1.000000e+000 0.000000e+000 6.123230e-017
    outer loop
      vertex  -4.939802e-017 2.088771e-001 -8.067309e-001
      vertex  -3.968763e-017 9.259259e-002 -6.481481e-001
      vertex  -3.968763e-017 2.777778e-001 -6.481481e-001
    endloop
  endfacet
  facet normal -1.000000e+000 -7.315576e-024 6.123236e-017
    outer loop
      vertex  -6.115375e-017 -5.064917e-002 -9.987165e-001
      vertex  -5.096146e-017 4.220764e-002 -8.322638e-001
      vertex  -6.052623e-017 1.514278e-001 -9.884683e-001
    endloop
  endfacet
  facet normal -1.000000e+000 4.127061e-023 6.123230e-017
    outer loop
      vertex  -3.968763e-017 9.259259e-002 -6.481481e-001
      vertex  -5.043852e-017 1.261898e-001 -8.237236e-001
      vertex  -5.096146e-017 4.220764e-002 -8.322638e-001
    endloop
  endfacet
  facet normal -1.000000e+000 -2.575529e-023 6.123238e-017
    outer loop
      vertex  -4.939802e-017 2.088771e-001 -8.067309e-001
      vertex  -6.052623e-017 1.514278e-001 -9.884683e-001
      vertex  -5.043852e-017 1.261898e-001 -8.237236e-001
    endloop
  endfacet
  facet normal -1.000000e+000 -5.518986e-023 6.123234e-017
    outer loop
      vertex  -4.939802e-017 2.088771e-001 -8.067309e-001
      vertex  -4.785063e-017 2.894211e-001 -7.814601e-001
      vertex  -5.742076e-017 3.473052e-001 -9.377521e-001
    endloop
  endfacet
  facet normal -1.000000e+000 -4.686377e-023 6.123231e-017
    outer loop
      vertex  -4.939802e-017 2.088771e-001 -8.067309e-001
      vertex  -3.968763e-017 2.777778e-001 -6.481481e-001
      vertex  -4.785063e-017 2.894211e-001 -7.814601e-001
    endloop
  endfacet
  facet normal -1.000000e+000 7.908722e-023 6.123232e-017
    outer loop
      vertex  -4.581223e-017 3.669951e-001 -7.481704e-001
      vertex  -5.196447e-017 5.289640e-001 -8.486443e-001
      vertex  -5.742076e-017 3.473052e-001 -9.377521e-001
    endloop
  endfacet
  facet normal -1.000000e+000 1.011129e-022 6.123230e-017
    outer loop
      vertex  -3.323755e-017 6.322984e-001 -5.428104e-001
      vertex  -2.834831e-017 6.481481e-001 -4.629630e-001
      vertex  -2.915007e-017 6.839696e-001 -4.760568e-001
    endloop
  endfacet
  facet normal -1.000000e+000 -8.094526e-023 6.123232e-017
    outer loop
      vertex  -4.785063e-017 2.894211e-001 -7.814601e-001
      vertex  -4.581223e-017 3.669951e-001 -7.481704e-001
      vertex  -5.742076e-017 3.473052e-001 -9.377521e-001
    endloop
  endfacet
  facet normal -1.000000e+000 -7.468733e-023 6.123231e-017
    outer loop
      vertex  -4.785063e-017 2.894211e-001 -7.814601e-001
      vertex  -3.968763e-017 2.777778e-001 -6.481481e-001
      vertex  -4.581223e-017 3.669951e-001 -7.481704e-001
    endloop
  endfacet
  facet normal -1.000000e+000 -5.219759e-023 6.123231e-017
    outer loop
      vertex  -4.035087e-017 5.100883e-001 -6.589798e-001
      vertex  -4.438076e-017 6.889669e-001 -7.247928e-001
      vertex  -5.196447e-017 5.289640e-001 -8.486443e-001
    endloop
  endfacet
  facet normal -1.000000e+000 3.954360e-024 6.123236e-017
    outer loop
      vertex  -3.323755e-017 6.322984e-001 -5.428104e-001
      vertex  -3.498009e-017 8.207635e-001 -5.712682e-001
      vertex  -4.438076e-017 6.889669e-001 -7.247928e-001
    endloop
  endfacet
  facet normal -1.000000e+000 -1.563712e-023 6.123232e-017
    outer loop
      vertex  -1.027165e-017 8.162749e-001 -1.677488e-001
      vertex  -5.162311e-018 8.290578e-001 -8.430693e-002
      vertex  -1.232598e-017 9.795299e-001 -2.012985e-001
    endloop
  endfacet
  facet normal -1.000000e+000 1.197113e-022 6.123217e-017
    outer loop
      vertex  -4.330373e-017 4.408033e-001 -7.072036e-001
      vertex  -3.968763e-017 4.629630e-001 -6.481481e-001
      vertex  -4.035087e-017 5.100883e-001 -6.589798e-001
    endloop
  endfacet
  facet normal -1.000000e+000 0.000000e+000 6.123236e-017
    outer loop
      vertex  -3.968763e-017 2.777778e-001 -6.481481e-001
      vertex  -2.834831e-017 2.777778e-001 -4.629630e-001
      vertex  -3.968763e-017 4.629630e-001 -6.481481e-001
    endloop
  endfacet
  facet normal -1.000000e+000 -2.081466e-023 6.123236e-017
    outer loop
      vertex  -2.834831e-017 6.481481e-001 -4.629630e-001
      vertex  -1.700898e-017 6.481481e-001 -2.777778e-001
      vertex  -2.476348e-017 7.286222e-001 -4.044183e-001
    endloop
  endfacet
  facet normal -1.000000e+000 -4.415194e-023 6.123230e-017
    outer loop
      vertex  -2.476348e-017 7.286222e-001 -4.044183e-001
      vertex  -3.498009e-017 8.207635e-001 -5.712682e-001
      vertex  -2.915007e-017 6.839696e-001 -4.760568e-001
    endloop
  endfacet
  facet normal -1.000000e+000 0.000000e+000 6.123237e-017
    outer loop
      vertex  -2.834831e-017 6.481481e-001 -4.629630e-001
      vertex  -1.700898e-017 4.629630e-001 -2.777778e-001
      vertex  -1.700898e-017 6.481481e-001 -2.777778e-001
    endloop
  endfacet
  facet normal -1.000000e+000 2.943461e-023 6.123232e-017
    outer loop
      vertex  -1.527559e-017 7.951161e-001 -2.494693e-001
      vertex  -2.414733e-017 9.189578e-001 -3.943559e-001
      vertex  -2.012278e-017 7.657982e-001 -3.286299e-001
    endloop
  endfacet
  facet normal -1.000000e+000 3.222807e-023 6.123235e-017
    outer loop
      vertex  -2.476348e-017 7.286222e-001 -4.044183e-001
      vertex  -2.414733e-017 9.189578e-001 -3.943559e-001
      vertex  -3.498009e-017 8.207635e-001 -5.712682e-001
    endloop
  endfacet
  facet normal -1.000000e+000 5.518990e-024 6.123238e-017
    outer loop
      vertex  1.027165e-017 8.162749e-001 1.677488e-001
      vertex  1.527559e-017 7.951161e-001 2.494693e-001
      vertex  1.232598e-017 9.795299e-001 2.012985e-001
    endloop
  endfacet
  facet normal -1.000000e+000 1.344484e-023 6.123231e-017
    outer loop
      vertex  -1.527559e-017 7.951161e-001 -2.494693e-001
      vertex  -1.232598e-017 9.795299e-001 -2.012985e-001
      vertex  -2.414733e-017 9.189578e-001 -3.943559e-001
    endloop
  endfacet
  facet normal -1.000000e+000 0.000000e+000 6.123234e-017
    outer loop
      vertex  -5.162311e-018 8.290578e-001 -8.430693e-002
      vertex  0.000000e+000 8.333333e-001 0.000000e+000
      vertex  0.000000e+000 1.000000e+000 0.000000e+000
    endloop
  endfacet
  facet normal -1.000000e+000 -8.493862e-025 6.123235e-017
    outer loop
      vertex  -5.162311e-018 8.290578e-001 -8.430693e-002
      vertex  -5.669661e-018 6.481481e-001 -9.259259e-002
      vertex  0.000000e+000 8.333333e-001 0.000000e+000
    endloop
  endfacet
  facet normal -1.000000e+000 -1.581746e-024 6.123234e-017
    outer loop
      vertex  -5.162311e-018 8.290578e-001 -8.430693e-002
      vertex  0.000000e+000 1.000000e+000 0.000000e+000
      vertex  -1.232598e-017 9.795299e-001 -2.012985e-001
    endloop
  endfacet
  facet normal -1.000000e+000 -5.518990e-024 6.123238e-017
    outer loop
      vertex  -1.527559e-017 7.951161e-001 -2.494693e-001
      vertex  -1.027165e-017 8.162749e-001 -1.677488e-001
      vertex  -1.232598e-017 9.795299e-001 -2.012985e-001
    endloop
  endfacet
  facet normal -1.000000e+000 0.000000e+000 6.123232e-017
    outer loop
      vertex  -5.669661e-018 6.481481e-001 -9.259259e-002
      vertex  -1.700898e-017 6.481481e-001 -2.777778e-001
      vertex  -5.669661e-018 4.629630e-001 -9.259259e-002
    endloop
  endfacet
  facet normal -1.000000e+000 0.000000e+000 6.123234e-017
    outer loop
      vertex  0.000000e+000 8.333333e-001 0.000000e+000
      vertex  5.162311e-018 8.290578e-001 8.430693e-002
      vertex  0.000000e+000 1.000000e+000 0.000000e+000
    endloop
  endfacet
  facet normal -1.000000e+000 0.000000e+000 6.123235e-017
    outer loop
      vertex  0.000000e+000 8.333333e-001 0.000000e+000
      vertex  5.669661e-018 6.481481e-001 9.259259e-002
      vertex  5.162311e-018 8.290578e-001 8.430693e-002
    endloop
  endfacet
  facet normal -1.000000e+000 0.000000e+000 6.123232e-017
    outer loop
      vertex  1.700898e-017 2.777778e-001 2.777778e-001
      vertex  5.669661e-018 4.629630e-001 9.259259e-002
      vertex  5.669661e-018 2.777778e-001 9.259259e-002
    endloop
  endfacet
  facet normal -1.000000e+000 0.000000e+000 6.123234e-017
    outer loop
      vertex  5.669661e-018 6.481481e-001 9.259259e-002
      vertex  0.000000e+000 8.333333e-001 0.000000e+000
      vertex  -5.669661e-018 6.481481e-001 -9.259259e-002
    endloop
  endfacet
  facet normal -1.000000e+000 0.000000e+000 6.123232e-017
    outer loop
      vertex  -1.027165e-017 8.162749e-001 -1.677488e-001
      vertex  -5.669661e-018 6.481481e-001 -9.259259e-002
      vertex  -5.162311e-018 8.290578e-001 -8.430693e-002
    endloop
  endfacet
  facet normal -1.000000e+000 2.023487e-023 6.123238e-017
    outer loop
      vertex  -1.027165e-017 8.162749e-001 -1.677488e-001
      vertex  -1.527559e-017 7.951161e-001 -2.494693e-001
      vertex  -5.669661e-018 6.481481e-001 -9.259259e-002
    endloop
  endfacet
  facet normal -1.000000e+000 7.896243e-023 6.123223e-017
    outer loop
      vertex  -2.834831e-017 6.481481e-001 -4.629630e-001
      vertex  -2.476348e-017 7.286222e-001 -4.044183e-001
      vertex  -2.915007e-017 6.839696e-001 -4.760568e-001
    endloop
  endfacet
  facet normal -1.000000e+000 3.311395e-023 6.123232e-017
    outer loop
      vertex  -2.012278e-017 7.657982e-001 -3.286299e-001
      vertex  -2.414733e-017 9.189578e-001 -3.943559e-001
      vertex  -2.476348e-017 7.286222e-001 -4.044183e-001
    endloop
  endfacet
  facet normal -1.000000e+000 -3.348680e-023 6.123236e-017
    outer loop
      vertex  -2.476348e-017 7.286222e-001 -4.044183e-001
      vertex  -1.700898e-017 6.481481e-001 -2.777778e-001
      vertex  -2.012278e-017 7.657982e-001 -3.286299e-001
    endloop
  endfacet
  facet normal -1.000000e+000 0.000000e+000 6.123232e-017
    outer loop
      vertex  -1.700898e-017 4.629630e-001 -2.777778e-001
      vertex  -5.669661e-018 4.629630e-001 -9.259259e-002
      vertex  -1.700898e-017 6.481481e-001 -2.777778e-001
    endloop
  endfacet
  facet normal -1.000000e+000 0.000000e+000 6.123236e-017
    outer loop
      vertex  -1.700898e-017 2.777778e-001 -2.777778e-001
      vertex  -2.834831e-017 4.629630e-001 -4.629630e-001
      vertex  -2.834831e-017 2.777778e-001 -4.629630e-001
    endloop
  endfacet
  facet normal -1.000000e+000 0.000000e+000 6.123237e-017
    outer loop
      vertex  -1.700898e-017 4.629630e-001 -2.777778e-001
      vertex  -2.834831e-017 6.481481e-001 -4.629630e-001
      vertex  -2.834831e-017 4.629630e-001 -4.629630e-001
    endloop
  endfacet
  facet normal -1.000000e+000 0.000000e+000 6.123237e-017
    outer loop
      vertex  -2.834831e-017 9.259259e-002 -4.629630e-001
      vertex  -1.700898e-017 9.259259e-002 -2.777778e-001
      vertex  -2.834831e-017 2.777778e-001 -4.629630e-001
    endloop
  endfacet
  facet normal -1.000000e+000 0.000000e+000 6.123232e-017
    outer loop
      vertex  -5.669661e-018 9.259259e-002 -9.259259e-002
      vertex  -5.669661e-018 2.777778e-001 -9.259259e-002
      vertex  -1.700898e-017 2.777778e-001 -2.777778e-001
    endloop
  endfacet
  facet normal -1.000000e+000 0.000000e+000 6.123237e-017
    outer loop
      vertex  -2.834831e-017 2.777778e-001 -4.629630e-001
      vertex  -1.700898e-017 9.259259e-002 -2.777778e-001
      vertex  -1.700898e-017 2.777778e-001 -2.777778e-001
    endloop
  endfacet
  facet normal -1.000000e+000 0.000000e+000 6.123232e-017
    outer loop
      vertex  -1.700898e-017 -9.259259e-002 -2.777778e-001
      vertex  -5.669661e-018 -9.259259e-002 -9.259259e-002
      vertex  -1.700898e-017 9.259259e-002 -2.777778e-001
    endloop
  endfacet
  facet normal -1.000000e+000 0.000000e+000 6.123234e-017
    outer loop
      vertex  -5.669661e-018 4.629630e-001 -9.259259e-002
      vertex  -5.669661e-018 2.777778e-001 -9.259259e-002
      vertex  5.669661e-018 2.777778e-001 9.259259e-002
    endloop
  endfacet
  facet normal -1.000000e+000 0.000000e+000 6.123232e-017
    outer loop
      vertex  -5.669661e-018 4.629630e-001 -9.259259e-002
      vertex  -1.700898e-017 4.629630e-001 -2.777778e-001
      vertex  -5.669661e-018 2.777778e-001 -9.259259e-002
    endloop
  endfacet
  facet normal -1.000000e+000 0.000000e+000 6.123232e-017
    outer loop
      vertex  1.700898e-017 -9.259259e-002 2.777778e-001
      vertex  5.669661e-018 9.259259e-002 9.259259e-002
      vertex  5.669661e-018 -9.259259e-002 9.259259e-002
    endloop
  endfacet
  facet normal -1.000000e+000 0.000000e+000 6.123234e-017
    outer loop
      vertex  5.669661e-018 2.777778e-001 9.259259e-002
      vertex  -5.669661e-018 2.777778e-001 -9.259259e-002
      vertex  5.669661e-018 9.259259e-002 9.259259e-002
    endloop
  endfacet
  facet normal -1.000000e+000 0.000000e+000 6.123235e-017
    outer loop
      vertex  3.968763e-017 -2.777778e-001 6.481481e-001
      vertex  3.968763e-017 -9.259259e-002 6.481481e-001
      vertex  2.834831e-017 -9.259259e-002 4.629630e-001
    endloop
  endfacet
  facet normal -1.000000e+000 0.000000e+000 6.123237e-017
    outer loop
      vertex  2.834831e-017 9.259259e-002 4.629630e-001
      vertex  2.834831e-017 2.777778e-001 4.629630e-001
      vertex  1.700898e-017 2.777778e-001 2.777778e-001
    endloop
  endfacet
  facet normal -1.000000e+000 -7.709195e-024 6.123229e-017
    outer loop
      vertex  4.939802e-017 -2.088771e-001 8.067309e-001
      vertex  5.043852e-017 -1.261898e-001 8.237236e-001
      vertex  3.968763e-017 -9.259259e-002 6.481481e-001
    endloop
  endfacet
  facet normal -1.000000e+000 0.000000e+000 6.123236e-017
    outer loop
      vertex  2.834831e-017 2.777778e-001 4.629630e-001
      vertex  1.700898e-017 4.629630e-001 2.777778e-001
      vertex  1.700898e-017 2.777778e-001 2.777778e-001
    endloop
  endfacet
  facet normal -1.000000e+000 0.000000e+000 6.123236e-017
    outer loop
      vertex  2.834831e-017 4.629630e-001 4.629630e-001
      vertex  1.700898e-017 4.629630e-001 2.777778e-001
      vertex  2.834831e-017 2.777778e-001 4.629630e-001
    endloop
  endfacet
  facet normal -1.000000e+000 2.081466e-023 6.123236e-017
    outer loop
      vertex  2.834831e-017 6.481481e-001 4.629630e-001
      vertex  2.476348e-017 7.286222e-001 4.044183e-001
      vertex  1.700898e-017 6.481481e-001 2.777778e-001
    endloop
  endfacet
  facet normal -1.000000e+000 0.000000e+000 6.123235e-017
    outer loop
      vertex  3.968763e-017 9.259259e-002 6.481481e-001
      vertex  2.834831e-017 2.777778e-001 4.629630e-001
      vertex  2.834831e-017 9.259259e-002 4.629630e-001
    endloop
  endfacet
  facet normal -1.000000e+000 7.227806e-023 6.123231e-017
    outer loop
      vertex  3.968763e-017 2.777778e-001 6.481481e-001
      vertex  4.785063e-017 2.894211e-001 7.814601e-001
      vertex  4.581223e-017 3.669951e-001 7.481704e-001
    endloop
  endfacet
  facet normal -1.000000e+000 0.000000e+000 6.123232e-017
    outer loop
      vertex  5.669661e-018 6.481481e-001 9.259259e-002
      vertex  5.669661e-018 4.629630e-001 9.259259e-002
      vertex  1.700898e-017 4.629630e-001 2.777778e-001
    endloop
  endfacet
  facet normal -1.000000e+000 0.000000e+000 6.123234e-017
    outer loop
      vertex  5.669661e-018 6.481481e-001 9.259259e-002
      vertex  -5.669661e-018 6.481481e-001 -9.259259e-002
      vertex  5.669661e-018 4.629630e-001 9.259259e-002
    endloop
  endfacet
  facet normal -1.000000e+000 0.000000e+000 6.123237e-017
    outer loop
      vertex  2.834831e-017 9.259259e-002 4.629630e-001
      vertex  1.700898e-017 2.777778e-001 2.777778e-001
      vertex  1.700898e-017 9.259259e-002 2.777778e-001
    endloop
  endfacet
  facet normal -1.000000e+000 0.000000e+000 6.123232e-017
    outer loop
      vertex  1.700898e-017 4.629630e-001 2.777778e-001
      vertex  5.669661e-018 4.629630e-001 9.259259e-002
      vertex  1.700898e-017 2.777778e-001 2.777778e-001
    endloop
  endfacet
  facet normal -1.000000e+000 3.109489e-023 6.123235e-017
    outer loop
      vertex  2.012278e-017 7.657982e-001 3.286299e-001
      vertex  1.700898e-017 6.481481e-001 2.777778e-001
      vertex  2.476348e-017 7.286222e-001 4.044183e-001
    endloop
  endfacet
  facet normal -1.000000e+000 3.229239e-023 6.123232e-017
    outer loop
      vertex  1.527559e-017 7.951161e-001 2.494693e-001
      vertex  5.669661e-018 6.481481e-001 9.259259e-002
      vertex  1.700898e-017 6.481481e-001 2.777778e-001
    endloop
  endfacet
  facet normal -1.000000e+000 1.839661e-023 6.123232e-017
    outer loop
      vertex  5.162311e-018 8.290578e-001 8.430693e-002
      vertex  1.027165e-017 8.162749e-001 1.677488e-001
      vertex  1.232598e-017 9.795299e-001 2.012985e-001
    endloop
  endfacet
  facet normal -1.000000e+000 0.000000e+000 6.123232e-017
    outer loop
      vertex  5.162311e-018 8.290578e-001 8.430693e-002
      vertex  5.669661e-018 6.481481e-001 9.259259e-002
      vertex  1.027165e-017 8.162749e-001 1.677488e-001
    endloop
  endfacet
  facet normal -1.000000e+000 1.581746e-024 6.123234e-017
    outer loop
      vertex  5.162311e-018 8.290578e-001 8.430693e-002
      vertex  1.232598e-017 9.795299e-001 2.012985e-001
      vertex  0.000000e+000 1.000000e+000 0.000000e+000
    endloop
  endfacet
  facet normal -1.000000e+000 -2.943461e-023 6.123232e-017
    outer loop
      vertex  1.527559e-017 7.951161e-001 2.494693e-001
      vertex  2.012278e-017 7.657982e-001 3.286299e-001
      vertex  2.414733e-017 9.189578e-001 3.943559e-001
    endloop
  endfacet
  facet normal -1.000000e+000 3.828075e-023 6.123234e-017
    outer loop
      vertex  1.527559e-017 7.951161e-001 2.494693e-001
      vertex  1.700898e-017 6.481481e-001 2.777778e-001
      vertex  2.012278e-017 7.657982e-001 3.286299e-001
    endloop
  endfacet
  facet normal -1.000000e+000 -1.344484e-023 6.123231e-017
    outer loop
      vertex  1.527559e-017 7.951161e-001 2.494693e-001
      vertex  2.414733e-017 9.189578e-001 3.943559e-001
      vertex  1.232598e-017 9.795299e-001 2.012985e-001
    endloop
  endfacet
  facet normal -1.000000e+000 0.000000e+000 6.123236e-017
    outer loop
      vertex  3.968763e-017 2.777778e-001 6.481481e-001
      vertex  2.834831e-017 4.629630e-001 4.629630e-001
      vertex  2.834831e-017 2.777778e-001 4.629630e-001
    endloop
  endfacet
  facet normal -1.000000e+000 0.000000e+000 6.123237e-017
    outer loop
      vertex  2.834831e-017 6.481481e-001 4.629630e-001
      vertex  1.700898e-017 6.481481e-001 2.777778e-001
      vertex  2.834831e-017 4.629630e-001 4.629630e-001
    endloop
  endfacet
  facet normal -1.000000e+000 0.000000e+000 6.123236e-017
    outer loop
      vertex  3.968763e-017 2.777778e-001 6.481481e-001
      vertex  3.968763e-017 4.629630e-001 6.481481e-001
      vertex  2.834831e-017 4.629630e-001 4.629630e-001
    endloop
  endfacet
  facet normal -1.000000e+000 -7.793693e-023 6.123222e-017
    outer loop
      vertex  2.915007e-017 6.839696e-001 4.760568e-001
      vertex  2.476348e-017 7.286222e-001 4.044183e-001
      vertex  2.834831e-017 6.481481e-001 4.629630e-001
    endloop
  endfacet
  facet normal -1.000000e+000 0.000000e+000 6.123222e-017
    outer loop
      vertex  4.330373e-017 4.408033e-001 7.072036e-001
      vertex  3.968763e-017 4.629630e-001 6.481481e-001
      vertex  3.968763e-017 2.777778e-001 6.481481e-001
    endloop
  endfacet
  facet normal -1.000000e+000 0.000000e+000 6.123232e-017
    outer loop
      vertex  3.323755e-017 6.322984e-001 5.428104e-001
      vertex  2.834831e-017 6.481481e-001 4.629630e-001
      vertex  2.834831e-017 4.629630e-001 4.629630e-001
    endloop
  endfacet
  facet normal -1.000000e+000 -7.358646e-024 6.123238e-017
    outer loop
      vertex  2.915007e-017 6.839696e-001 4.760568e-001
      vertex  3.323755e-017 6.322984e-001 5.428104e-001
      vertex  3.498009e-017 8.207635e-001 5.712682e-001
    endloop
  endfacet
  facet normal -1.000000e+000 -1.053260e-022 6.123231e-017
    outer loop
      vertex  2.915007e-017 6.839696e-001 4.760568e-001
      vertex  2.834831e-017 6.481481e-001 4.629630e-001
      vertex  3.323755e-017 6.322984e-001 5.428104e-001
    endloop
  endfacet
  facet normal -1.000000e+000 -2.575530e-023 6.123237e-017
    outer loop
      vertex  3.323755e-017 6.322984e-001 5.428104e-001
      vertex  3.698397e-017 5.741391e-001 6.039940e-001
      vertex  4.438076e-017 6.889669e-001 7.247928e-001
    endloop
  endfacet
  facet normal -1.000000e+000 -2.239621e-023 6.123237e-017
    outer loop
      vertex  3.323755e-017 6.322984e-001 5.428104e-001
      vertex  2.834831e-017 4.629630e-001 4.629630e-001
      vertex  3.698397e-017 5.741391e-001 6.039940e-001
    endloop
  endfacet
  facet normal -1.000000e+000 -3.954360e-024 6.123236e-017
    outer loop
      vertex  3.323755e-017 6.322984e-001 5.428104e-001
      vertex  4.438076e-017 6.889669e-001 7.247928e-001
      vertex  3.498009e-017 8.207635e-001 5.712682e-001
    endloop
  endfacet
  facet normal -1.000000e+000 -8.699601e-024 6.123238e-017
    outer loop
      vertex  6.115375e-017 -5.064917e-002 9.987165e-001
      vertex  5.043852e-017 -1.261898e-001 8.237236e-001
      vertex  5.927763e-017 -2.506525e-001 9.680771e-001
    endloop
  endfacet
  facet normal -1.000000e+000 6.070892e-023 6.123228e-017
    outer loop
      vertex  3.698397e-017 5.741391e-001 6.039940e-001
      vertex  4.035087e-017 5.100883e-001 6.589798e-001
      vertex  4.438076e-017 6.889669e-001 7.247928e-001
    endloop
  endfacet
  facet normal -1.000000e+000 5.219759e-023 6.123231e-017
    outer loop
      vertex  4.438076e-017 6.889669e-001 7.247928e-001
      vertex  4.035087e-017 5.100883e-001 6.589798e-001
      vertex  5.196447e-017 5.289640e-001 8.486443e-001
    endloop
  endfacet
  facet normal -1.000000e+000 -1.022960e-022 6.123209e-017
    outer loop
      vertex  3.698397e-017 5.741391e-001 6.039940e-001
      vertex  3.968763e-017 4.629630e-001 6.481481e-001
      vertex  4.035087e-017 5.100883e-001 6.589798e-001
    endloop
  endfacet
  facet normal -1.000000e+000 -8.899529e-023 6.123246e-017
    outer loop
      vertex  4.581223e-017 3.669951e-001 7.481704e-001
      vertex  4.330373e-017 4.408033e-001 7.072036e-001
      vertex  3.968763e-017 2.777778e-001 6.481481e-001
    endloop
  endfacet
  facet normal -1.000000e+000 -2.207593e-023 6.123232e-017
    outer loop
      vertex  5.196447e-017 5.289640e-001 8.486443e-001
      vertex  4.035087e-017 5.100883e-001 6.589798e-001
      vertex  4.330373e-017 4.408033e-001 7.072036e-001
    endloop
  endfacet
  facet normal -1.000000e+000 -7.908722e-023 6.123232e-017
    outer loop
      vertex  4.581223e-017 3.669951e-001 7.481704e-001
      vertex  5.742076e-017 3.473052e-001 9.377521e-001
      vertex  5.196447e-017 5.289640e-001 8.486443e-001
    endloop
  endfacet
  facet normal -1.000000e+000 5.518986e-023 6.123234e-017
    outer loop
      vertex  4.785063e-017 2.894211e-001 7.814601e-001
      vertex  4.939802e-017 2.088771e-001 8.067309e-001
      vertex  5.742076e-017 3.473052e-001 9.377521e-001
    endloop
  endfacet
  facet normal -1.000000e+000 8.830392e-023 6.123232e-017
    outer loop
      vertex  5.742076e-017 3.473052e-001 9.377521e-001
      vertex  4.581223e-017 3.669951e-001 7.481704e-001
      vertex  4.785063e-017 2.894211e-001 7.814601e-001
    endloop
  endfacet
  facet normal -1.000000e+000 -1.324559e-022 6.123238e-017
    outer loop
      vertex  5.196447e-017 5.289640e-001 8.486443e-001
      vertex  4.330373e-017 4.408033e-001 7.072036e-001
      vertex  4.581223e-017 3.669951e-001 7.481704e-001
    endloop
  endfacet
  facet normal -1.000000e+000 1.739920e-023 6.123238e-017
    outer loop
      vertex  5.742076e-017 3.473052e-001 9.377521e-001
      vertex  4.939802e-017 2.088771e-001 8.067309e-001
      vertex  6.052623e-017 1.514278e-001 9.884683e-001
    endloop
  endfacet
  facet normal -1.000000e+000 4.803536e-023 6.123232e-017
    outer loop
      vertex  4.785063e-017 2.894211e-001 7.814601e-001
      vertex  3.968763e-017 2.777778e-001 6.481481e-001
      vertex  4.939802e-017 2.088771e-001 8.067309e-001
    endloop
  endfacet
  facet normal -1.000000e+000 0.000000e+000 6.123231e-017
    outer loop
      vertex  5.096146e-017 -4.220764e-002 8.322638e-001
      vertex  3.968763e-017 9.259259e-002 6.481481e-001
      vertex  3.968763e-017 -9.259259e-002 6.481481e-001
    endloop
  endfacet
  facet normal -1.000000e+000 0.000000e+000 6.123230e-017
    outer loop
      vertex  4.939802e-017 2.088771e-001 8.067309e-001
      vertex  3.968763e-017 2.777778e-001 6.481481e-001
      vertex  3.968763e-017 9.259259e-002 6.481481e-001
    endloop
  endfacet
  facet normal -1.000000e+000 2.575529e-023 6.123238e-017
    outer loop
      vertex  4.939802e-017 2.088771e-001 8.067309e-001
      vertex  5.043852e-017 1.261898e-001 8.237236e-001
      vertex  6.052623e-017 1.514278e-001 9.884683e-001
    endloop
  endfacet
  facet normal -1.000000e+000 7.709195e-024 6.123229e-017
    outer loop
      vertex  4.939802e-017 2.088771e-001 8.067309e-001
      vertex  3.968763e-017 9.259259e-002 6.481481e-001
      vertex  5.043852e-017 1.261898e-001 8.237236e-001
    endloop
  endfacet
  facet normal -1.000000e+000 0.000000e+000 6.123236e-017
    outer loop
      vertex  5.096146e-017 4.220764e-002 8.322638e-001
      vertex  5.096146e-017 -4.220764e-002 8.322638e-001
      vertex  6.115375e-017 -5.064917e-002 9.987165e-001
    endloop
  endfacet
  facet normal -1.000000e+000 0.000000e+000 6.123231e-017
    outer loop
      vertex  5.096146e-017 4.220764e-002 8.322638e-001
      vertex  3.968763e-017 9.259259e-002 6.481481e-001
      vertex  5.096146e-017 -4.220764e-002 8.322638e-001
    endloop
  endfacet
  facet normal -1.000000e+000 -3.127429e-023 6.123239e-017
    outer loop
      vertex  5.043852e-017 1.261898e-001 8.237236e-001
      vertex  5.096146e-017 4.220764e-002 8.322638e-001
      vertex  6.052623e-017 1.514278e-001 9.884683e-001
    endloop
  endfacet
  facet normal -1.000000e+000 -4.041081e-023 6.123230e-017
    outer loop
      vertex  5.043852e-017 1.261898e-001 8.237236e-001
      vertex  3.968763e-017 9.259259e-002 6.481481e-001
      vertex  5.096146e-017 4.220764e-002 8.322638e-001
    endloop
  endfacet
  facet normal -1.000000e+000 6.326984e-024 6.123236e-017
    outer loop
      vertex  5.096146e-017 4.220764e-002 8.322638e-001
      vertex  6.115375e-017 -5.064917e-002 9.987165e-001
      vertex  6.052623e-017 1.514278e-001 9.884683e-001
    endloop
  endfacet
  facet normal -1.000000e+000 -2.299579e-023 6.123237e-017
    outer loop
      vertex  5.043852e-017 -1.261898e-001 8.237236e-001
      vertex  4.939802e-017 -2.088771e-001 8.067309e-001
      vertex  5.927763e-017 -2.506525e-001 9.680771e-001
    endloop
  endfacet
  facet normal -1.000000e+000 0.000000e+000 6.123235e-017
    outer loop
      vertex  3.968763e-017 -9.259259e-002 6.481481e-001
      vertex  3.968763e-017 9.259259e-002 6.481481e-001
      vertex  2.834831e-017 9.259259e-002 4.629630e-001
    endloop
  endfacet
  facet normal -1.000000e+000 6.010630e-023 6.123234e-017
    outer loop
      vertex  4.785063e-017 -2.894211e-001 7.814601e-001
      vertex  5.497467e-017 -4.403942e-001 8.978046e-001
      vertex  5.927763e-017 -2.506525e-001 9.680771e-001
    endloop
  endfacet
  facet normal -1.000000e+000 7.383500e-023 6.123223e-017
    outer loop
      vertex  2.476348e-017 -7.286222e-001 4.044183e-001
      vertex  2.915007e-017 -6.839696e-001 4.760568e-001
      vertex  2.834831e-017 -6.481481e-001 4.629630e-001
    endloop
  endfacet
  facet normal -1.000000e+000 1.022960e-022 6.123208e-017
    outer loop
      vertex  4.035087e-017 -5.100883e-001 6.589798e-001
      vertex  3.968763e-017 -4.629630e-001 6.481481e-001
      vertex  3.698397e-017 -5.741391e-001 6.039940e-001
    endloop
  endfacet
  facet normal -1.000000e+000 8.899529e-023 6.123246e-017
    outer loop
      vertex  4.330373e-017 -4.408033e-001 7.072036e-001
      vertex  4.581223e-017 -3.669951e-001 7.481704e-001
      vertex  3.968763e-017 -2.777778e-001 6.481481e-001
    endloop
  endfacet
  facet normal -1.000000e+000 -3.127426e-023 6.123221e-017
    outer loop
      vertex  4.785063e-017 -2.894211e-001 7.814601e-001
      vertex  4.581223e-017 -3.669951e-001 7.481704e-001
      vertex  5.497467e-017 -4.403942e-001 8.978046e-001
    endloop
  endfacet
  facet normal -1.000000e+000 -7.468733e-023 6.123231e-017
    outer loop
      vertex  4.785063e-017 -2.894211e-001 7.814601e-001
      vertex  3.968763e-017 -2.777778e-001 6.481481e-001
      vertex  4.581223e-017 -3.669951e-001 7.481704e-001
    endloop
  endfacet
  facet normal -1.000000e+000 0.000000e+000 6.123235e-017
    outer loop
      vertex  2.834831e-017 -2.777778e-001 4.629630e-001
      vertex  3.968763e-017 -2.777778e-001 6.481481e-001
      vertex  2.834831e-017 -9.259259e-002 4.629630e-001
    endloop
  endfacet
  facet normal -1.000000e+000 -4.803536e-023 6.123232e-017
    outer loop
      vertex  4.785063e-017 -2.894211e-001 7.814601e-001
      vertex  4.939802e-017 -2.088771e-001 8.067309e-001
      vertex  3.968763e-017 -2.777778e-001 6.481481e-001
    endloop
  endfacet
  facet normal -1.000000e+000 0.000000e+000 6.123230e-017
    outer loop
      vertex  4.939802e-017 -2.088771e-001 8.067309e-001
      vertex  3.968763e-017 -9.259259e-002 6.481481e-001
      vertex  3.968763e-017 -2.777778e-001 6.481481e-001
    endloop
  endfacet
  facet normal -1.000000e+000 4.041081e-023 6.123230e-017
    outer loop
      vertex  5.043852e-017 -1.261898e-001 8.237236e-001
      vertex  5.096146e-017 -4.220764e-002 8.322638e-001
      vertex  3.968763e-017 -9.259259e-002 6.481481e-001
    endloop
  endfacet
  facet normal -1.000000e+000 0.000000e+000 6.123235e-017
    outer loop
      vertex  2.834831e-017 9.259259e-002 4.629630e-001
      vertex  2.834831e-017 -9.259259e-002 4.629630e-001
      vertex  3.968763e-017 -9.259259e-002 6.481481e-001
    endloop
  endfacet
  facet normal -1.000000e+000 0.000000e+000 6.123237e-017
    outer loop
      vertex  2.834831e-017 9.259259e-002 4.629630e-001
      vertex  1.700898e-017 9.259259e-002 2.777778e-001
      vertex  2.834831e-017 -9.259259e-002 4.629630e-001
    endloop
  endfacet
  facet normal -1.000000e+000 0.000000e+000 6.123232e-017
    outer loop
      vertex  1.700898e-017 -9.259259e-002 2.777778e-001
      vertex  5.669661e-018 -9.259259e-002 9.259259e-002
      vertex  1.700898e-017 -2.777778e-001 2.777778e-001
    endloop
  endfacet
  facet normal -1.000000e+000 0.000000e+000 6.123234e-017
    outer loop
      vertex  5.669661e-018 9.259259e-002 9.259259e-002
      vertex  -5.669661e-018 9.259259e-002 -9.259259e-002
      vertex  5.669661e-018 -9.259259e-002 9.259259e-002
    endloop
  endfacet
  facet normal -1.000000e+000 0.000000e+000 6.123237e-017
    outer loop
      vertex  2.834831e-017 -2.777778e-001 4.629630e-001
      vertex  1.700898e-017 -9.259259e-002 2.777778e-001
      vertex  1.700898e-017 -2.777778e-001 2.777778e-001
    endloop
  endfacet
  facet normal -1.000000e+000 0.000000e+000 6.123237e-017
    outer loop
      vertex  2.834831e-017 -9.259259e-002 4.629630e-001
      vertex  1.700898e-017 9.259259e-002 2.777778e-001
      vertex  1.700898e-017 -9.259259e-002 2.777778e-001
    endloop
  endfacet
  facet normal -1.000000e+000 0.000000e+000 6.123232e-017
    outer loop
      vertex  1.700898e-017 -2.777778e-001 2.777778e-001
      vertex  5.669661e-018 -2.777778e-001 9.259259e-002
      vertex  1.700898e-017 -4.629630e-001 2.777778e-001
    endloop
  endfacet
  facet normal -1.000000e+000 0.000000e+000 6.123234e-017
    outer loop
      vertex  -5.669661e-018 -4.629630e-001 -9.259259e-002
      vertex  -5.669661e-018 -6.481481e-001 -9.259259e-002
      vertex  5.669661e-018 -6.481481e-001 9.259259e-002
    endloop
  endfacet
  facet normal -1.000000e+000 0.000000e+000 6.123232e-017
    outer loop
      vertex  1.700898e-017 -4.629630e-001 2.777778e-001
      vertex  5.669661e-018 -2.777778e-001 9.259259e-002
      vertex  5.669661e-018 -4.629630e-001 9.259259e-002
    endloop
  endfacet
  facet normal -1.000000e+000 0.000000e+000 6.123232e-017
    outer loop
      vertex  1.700898e-017 -2.777778e-001 2.777778e-001
      vertex  5.669661e-018 -9.259259e-002 9.259259e-002
      vertex  5.669661e-018 -2.777778e-001 9.259259e-002
    endloop
  endfacet
  facet normal -1.000000e+000 -2.511094e-024 6.123235e-017
    outer loop
      vertex  3.968763e-017 -4.629630e-001 6.481481e-001
      vertex  2.834831e-017 -4.629630e-001 4.629630e-001
      vertex  3.698397e-017 -5.741391e-001 6.039940e-001
    endloop
  endfacet
  facet normal -1.000000e+000 0.000000e+000 6.123236e-017
    outer loop
      vertex  3.968763e-017 -4.629630e-001 6.481481e-001
      vertex  3.968763e-017 -2.777778e-001 6.481481e-001
      vertex  2.834831e-017 -2.777778e-001 4.629630e-001
    endloop
  endfacet
  facet normal -1.000000e+000 0.000000e+000 6.123237e-017
    outer loop
      vertex  1.700898e-017 -9.259259e-002 2.777778e-001
      vertex  2.834831e-017 -2.777778e-001 4.629630e-001
      vertex  2.834831e-017 -9.259259e-002 4.629630e-001
    endloop
  endfacet
  facet normal -1.000000e+000 0.000000e+000 6.123236e-017
    outer loop
      vertex  2.834831e-017 -4.629630e-001 4.629630e-001
      vertex  3.968763e-017 -4.629630e-001 6.481481e-001
      vertex  2.834831e-017 -2.777778e-001 4.629630e-001
    endloop
  endfacet
  facet normal -1.000000e+000 0.000000e+000 6.123232e-017
    outer loop
      vertex  5.669661e-018 -4.629630e-001 9.259259e-002
      vertex  1.700898e-017 -6.481481e-001 2.777778e-001
      vertex  1.700898e-017 -4.629630e-001 2.777778e-001
    endloop
  endfacet
  facet normal -1.000000e+000 -3.039284e-023 6.123232e-017
    outer loop
      vertex  5.669661e-018 -6.481481e-001 9.259259e-002
      vertex  1.527559e-017 -7.951161e-001 2.494693e-001
      vertex  1.700898e-017 -6.481481e-001 2.777778e-001
    endloop
  endfacet
  facet normal -1.000000e+000 -8.493862e-025 6.123235e-017
    outer loop
      vertex  5.162311e-018 -8.290578e-001 8.430693e-002
      vertex  5.669661e-018 -6.481481e-001 9.259259e-002
      vertex  8.445293e-033 -8.333333e-001 1.379221e-016
    endloop
  endfacet
  facet normal -1.000000e+000 0.000000e+000 6.123232e-017
    outer loop
      vertex  1.700898e-017 -6.481481e-001 2.777778e-001
      vertex  5.669661e-018 -4.629630e-001 9.259259e-002
      vertex  5.669661e-018 -6.481481e-001 9.259259e-002
    endloop
  endfacet
  facet normal -1.000000e+000 0.000000e+000 6.123232e-017
    outer loop
      vertex  5.162311e-018 -8.290578e-001 8.430693e-002
      vertex  1.027165e-017 -8.162749e-001 1.677488e-001
      vertex  5.669661e-018 -6.481481e-001 9.259259e-002
    endloop
  endfacet
  facet normal -1.000000e+000 -4.745233e-024 6.123232e-017
    outer loop
      vertex  1.027165e-017 -8.162749e-001 1.677488e-001
      vertex  6.194773e-018 -9.948694e-001 1.011683e-001
      vertex  1.833070e-017 -9.541392e-001 2.993631e-001
    endloop
  endfacet
  facet normal -1.000000e+000 0.000000e+000 6.123236e-017
    outer loop
      vertex  -6.194773e-018 -9.948694e-001 -1.011683e-001
      vertex  6.194773e-018 -9.948694e-001 1.011683e-001
      vertex  8.445293e-033 -8.333333e-001 1.379221e-016
    endloop
  endfacet
  facet normal -1.000000e+000 -7.358652e-024 6.123234e-017
    outer loop
      vertex  8.445293e-033 -8.333333e-001 1.379221e-016
      vertex  6.194773e-018 -9.948694e-001 1.011683e-001
      vertex  5.162311e-018 -8.290578e-001 8.430693e-002
    endloop
  endfacet
  facet normal -1.000000e+000 3.127430e-023 6.123232e-017
    outer loop
      vertex  2.012278e-017 -7.657982e-001 3.286299e-001
      vertex  1.527559e-017 -7.951161e-001 2.494693e-001
      vertex  1.833070e-017 -9.541392e-001 2.993631e-001
    endloop
  endfacet
  facet normal -1.000000e+000 4.415199e-023 6.123236e-017
    outer loop
      vertex  1.833070e-017 -9.541392e-001 2.993631e-001
      vertex  1.527559e-017 -7.951161e-001 2.494693e-001
      vertex  1.027165e-017 -8.162749e-001 1.677488e-001
    endloop
  endfacet
  facet normal -1.000000e+000 1.686239e-023 6.123236e-017
    outer loop
      vertex  5.669661e-018 -6.481481e-001 9.259259e-002
      vertex  1.027165e-017 -8.162749e-001 1.677488e-001
      vertex  1.527559e-017 -7.951161e-001 2.494693e-001
    endloop
  endfacet
  facet normal -1.000000e+000 -8.738394e-024 6.123232e-017
    outer loop
      vertex  5.162311e-018 -8.290578e-001 8.430693e-002
      vertex  6.194773e-018 -9.948694e-001 1.011683e-001
      vertex  1.027165e-017 -8.162749e-001 1.677488e-001
    endloop
  endfacet
  facet normal -1.000000e+000 -2.530793e-023 6.123234e-017
    outer loop
      vertex  3.988506e-017 -7.587581e-001 6.513725e-001
      vertex  2.915007e-017 -6.839696e-001 4.760568e-001
      vertex  2.971618e-017 -8.743466e-001 4.853020e-001
    endloop
  endfacet
  facet normal -1.000000e+000 2.530793e-023 6.123236e-017
    outer loop
      vertex  2.971618e-017 -8.743466e-001 4.853020e-001
      vertex  2.012278e-017 -7.657982e-001 3.286299e-001
      vertex  1.833070e-017 -9.541392e-001 2.993631e-001
    endloop
  endfacet
  facet normal -1.000000e+000 -3.348680e-023 6.123236e-017
    outer loop
      vertex  2.476348e-017 -7.286222e-001 4.044183e-001
      vertex  1.700898e-017 -6.481481e-001 2.777778e-001
      vertex  2.012278e-017 -7.657982e-001 3.286299e-001
    endloop
  endfacet
  facet normal -1.000000e+000 2.759494e-023 6.123237e-017
    outer loop
      vertex  3.698397e-017 -5.741391e-001 6.039940e-001
      vertex  3.323755e-017 -6.322984e-001 5.428104e-001
      vertex  3.988506e-017 -7.587581e-001 6.513725e-001
    endloop
  endfacet
  facet normal -1.000000e+000 0.000000e+000 6.123235e-017
    outer loop
      vertex  2.971618e-017 -8.743466e-001 4.853020e-001
      vertex  2.476348e-017 -7.286222e-001 4.044183e-001
      vertex  2.012278e-017 -7.657982e-001 3.286299e-001
    endloop
  endfacet
  facet normal -1.000000e+000 -2.713504e-023 6.123230e-017
    outer loop
      vertex  2.971618e-017 -8.743466e-001 4.853020e-001
      vertex  2.915007e-017 -6.839696e-001 4.760568e-001
      vertex  2.476348e-017 -7.286222e-001 4.044183e-001
    endloop
  endfacet
  facet normal -1.000000e+000 0.000000e+000 6.123237e-017
    outer loop
      vertex  1.700898e-017 -4.629630e-001 2.777778e-001
      vertex  2.834831e-017 -6.481481e-001 4.629630e-001
      vertex  2.834831e-017 -4.629630e-001 4.629630e-001
    endloop
  endfacet
  facet normal -1.000000e+000 -2.081466e-023 6.123236e-017
    outer loop
      vertex  1.700898e-017 -6.481481e-001 2.777778e-001
      vertex  2.476348e-017 -7.286222e-001 4.044183e-001
      vertex  2.834831e-017 -6.481481e-001 4.629630e-001
    endloop
  endfacet
  facet normal -1.000000e+000 -1.655695e-023 6.123236e-017
    outer loop
      vertex  4.330373e-017 -4.408033e-001 7.072036e-001
      vertex  4.035087e-017 -5.100883e-001 6.589798e-001
      vertex  4.842105e-017 -6.121060e-001 7.907757e-001
    endloop
  endfacet
  facet normal -1.000000e+000 1.197113e-022 6.123217e-017
    outer loop
      vertex  4.330373e-017 -4.408033e-001 7.072036e-001
      vertex  3.968763e-017 -4.629630e-001 6.481481e-001
      vertex  4.035087e-017 -5.100883e-001 6.589798e-001
    endloop
  endfacet
  facet normal -1.000000e+000 -4.428885e-023 6.123231e-017
    outer loop
      vertex  4.330373e-017 -4.408033e-001 7.072036e-001
      vertex  4.842105e-017 -6.121060e-001 7.907757e-001
      vertex  5.497467e-017 -4.403942e-001 8.978046e-001
    endloop
  endfacet
  facet normal -1.000000e+000 2.943458e-023 6.123236e-017
    outer loop
      vertex  3.988506e-017 -7.587581e-001 6.513725e-001
      vertex  3.323755e-017 -6.322984e-001 5.428104e-001
      vertex  2.915007e-017 -6.839696e-001 4.760568e-001
    endloop
  endfacet
  facet normal -1.000000e+000 2.411899e-023 6.123237e-017
    outer loop
      vertex  3.698397e-017 -5.741391e-001 6.039940e-001
      vertex  2.834831e-017 -4.629630e-001 4.629630e-001
      vertex  3.323755e-017 -6.322984e-001 5.428104e-001
    endloop
  endfacet
  facet normal -1.000000e+000 2.056269e-023 6.123233e-017
    outer loop
      vertex  3.698397e-017 -5.741391e-001 6.039940e-001
      vertex  3.988506e-017 -7.587581e-001 6.513725e-001
      vertex  4.842105e-017 -6.121060e-001 7.907757e-001
    endloop
  endfacet
endsolid vcg
